Hack-BoldItalic.ufo
<glyph name="exclam" format="1">
  <advance width="1233"/>
  <unicode hex="0021"/>
  <note>
	exclam
  </note>
  <outline>
    <contour>
      <point x="637" y="1054" type="line"/>
      <point x="708" y="1508" type="line"/>
      <point x="994" y="1508" type="line"/>
      <point x="922" y="1051" type="line"/>
      <point x="763" y="476" type="line"/>
      <point x="624" y="476" type="line"/>
    </contour>
    <contour>
      <point x="561" y="-65"/>
      <point x="526" y="-46"/>
      <point x="503" y="-22" type="curve"/>
      <point x="474" y="11"/>
      <point x="465" y="55"/>
      <point x="465" y="90" type="curve" smooth="yes"/>
      <point x="465" y="131"/>
      <point x="478" y="173"/>
      <point x="502" y="206" type="curve" smooth="yes"/>
      <point x="525" y="239"/>
      <point x="558" y="266"/>
      <point x="597" y="281" type="curve" smooth="yes"/>
      <point x="619" y="289"/>
      <point x="643" y="293"/>
      <point x="670" y="293" type="curve" smooth="yes"/>
      <point x="727" y="293"/>
      <point x="759" y="270"/>
      <point x="780" y="247" type="curve" smooth="yes"/>
      <point x="807" y="216"/>
      <point x="817" y="180"/>
      <point x="817" y="140" type="curve" smooth="yes"/>
      <point x="817" y="112"/>
      <point x="811" y="85"/>
      <point x="803" y="66" type="curve" smooth="yes"/>
      <point x="782" y="14"/>
      <point x="742" y="-29"/>
      <point x="686" y="-52" type="curve" smooth="yes"/>
      <point x="664" y="-61"/>
      <point x="639" y="-65"/>
      <point x="612" y="-65" type="curve" smooth="yes"/>
    </contour>
  </outline>
</glyph>
<glyph name="dollar" format="1">
  <advance width="1233"/>
  <unicode hex="0024"/>
  <note>
	dollar
  </note>
  <outline>
    <contour>
      <point x="361" y="0" type="line"/>
      <point x="359" y="1"/>
      <point x="344" y="3"/>
      <point x="315" y="8" type="curve" smooth="yes"/>
      <point x="257" y="16"/>
      <point x="189" y="33"/>
      <point x="132" y="54" type="curve" smooth="yes"/>
      <point x="103" y="65"/>
      <point x="72" y="77"/>
      <point x="39" y="92" type="curve"/>
      <point x="90" y="354" type="line"/>
      <point x="150" y="313"/>
      <point x="208" y="283"/>
      <point x="268" y="260" type="curve" smooth="yes"/>
      <point x="326" y="239"/>
      <point x="388" y="226"/>
      <point x="454" y="223" type="curve"/>
      <point x="522" y="569" type="line"/>
      <point x="397" y="598"/>
      <point x="328" y="638"/>
      <point x="277" y="691" type="curve" smooth="yes"/>
      <point x="225" y="747"/>
      <point x="199" y="812"/>
      <point x="199" y="900" type="curve" smooth="yes"/>
      <point x="199" y="1013"/>
      <point x="242" y="1113"/>
      <point x="327" y="1193" type="curve" smooth="yes"/>
      <point x="412" y="1272"/>
      <point x="508" y="1314"/>
      <point x="617" y="1319" type="curve"/>
      <point x="665" y="1556" type="line"/>
      <point x="886" y="1556" type="line"/>
      <point x="839" y="1319" type="line"/>
      <point x="836" y="1318"/>
      <point x="847" y="1315"/>
      <point x="873" y="1312" type="curve" smooth="yes"/>
      <point x="924" y="1305"/>
      <point x="963" y="1298"/>
      <point x="1014" y="1286" type="curve"/>
      <point x="1039" y="1279"/>
      <point x="1065" y="1271"/>
      <point x="1092" y="1262" type="curve"/>
      <point x="1042" y="1012" type="line"/>
      <point x="999" y="1040"/>
      <point x="952" y="1060"/>
      <point x="911" y="1073" type="curve" smooth="yes"/>
      <point x="863" y="1088"/>
      <point x="809" y="1096"/>
      <point x="748" y="1098" type="curve"/>
      <point x="684" y="784" type="line"/>
      <point x="805" y="752"/>
      <point x="893" y="708"/>
      <point x="947" y="652" type="curve" smooth="yes"/>
      <point x="1002" y="596"/>
      <point x="1028" y="527"/>
      <point x="1028" y="435" type="curve" smooth="yes"/>
      <point x="1028" y="316"/>
      <point x="985" y="215"/>
      <point x="897" y="135" type="curve" smooth="yes"/>
      <point x="806" y="52"/>
      <point x="675" y="11"/>
      <point x="583" y="0" type="curve"/>
      <point x="525" y="-301" type="line"/>
      <point x="304" y="-301" type="line"/>
    </contour>
    <contour>
      <point x="624" y="1099" type="line"/>
      <point x="569" y="1093"/>
      <point x="528" y="1075"/>
      <point x="501" y="1045" type="curve" smooth="yes"/>
      <point x="472" y="1013"/>
      <point x="459" y="975"/>
      <point x="459" y="935" type="curve" smooth="yes"/>
      <point x="459" y="902"/>
      <point x="468" y="881"/>
      <point x="485" y="862" type="curve" smooth="yes"/>
      <point x="502" y="843"/>
      <point x="531" y="829"/>
      <point x="571" y="821" type="curve"/>
    </contour>
    <contour>
      <point x="578" y="227" type="line"/>
      <point x="639" y="234"/>
      <point x="686" y="253"/>
      <point x="719" y="286" type="curve" smooth="yes"/>
      <point x="750" y="317"/>
      <point x="768" y="352"/>
      <point x="768" y="401" type="curve" smooth="yes"/>
      <point x="768" y="470"/>
      <point x="736" y="509"/>
      <point x="637" y="532" type="curve"/>
    </contour>
  </outline>
</glyph>
<glyph name="ampersand" format="1">
  <advance width="1233"/>
  <unicode hex="0026"/>
  <note>
	ampersand
  </note>
  <outline>
    <contour>
      <point x="264" y="-29"/>
      <point x="157" y="5"/>
      <point x="80" y="77" type="curve" smooth="yes"/>
      <point x="1" y="150"/>
      <point x="-33" y="251"/>
      <point x="-33" y="362" type="curve" smooth="yes"/>
      <point x="-33" y="469"/>
      <point x="0" y="571"/>
      <point x="66" y="666" type="curve" smooth="yes"/>
      <point x="134" y="763"/>
      <point x="225" y="842"/>
      <point x="350" y="913" type="curve"/>
      <point x="331" y="954"/>
      <point x="321" y="985"/>
      <point x="312" y="1021" type="curve" smooth="yes"/>
      <point x="304" y="1053"/>
      <point x="299" y="1079"/>
      <point x="299" y="1118" type="curve" smooth="yes"/>
      <point x="299" y="1235"/>
      <point x="343" y="1338"/>
      <point x="432" y="1411" type="curve" smooth="yes"/>
      <point x="520" y="1483"/>
      <point x="645" y="1520"/>
      <point x="794" y="1520" type="curve" smooth="yes"/>
      <point x="843" y="1520"/>
      <point x="888" y="1516"/>
      <point x="933" y="1509" type="curve" smooth="yes"/>
      <point x="977" y="1502"/>
      <point x="1018" y="1492"/>
      <point x="1065" y="1477" type="curve"/>
      <point x="1016" y="1221" type="line"/>
      <point x="980" y="1244"/>
      <point x="941" y="1262"/>
      <point x="898" y="1275" type="curve" smooth="yes"/>
      <point x="855" y="1288"/>
      <point x="812" y="1294"/>
      <point x="769" y="1294" type="curve" smooth="yes"/>
      <point x="705" y="1294"/>
      <point x="662" y="1282"/>
      <point x="633" y="1259" type="curve" smooth="yes"/>
      <point x="602" y="1235"/>
      <point x="586" y="1201"/>
      <point x="586" y="1158" type="curve" smooth="yes"/>
      <point x="586" y="1110"/>
      <point x="612" y="1041"/>
      <point x="630" y="998" type="curve" smooth="yes"/>
      <point x="639" y="977"/>
      <point x="650" y="951"/>
      <point x="664" y="920" type="curve" smooth="yes"/>
      <point x="885" y="440" type="line"/>
      <point x="941" y="517"/>
      <point x="972" y="618"/>
      <point x="979" y="745" type="curve"/>
      <point x="1214" y="745" type="line"/>
      <point x="1201" y="537"/>
      <point x="1119" y="369"/>
      <point x="975" y="246" type="curve"/>
      <point x="1090" y="0" type="line"/>
      <point x="774" y="0" type="line"/>
      <point x="739" y="72" type="line"/>
      <point x="682" y="39"/>
      <point x="624" y="13"/>
      <point x="564" y="-4" type="curve" smooth="yes"/>
      <point x="505" y="-21"/>
      <point x="446" y="-29"/>
      <point x="387" y="-29" type="curve" smooth="yes"/>
    </contour>
    <contour>
      <point x="501" y="207"/>
      <point x="531" y="212"/>
      <point x="562" y="221" type="curve" smooth="yes"/>
      <point x="593" y="230"/>
      <point x="622" y="243"/>
      <point x="653" y="262" type="curve"/>
      <point x="436" y="731" type="line"/>
      <point x="375" y="696"/>
      <point x="330" y="654"/>
      <point x="299" y="605" type="curve" smooth="yes"/>
      <point x="267" y="554"/>
      <point x="252" y="496"/>
      <point x="252" y="440" type="curve" smooth="yes"/>
      <point x="252" y="375"/>
      <point x="272" y="317"/>
      <point x="315" y="273" type="curve" smooth="yes"/>
      <point x="358" y="229"/>
      <point x="413" y="207"/>
      <point x="473" y="207" type="curve" smooth="yes"/>
    </contour>
  </outline>
</glyph>
<glyph name="period" format="1">
  <advance width="1233"/>
  <unicode hex="002E"/>
  <note>
	period
  </note>
  <outline>
    <contour>
      <point x="563" y="-42"/>
      <point x="521" y="-25"/>
      <point x="487" y="9" type="curve" smooth="yes"/>
      <point x="455" y="41"/>
      <point x="436" y="86"/>
      <point x="436" y="143" type="curve" smooth="yes"/>
      <point x="436" y="248"/>
      <point x="513" y="326"/>
      <point x="612" y="326" type="curve" smooth="yes"/>
      <point x="713" y="326"/>
      <point x="790" y="252"/>
      <point x="790" y="141" type="curve" smooth="yes"/>
      <point x="790" y="34"/>
      <point x="713" y="-42"/>
      <point x="614" y="-42" type="curve" smooth="yes"/>
    </contour>
  </outline>
</glyph>
<glyph name="zero" format="1">
  <advance width="1233"/>
  <unicode hex="0030"/>
  <note>
	zero
  </note>
  <outline>
    <contour>
      <point x="360" y="-29"/>
      <point x="262" y="13"/>
      <point x="195" y="98" type="curve" smooth="yes"/>
      <point x="131" y="181"/>
      <point x="98" y="300"/>
      <point x="98" y="477" type="curve" smooth="yes"/>
      <point x="98" y="553"/>
      <point x="104" y="611"/>
      <point x="113" y="675" type="curve" smooth="yes"/>
      <point x="124" y="754"/>
      <point x="136" y="814"/>
      <point x="155" y="886" type="curve" smooth="yes"/>
      <point x="192" y="1027"/>
      <point x="242" y="1150"/>
      <point x="299" y="1243" type="curve" smooth="yes"/>
      <point x="320" y="1278"/>
      <point x="342" y="1308"/>
      <point x="361" y="1329" type="curve" smooth="yes"/>
      <point x="405" y="1381"/>
      <point x="453" y="1421"/>
      <point x="508" y="1452" type="curve" smooth="yes"/>
      <point x="589" y="1497"/>
      <point x="679" y="1520"/>
      <point x="786" y="1520" type="curve" smooth="yes"/>
      <point x="935" y="1520"/>
      <point x="1032" y="1475"/>
      <point x="1096" y="1394" type="curve" smooth="yes"/>
      <point x="1163" y="1310"/>
      <point x="1195" y="1186"/>
      <point x="1195" y="1023" type="curve" smooth="yes"/>
      <point x="1195" y="899"/>
      <point x="1177" y="751"/>
      <point x="1138" y="606" type="curve" smooth="yes"/>
      <point x="1102" y="469"/>
      <point x="1050" y="341"/>
      <point x="994" y="250" type="curve" smooth="yes"/>
      <point x="969" y="209"/>
      <point x="936" y="164"/>
      <point x="899" y="127" type="curve" smooth="yes"/>
      <point x="866" y="94"/>
      <point x="826" y="63"/>
      <point x="785" y="40" type="curve" smooth="yes"/>
      <point x="704" y="-6"/>
      <point x="610" y="-29"/>
      <point x="504" y="-29" type="curve" smooth="yes"/>
    </contour>
    <contour>
      <point x="558" y="165"/>
      <point x="582" y="169"/>
      <point x="607" y="177" type="curve" smooth="yes"/>
      <point x="628" y="184"/>
      <point x="655" y="196"/>
      <point x="678" y="212" type="curve" smooth="yes"/>
      <point x="721" y="241"/>
      <point x="763" y="291"/>
      <point x="794" y="351" type="curve" smooth="yes"/>
      <point x="803" y="368"/>
      <point x="816" y="394"/>
      <point x="829" y="423" type="curve" smooth="yes"/>
      <point x="841" y="450"/>
      <point x="851" y="477"/>
      <point x="860" y="502" type="curve" smooth="yes"/>
      <point x="863" y="511"/>
      <point x="866" y="520"/>
      <point x="869" y="527" type="curve" smooth="yes"/>
      <point x="872" y="534"/>
      <point x="874" y="540"/>
      <point x="876" y="547" type="curve" smooth="yes"/>
      <point x="878" y="554"/>
      <point x="880" y="560"/>
      <point x="882" y="567" type="curve"/>
      <point x="884" y="573"/>
      <point x="886" y="580"/>
      <point x="889" y="589" type="curve" smooth="yes"/>
      <point x="896" y="610"/>
      <point x="906" y="650"/>
      <point x="914" y="685" type="curve" smooth="yes"/>
      <point x="917" y="700"/>
      <point x="920" y="713"/>
      <point x="923" y="725" type="curve" smooth="yes"/>
      <point x="928" y="748"/>
      <point x="932" y="767"/>
      <point x="936" y="787" type="curve"/>
      <point x="937" y="796"/>
      <point x="939" y="806"/>
      <point x="941" y="816" type="curve" smooth="yes"/>
      <point x="949" y="863"/>
      <point x="954" y="900"/>
      <point x="957" y="939" type="curve" smooth="yes"/>
      <point x="960" y="978"/>
      <point x="962" y="1019"/>
      <point x="962" y="1051" type="curve" smooth="yes"/>
      <point x="962" y="1074"/>
      <point x="961" y="1095"/>
      <point x="960" y="1111" type="curve" smooth="yes"/>
      <point x="959" y="1127"/>
      <point x="958" y="1140"/>
      <point x="954" y="1160" type="curve"/>
      <point x="953" y="1167"/>
      <point x="948" y="1190"/>
      <point x="945" y="1201" type="curve"/>
      <point x="942" y="1209"/>
      <point x="936" y="1228"/>
      <point x="931" y="1237" type="curve"/>
      <point x="928" y="1244"/>
      <point x="923" y="1252"/>
      <point x="914" y="1264" type="curve" smooth="yes"/>
      <point x="899" y="1284"/>
      <point x="879" y="1300"/>
      <point x="854" y="1311" type="curve" smooth="yes"/>
      <point x="829" y="1322"/>
      <point x="797" y="1326"/>
      <point x="766" y="1326" type="curve" smooth="yes"/>
      <point x="710" y="1326"/>
      <point x="658" y="1310"/>
      <point x="614" y="1279" type="curve" smooth="yes"/>
      <point x="563" y="1244"/>
      <point x="525" y="1193"/>
      <point x="497" y="1142" type="curve" smooth="yes"/>
      <point x="450" y="1058"/>
      <point x="405" y="935"/>
      <point x="376" y="807" type="curve" smooth="yes"/>
      <point x="344" y="670"/>
      <point x="329" y="532"/>
      <point x="329" y="433" type="curve" smooth="yes"/>
      <point x="329" y="332"/>
      <point x="344" y="269"/>
      <point x="379" y="226" type="curve" smooth="yes"/>
      <point x="412" y="185"/>
      <point x="462" y="165"/>
      <point x="529" y="165" type="curve" smooth="yes"/>
    </contour>
    <contour>
      <point x="572" y="410" type="line" smooth="yes"/>
      <point x="571" y="410"/>
      <point x="571" y="410"/>
      <point x="571" y="411" type="curve"/>
      <point x="570" y="412"/>
      <point x="570" y="412"/>
      <point x="569" y="412" type="curve" smooth="yes"/>
      <point x="565" y="412" type="line"/>
      <point x="533" y="422"/>
      <point x="518" y="466"/>
      <point x="521" y="543" type="curve"/>
      <point x="521" y="555" type="line" smooth="yes"/>
      <point x="521" y="559"/>
      <point x="522" y="563"/>
      <point x="523" y="568" type="curve"/>
      <point x="523" y="581" type="line" smooth="yes"/>
      <point x="523" y="582"/>
      <point x="523" y="584"/>
      <point x="523" y="586" type="curve" smooth="yes"/>
      <point x="523" y="587"/>
      <point x="523" y="590"/>
      <point x="524" y="595" type="curve"/>
      <point x="527" y="617"/>
      <point x="529" y="635"/>
      <point x="530" y="648" type="curve"/>
      <point x="533" y="674"/>
      <point x="536" y="690"/>
      <point x="538" y="703" type="curve" smooth="yes"/>
      <point x="540" y="715"/>
      <point x="541" y="727"/>
      <point x="545" y="743" type="curve"/>
      <point x="546" y="751"/>
      <point x="548" y="759"/>
      <point x="550" y="768" type="curve" smooth="yes"/>
      <point x="553" y="784"/>
      <point x="557" y="800"/>
      <point x="558" y="804" type="curve"/>
      <point x="561" y="814"/>
      <point x="563" y="822"/>
      <point x="565" y="828" type="curve"/>
      <point x="566" y="833"/>
      <point x="568" y="838"/>
      <point x="569" y="841" type="curve" smooth="yes"/>
      <point x="570" y="844"/>
      <point x="570" y="845"/>
      <point x="571" y="846" type="curve"/>
      <point x="571" y="847"/>
      <point x="571" y="847"/>
      <point x="571" y="848" type="curve"/>
      <point x="574" y="859"/>
      <point x="584" y="889"/>
      <point x="589" y="905" type="curve" smooth="yes"/>
      <point x="597" y="928"/>
      <point x="610" y="959"/>
      <point x="617" y="974" type="curve" smooth="yes"/>
      <point x="629" y="1002"/>
      <point x="646" y="1030"/>
      <point x="664" y="1051" type="curve" smooth="yes"/>
      <point x="682" y="1071"/>
      <point x="700" y="1084"/>
      <point x="716" y="1084" type="curve" smooth="yes"/>
      <point x="721" y="1084" type="line" smooth="yes"/>
      <point x="722" y="1084"/>
      <point x="724" y="1083"/>
      <point x="727" y="1082" type="curve"/>
      <point x="762" y="1072"/>
      <point x="778" y="1029"/>
      <point x="775" y="954" type="curve"/>
      <point x="775" y="953" type="line"/>
      <point x="774" y="950"/>
      <point x="774" y="946"/>
      <point x="774" y="941" type="curve" smooth="yes"/>
      <point x="774" y="927" type="line"/>
      <point x="773" y="906"/>
      <point x="769" y="872"/>
      <point x="762" y="825" type="curve" smooth="yes"/>
      <point x="759" y="808"/>
      <point x="756" y="793"/>
      <point x="753" y="779" type="curve"/>
      <point x="748" y="750"/>
      <point x="744" y="737"/>
      <point x="735" y="704" type="curve" smooth="yes"/>
      <point x="726" y="671"/>
      <point x="713" y="634"/>
      <point x="701" y="598" type="curve" smooth="yes"/>
      <point x="688" y="561"/>
      <point x="672" y="521"/>
      <point x="656" y="488" type="curve" smooth="yes"/>
      <point x="639" y="455"/>
      <point x="621" y="429"/>
      <point x="603" y="418" type="curve"/>
      <point x="594" y="413"/>
      <point x="584" y="410"/>
      <point x="575" y="410" type="curve" smooth="yes"/>
    </contour>
  </outline>
</glyph>
<glyph name="two" format="1">
  <advance width="1233"/>
  <unicode hex="0032"/>
  <note>
	two
  </note>
  <outline>
    <contour>
      <point x="13" y="218" type="line" smooth="yes"/>
      <point x="18" y="243"/>
      <point x="27" y="258"/>
      <point x="46" y="275" type="curve" smooth="yes"/>
      <point x="297" y="500" type="line" smooth="yes"/>
      <point x="316" y="517"/>
      <point x="331" y="530"/>
      <point x="343" y="541" type="curve"/>
      <point x="355" y="551"/>
      <point x="366" y="560"/>
      <point x="376" y="569" type="curve"/>
      <point x="385" y="578"/>
      <point x="395" y="586"/>
      <point x="405" y="595" type="curve" smooth="yes"/>
      <point x="415" y="604"/>
      <point x="427" y="615"/>
      <point x="442" y="628" type="curve" smooth="yes"/>
      <point x="586" y="757"/>
      <point x="687" y="859"/>
      <point x="752" y="941" type="curve" smooth="yes"/>
      <point x="816" y="1023"/>
      <point x="844" y="1086"/>
      <point x="844" y="1138" type="curve" smooth="yes"/>
      <point x="844" y="1181"/>
      <point x="825" y="1221"/>
      <point x="788" y="1248" type="curve" smooth="yes"/>
      <point x="751" y="1275"/>
      <point x="699" y="1288"/>
      <point x="635" y="1288" type="curve" smooth="yes"/>
      <point x="579" y="1288"/>
      <point x="515" y="1278"/>
      <point x="447" y="1259" type="curve" smooth="yes"/>
      <point x="387" y="1242"/>
      <point x="309" y="1212"/>
      <point x="225" y="1171" type="curve"/>
      <point x="276" y="1438" type="line"/>
      <point x="349" y="1465"/>
      <point x="424" y="1486"/>
      <point x="492" y="1499" type="curve" smooth="yes"/>
      <point x="564" y="1514"/>
      <point x="637" y="1520"/>
      <point x="697" y="1520" type="curve" smooth="yes"/>
      <point x="824" y="1520"/>
      <point x="934" y="1490"/>
      <point x="1014" y="1426" type="curve" smooth="yes"/>
      <point x="1089" y="1367"/>
      <point x="1135" y="1283"/>
      <point x="1135" y="1186" type="curve" smooth="yes"/>
      <point x="1135" y="1011"/>
      <point x="984" y="799"/>
      <point x="681" y="542" type="curve" smooth="yes"/>
      <point x="641" y="508" type="line"/>
      <point x="324" y="260" type="line"/>
      <point x="971" y="260" type="line"/>
      <point x="920" y="0" type="line"/>
      <point x="-29" y="0" type="line"/>
    </contour>
  </outline>
</glyph>
<glyph name="colon" format="1">
  <advance width="1233"/>
  <unicode hex="003A"/>
  <note>
	colon
  </note>
  <outline>
    <contour>
      <point x="681" y="747"/>
      <point x="644" y="766"/>
      <point x="620" y="793" type="curve" smooth="yes"/>
      <point x="597" y="820"/>
      <point x="581" y="857"/>
      <point x="581" y="904" type="curve" smooth="yes"/>
      <point x="581" y="945"/>
      <point x="593" y="987"/>
      <point x="617" y="1023" type="curve" smooth="yes"/>
      <point x="640" y="1058"/>
      <point x="673" y="1086"/>
      <point x="716" y="1102" type="curve" smooth="yes"/>
      <point x="739" y="1110"/>
      <point x="761" y="1115"/>
      <point x="788" y="1115" type="curve" smooth="yes"/>
      <point x="837" y="1115"/>
      <point x="876" y="1098"/>
      <point x="903" y="1069" type="curve" smooth="yes"/>
      <point x="931" y="1038"/>
      <point x="941" y="993"/>
      <point x="941" y="954" type="curve" smooth="yes"/>
      <point x="941" y="923"/>
      <point x="935" y="902"/>
      <point x="927" y="882" type="curve" smooth="yes"/>
      <point x="904" y="825"/>
      <point x="862" y="784"/>
      <point x="806" y="761" type="curve" smooth="yes"/>
      <point x="783" y="752"/>
      <point x="759" y="747"/>
      <point x="734" y="747" type="curve" smooth="yes"/>
    </contour>
    <contour>
      <point x="567" y="35"/>
      <point x="530" y="54"/>
      <point x="506" y="81" type="curve" smooth="yes"/>
      <point x="483" y="108"/>
      <point x="467" y="145"/>
      <point x="467" y="192" type="curve" smooth="yes"/>
      <point x="467" y="233"/>
      <point x="479" y="275"/>
      <point x="503" y="311" type="curve" smooth="yes"/>
      <point x="526" y="346"/>
      <point x="559" y="374"/>
      <point x="602" y="390" type="curve" smooth="yes"/>
      <point x="625" y="398"/>
      <point x="647" y="403"/>
      <point x="674" y="403" type="curve" smooth="yes"/>
      <point x="723" y="403"/>
      <point x="762" y="386"/>
      <point x="789" y="357" type="curve" smooth="yes"/>
      <point x="817" y="326"/>
      <point x="827" y="281"/>
      <point x="827" y="242" type="curve" smooth="yes"/>
      <point x="827" y="211"/>
      <point x="821" y="190"/>
      <point x="813" y="170" type="curve" smooth="yes"/>
      <point x="790" y="113"/>
      <point x="748" y="72"/>
      <point x="692" y="49" type="curve" smooth="yes"/>
      <point x="669" y="40"/>
      <point x="645" y="35"/>
      <point x="620" y="35" type="curve" smooth="yes"/>
    </contour>
  </outline>
</glyph>
<glyph name="L" format="1">
  <advance width="1233"/>
  <unicode hex="004C"/>
  <note>
	L
  </note>
  <outline>
    <contour>
      <point x="371" y="1493" type="line"/>
      <point x="666" y="1493" type="line"/>
      <point x="426" y="260" type="line"/>
      <point x="1057" y="260" type="line"/>
      <point x="1006" y="0" type="line"/>
      <point x="80" y="0" type="line"/>
    </contour>
  </outline>
</glyph>
<glyph name="Q" format="1">
  <advance width="1233"/>
  <unicode hex="0051"/>
  <note>
	Q
  </note>
  <outline>
    <contour>
      <point x="535" y="-29" type="line"/>
      <point x="508" y="-29" type="line" smooth="yes"/>
      <point x="363" y="-29"/>
      <point x="252" y="14"/>
      <point x="176" y="95" type="curve" smooth="yes"/>
      <point x="96" y="182"/>
      <point x="61" y="305"/>
      <point x="61" y="474" type="curve" smooth="yes"/>
      <point x="61" y="591"/>
      <point x="78" y="731"/>
      <point x="111" y="870" type="curve" smooth="yes"/>
      <point x="144" y="1009"/>
      <point x="191" y="1133"/>
      <point x="244" y="1226" type="curve" smooth="yes"/>
      <point x="295" y="1314"/>
      <point x="357" y="1390"/>
      <point x="448" y="1445" type="curve" smooth="yes"/>
      <point x="528" y="1493"/>
      <point x="623" y="1520"/>
      <point x="732" y="1520" type="curve" smooth="yes"/>
      <point x="873" y="1520"/>
      <point x="982" y="1476"/>
      <point x="1057" y="1397" type="curve" smooth="yes"/>
      <point x="1140" y="1309"/>
      <point x="1171" y="1192"/>
      <point x="1171" y="1024" type="curve" smooth="yes"/>
      <point x="1171" y="913"/>
      <point x="1157" y="778"/>
      <point x="1122" y="627" type="curve" smooth="yes"/>
      <point x="1091" y="494"/>
      <point x="1046" y="362"/>
      <point x="990" y="262" type="curve" smooth="yes"/>
      <point x="962" y="213"/>
      <point x="933" y="174"/>
      <point x="902" y="141" type="curve" smooth="yes"/>
      <point x="867" y="104"/>
      <point x="825" y="70"/>
      <point x="776" y="39" type="curve"/>
      <point x="1015" y="-281" type="line"/>
      <point x="671" y="-281" type="line"/>
    </contour>
    <contour>
      <point x="565" y="233"/>
      <point x="602" y="245"/>
      <point x="635" y="269" type="curve" smooth="yes"/>
      <point x="667" y="292"/>
      <point x="696" y="326"/>
      <point x="721" y="373" type="curve" smooth="yes"/>
      <point x="736" y="401"/>
      <point x="752" y="442"/>
      <point x="767" y="483" type="curve" smooth="yes"/>
      <point x="795" y="563"/>
      <point x="822" y="678"/>
      <point x="835" y="747" type="curve" smooth="yes"/>
      <point x="848" y="815"/>
      <point x="868" y="920"/>
      <point x="868" y="1020" type="curve" smooth="yes"/>
      <point x="868" y="1181"/>
      <point x="813" y="1260"/>
      <point x="708" y="1260" type="curve" smooth="yes"/>
      <point x="663" y="1260"/>
      <point x="626" y="1245"/>
      <point x="598" y="1225" type="curve" smooth="yes"/>
      <point x="566" y="1202"/>
      <point x="536" y="1165"/>
      <point x="512" y="1121" type="curve" smooth="yes"/>
      <point x="493" y="1088"/>
      <point x="482" y="1056"/>
      <point x="469" y="1017" type="curve" smooth="yes"/>
      <point x="460" y="989"/>
      <point x="453" y="967"/>
      <point x="446" y="944" type="curve" smooth="yes"/>
      <point x="443" y="933"/>
      <point x="439" y="920"/>
      <point x="436" y="907" type="curve" smooth="yes"/>
      <point x="433" y="894"/>
      <point x="429" y="878"/>
      <point x="424" y="860" type="curve" smooth="yes"/>
      <point x="403" y="775"/>
      <point x="391" y="711"/>
      <point x="380" y="646" type="curve" smooth="yes"/>
      <point x="370" y="579"/>
      <point x="365" y="520"/>
      <point x="365" y="471" type="curve" smooth="yes"/>
      <point x="365" y="390"/>
      <point x="378" y="331"/>
      <point x="405" y="292" type="curve" smooth="yes"/>
      <point x="433" y="251"/>
      <point x="474" y="233"/>
      <point x="525" y="233" type="curve" smooth="yes"/>
    </contour>
  </outline>
</glyph>
<glyph name="bracketleft" format="1">
  <advance width="1233"/>
  <unicode hex="005B"/>
  <note>
	bracketleft
  </note>
  <outline>
    <contour>
      <point x="649" y="1651" type="line"/>
      <point x="1104" y="1651" type="line"/>
      <point x="1076" y="1478" type="line"/>
      <point x="836" y="1478" type="line"/>
      <point x="585" y="-112" type="line"/>
      <point x="825" y="-112" type="line"/>
      <point x="797" y="-285" type="line"/>
      <point x="342" y="-285" type="line"/>
    </contour>
  </outline>
</glyph>
<glyph name="bracketright" format="1">
  <advance width="1233"/>
  <unicode hex="005D"/>
  <note>
	bracketright
  </note>
  <outline>
    <contour>
      <point x="373" y="-112" type="line"/>
      <point x="613" y="-112" type="line"/>
      <point x="864" y="1477" type="line"/>
      <point x="624" y="1477" type="line"/>
      <point x="652" y="1650" type="line"/>
      <point x="1107" y="1650" type="line"/>
      <point x="800" y="-285" type="line"/>
      <point x="345" y="-285" type="line"/>
    </contour>
  </outline>
</glyph>
<glyph name="grave" format="1">
  <advance width="1233"/>
  <unicode hex="0060"/>
  <note>
	grave
  </note>
  <outline>
    <contour>
      <point x="371" y="1638" type="line"/>
      <point x="655" y="1638" type="line"/>
      <point x="864" y="1262" type="line"/>
      <point x="666" y="1262" type="line"/>
    </contour>
  </outline>
</glyph>
<glyph name="l" format="1">
  <advance width="1233"/>
  <unicode hex="006C"/>
  <note>
	l
  </note>
  <outline>
    <contour>
      <point x="547" y="-10"/>
      <point x="457" y="8"/>
      <point x="400" y="47" type="curve" smooth="yes"/>
      <point x="345" y="83"/>
      <point x="315" y="139"/>
      <point x="315" y="226" type="curve" smooth="yes"/>
      <point x="315" y="249"/>
      <point x="317" y="270"/>
      <point x="320" y="290" type="curve" smooth="yes"/>
      <point x="321" y="297"/>
      <point x="323" y="308"/>
      <point x="326" y="324" type="curve"/>
      <point x="328" y="339"/>
      <point x="331" y="354"/>
      <point x="334" y="369" type="curve" smooth="yes"/>
      <point x="537" y="1331" type="line"/>
      <point x="231" y="1331" type="line"/>
      <point x="274" y="1556" type="line"/>
      <point x="872" y="1556" type="line"/>
      <point x="623" y="355" type="line"/>
      <point x="621" y="347"/>
      <point x="620" y="341"/>
      <point x="619" y="338" type="curve"/>
      <point x="618" y="334"/>
      <point x="618" y="331"/>
      <point x="618" y="329" type="curve" smooth="yes"/>
      <point x="618" y="327"/>
      <point x="618" y="326"/>
      <point x="618" y="325" type="curve" smooth="yes"/>
      <point x="618" y="324"/>
      <point x="618" y="322"/>
      <point x="617" y="319" type="curve"/>
      <point x="614" y="308"/>
      <point x="614" y="301"/>
      <point x="614" y="293" type="curve" smooth="yes"/>
      <point x="614" y="270"/>
      <point x="622" y="249"/>
      <point x="645" y="234" type="curve" smooth="yes"/>
      <point x="666" y="221"/>
      <point x="702" y="215"/>
      <point x="754" y="215" type="curve" smooth="yes"/>
      <point x="1032" y="215" type="line"/>
      <point x="987" y="-10" type="line"/>
      <point x="690" y="-10" type="line" smooth="yes"/>
    </contour>
  </outline>
</glyph>
<glyph name="m" format="1">
  <advance width="1233"/>
  <unicode hex="006D"/>
  <note>
	m
  </note>
  <outline>
    <contour>
      <point x="184" y="1120" type="line"/>
      <point x="376" y="1120" type="line"/>
      <point x="375" y="1004" type="line"/>
      <point x="430" y="1096"/>
      <point x="513" y="1147"/>
      <point x="606" y="1147" type="curve" smooth="yes"/>
      <point x="699" y="1147"/>
      <point x="759" y="1093"/>
      <point x="770" y="1008" type="curve"/>
      <point x="811" y="1093"/>
      <point x="905" y="1147"/>
      <point x="1004" y="1147" type="curve" smooth="yes"/>
      <point x="1068" y="1147"/>
      <point x="1117" y="1127"/>
      <point x="1152" y="1092" type="curve" smooth="yes"/>
      <point x="1191" y="1052"/>
      <point x="1206" y="995"/>
      <point x="1206" y="931" type="curve" smooth="yes"/>
      <point x="1206" y="908"/>
      <point x="1204" y="875"/>
      <point x="1201" y="843" type="curve" smooth="yes"/>
      <point x="1199" y="825"/>
      <point x="1196" y="804"/>
      <point x="1192" y="781" type="curve"/>
      <point x="1187" y="758"/>
      <point x="1183" y="737"/>
      <point x="1180" y="719" type="curve" smooth="yes"/>
      <point x="1040" y="0" type="line"/>
      <point x="801" y="0" type="line"/>
      <point x="940" y="719" type="line" smooth="yes"/>
      <point x="947" y="750"/>
      <point x="950" y="770"/>
      <point x="954" y="801" type="curve" smooth="yes"/>
      <point x="957" y="821"/>
      <point x="958" y="837"/>
      <point x="958" y="848" type="curve" smooth="yes"/>
      <point x="958" y="879"/>
      <point x="950" y="896"/>
      <point x="941" y="907" type="curve" smooth="yes"/>
      <point x="929" y="921"/>
      <point x="912" y="928"/>
      <point x="889" y="928" type="curve" smooth="yes"/>
      <point x="825" y="928"/>
      <point x="802" y="873"/>
      <point x="786" y="819" type="curve" smooth="yes"/>
      <point x="777" y="792"/>
      <point x="769" y="758"/>
      <point x="762" y="719" type="curve" smooth="yes"/>
      <point x="623" y="0" type="line"/>
      <point x="383" y="0" type="line"/>
      <point x="524" y="719" type="line"/>
      <point x="525" y="727"/>
      <point x="528" y="739"/>
      <point x="531" y="755" type="curve" smooth="yes"/>
      <point x="537" y="786"/>
      <point x="539" y="807"/>
      <point x="540" y="824" type="curve"/>
      <point x="541" y="832"/>
      <point x="541" y="839"/>
      <point x="541" y="845" type="curve" smooth="yes"/>
      <point x="541" y="900"/>
      <point x="516" y="928"/>
      <point x="471" y="928" type="curve" smooth="yes"/>
      <point x="408" y="928"/>
      <point x="385" y="874"/>
      <point x="369" y="820" type="curve" smooth="yes"/>
      <point x="361" y="793"/>
      <point x="353" y="759"/>
      <point x="346" y="719" type="curve" smooth="yes"/>
      <point x="207" y="0" type="line"/>
      <point x="-33" y="0" type="line"/>
    </contour>
  </outline>
</glyph>
<glyph name="n" format="1">
  <advance width="1233"/>
  <unicode hex="006E"/>
  <note>
	n
  </note>
  <outline>
    <contour>
      <point x="276" y="1120" type="line"/>
      <point x="540" y="1120" type="line"/>
      <point x="537" y="952" type="line"/>
      <point x="570" y="1016"/>
      <point x="617" y="1064"/>
      <point x="669" y="1096" type="curve" smooth="yes"/>
      <point x="724" y="1130"/>
      <point x="786" y="1147"/>
      <point x="857" y="1147" type="curve" smooth="yes"/>
      <point x="938" y="1147"/>
      <point x="1004" y="1125"/>
      <point x="1051" y="1078" type="curve" smooth="yes"/>
      <point x="1095" y="1034"/>
      <point x="1120" y="969"/>
      <point x="1120" y="880" type="curve" smooth="yes"/>
      <point x="1120" y="861"/>
      <point x="1119" y="838"/>
      <point x="1116" y="813" type="curve" smooth="yes"/>
      <point x="1115" y="805"/>
      <point x="1113" y="793"/>
      <point x="1111" y="776" type="curve"/>
      <point x="1108" y="759"/>
      <point x="1105" y="743"/>
      <point x="1102" y="728" type="curve" smooth="yes"/>
      <point x="961" y="0" type="line"/>
      <point x="668" y="0" type="line"/>
      <point x="801" y="682" type="line" smooth="yes"/>
      <point x="804" y="695"/>
      <point x="806" y="707"/>
      <point x="807" y="716" type="curve" smooth="yes"/>
      <point x="808" y="725"/>
      <point x="808" y="732"/>
      <point x="809" y="735" type="curve"/>
      <point x="810" y="752"/>
      <point x="811" y="770"/>
      <point x="811" y="783" type="curve" smooth="yes"/>
      <point x="811" y="822"/>
      <point x="803" y="854"/>
      <point x="782" y="877" type="curve" smooth="yes"/>
      <point x="763" y="897"/>
      <point x="735" y="907"/>
      <point x="699" y="907" type="curve" smooth="yes"/>
      <point x="588" y="907"/>
      <point x="506" y="806"/>
      <point x="473" y="629" type="curve" smooth="yes"/>
      <point x="352" y="0" type="line"/>
      <point x="59" y="0" type="line"/>
    </contour>
  </outline>
</glyph>
<glyph name="t" format="1">
  <advance width="1233"/>
  <unicode hex="0074"/>
  <note>
	t
  </note>
  <outline>
    <contour>
      <point x="566" y="-5"/>
      <point x="475" y="13"/>
      <point x="418" y="52" type="curve" smooth="yes"/>
      <point x="357" y="92"/>
      <point x="332" y="153"/>
      <point x="332" y="229" type="curve" smooth="yes"/>
      <point x="332" y="252"/>
      <point x="334" y="267"/>
      <point x="337" y="290" type="curve" smooth="yes"/>
      <point x="338" y="298"/>
      <point x="340" y="310"/>
      <point x="342" y="326" type="curve" smooth="yes"/>
      <point x="344" y="342"/>
      <point x="347" y="358"/>
      <point x="350" y="374" type="curve" smooth="yes"/>
      <point x="451" y="895" type="line"/>
      <point x="164" y="895" type="line"/>
      <point x="207" y="1120" type="line"/>
      <point x="494" y="1120" type="line"/>
      <point x="555" y="1438" type="line"/>
      <point x="848" y="1438" type="line"/>
      <point x="786" y="1120" type="line"/>
      <point x="1169" y="1120" type="line"/>
      <point x="1126" y="895" type="line"/>
      <point x="743" y="895" type="line"/>
      <point x="639" y="360" type="line"/>
      <point x="638" y="353"/>
      <point x="636" y="344"/>
      <point x="633" y="325" type="curve"/>
      <point x="632" y="314"/>
      <point x="631" y="308"/>
      <point x="631" y="300" type="curve" smooth="yes"/>
      <point x="631" y="243"/>
      <point x="663" y="220"/>
      <point x="770" y="220" type="curve" smooth="yes"/>
      <point x="995" y="220" type="line"/>
      <point x="952" y="-5" type="line"/>
      <point x="707" y="-5" type="line" smooth="yes"/>
    </contour>
  </outline>
</glyph>
<glyph name="braceleft" format="1">
  <advance width="1233"/>
  <unicode hex="007B"/>
  <note>
	braceleft
  </note>
  <outline>
    <contour>
      <point x="504" y="-334"/>
      <point x="421" y="-315"/>
      <point x="365" y="-280" type="curve" smooth="yes"/>
      <point x="309" y="-245"/>
      <point x="280" y="-192"/>
      <point x="280" y="-101" type="curve" smooth="yes"/>
      <point x="280" y="-84"/>
      <point x="281" y="-72"/>
      <point x="284" y="-49" type="curve"/>
      <point x="284" y="-45"/>
      <point x="286" y="-32"/>
      <point x="289" y="-16" type="curve"/>
      <point x="290" y="-9"/>
      <point x="292" y="0"/>
      <point x="293" y="9" type="curve" smooth="yes"/>
      <point x="294" y="18"/>
      <point x="296" y="26"/>
      <point x="298" y="35" type="curve" smooth="yes"/>
      <point x="341" y="250" type="line"/>
      <point x="342" y="253"/>
      <point x="343" y="257"/>
      <point x="344" y="263" type="curve" smooth="yes"/>
      <point x="345" y="269"/>
      <point x="346" y="276"/>
      <point x="347" y="284" type="curve"/>
      <point x="350" y="299"/>
      <point x="353" y="316"/>
      <point x="354" y="328" type="curve"/>
      <point x="357" y="351"/>
      <point x="358" y="365"/>
      <point x="358" y="377" type="curve" smooth="yes"/>
      <point x="358" y="433"/>
      <point x="338" y="465"/>
      <point x="295" y="486" type="curve" smooth="yes"/>
      <point x="259" y="505"/>
      <point x="197" y="516"/>
      <point x="113" y="516" type="curve" smooth="yes"/>
      <point x="51" y="516" type="line"/>
      <point x="88" y="707" type="line"/>
      <point x="179" y="707" type="line" smooth="yes"/>
      <point x="370" y="707"/>
      <point x="440" y="765"/>
      <point x="480" y="973" type="curve" smooth="yes"/>
      <point x="521" y="1188" type="line" smooth="yes"/>
      <point x="550" y="1341"/>
      <point x="597" y="1437"/>
      <point x="658" y="1484" type="curve" smooth="yes"/>
      <point x="720" y="1532"/>
      <point x="838" y="1556"/>
      <point x="1011" y="1556" type="curve" smooth="yes"/>
      <point x="1160" y="1556" type="line"/>
      <point x="1124" y="1366" type="line"/>
      <point x="1001" y="1366" type="line" smooth="yes"/>
      <point x="926" y="1366"/>
      <point x="881" y="1351"/>
      <point x="852" y="1323" type="curve" smooth="yes"/>
      <point x="821" y="1294"/>
      <point x="800" y="1239"/>
      <point x="781" y="1139" type="curve" smooth="yes"/>
      <point x="743" y="930" type="line" smooth="yes"/>
      <point x="724" y="826"/>
      <point x="692" y="744"/>
      <point x="648" y="696" type="curve" smooth="yes"/>
      <point x="607" y="651"/>
      <point x="543" y="623"/>
      <point x="456" y="612" type="curve"/>
      <point x="520" y="598"/>
      <point x="566" y="577"/>
      <point x="593" y="548" type="curve"/>
      <point x="620" y="521"/>
      <point x="634" y="485"/>
      <point x="634" y="428" type="curve" smooth="yes"/>
      <point x="634" y="413"/>
      <point x="633" y="387"/>
      <point x="630" y="364" type="curve" smooth="yes"/>
      <point x="629" y="355"/>
      <point x="627" y="345"/>
      <point x="626" y="334" type="curve"/>
      <point x="624" y="323"/>
      <point x="621" y="308"/>
      <point x="618" y="291" type="curve" smooth="yes"/>
      <point x="577" y="86" type="line" smooth="yes"/>
      <point x="575" y="77"/>
      <point x="574" y="70"/>
      <point x="573" y="65" type="curve" smooth="yes"/>
      <point x="572" y="60"/>
      <point x="571" y="55"/>
      <point x="570" y="50" type="curve" smooth="yes"/>
      <point x="569" y="45"/>
      <point x="568" y="40"/>
      <point x="567" y="35" type="curve" smooth="yes"/>
      <point x="566" y="29"/>
      <point x="565" y="21"/>
      <point x="564" y="12" type="curve" smooth="yes"/>
      <point x="563" y="1"/>
      <point x="562" y="-8"/>
      <point x="561" y="-13" type="curve" smooth="yes"/>
      <point x="560" y="-19"/>
      <point x="560" y="-25"/>
      <point x="560" y="-32" type="curve" smooth="yes"/>
      <point x="560" y="-75"/>
      <point x="571" y="-101"/>
      <point x="594" y="-118" type="curve" smooth="yes"/>
      <point x="617" y="-135"/>
      <point x="655" y="-143"/>
      <point x="708" y="-143" type="curve" smooth="yes"/>
      <point x="829" y="-143" type="line"/>
      <point x="792" y="-334" type="line"/>
      <point x="644" y="-334" type="line" smooth="yes"/>
    </contour>
  </outline>
</glyph>
<glyph name="braceright" format="1">
  <advance width="1233"/>
  <unicode hex="007D"/>
  <note>
	braceright
  </note>
  <outline>
    <contour>
      <point x="56" y="-143" type="line"/>
      <point x="179" y="-143" type="line" smooth="yes"/>
      <point x="243" y="-143"/>
      <point x="297" y="-128"/>
      <point x="326" y="-100" type="curve" smooth="yes"/>
      <point x="356" y="-71"/>
      <point x="380" y="-9"/>
      <point x="398" y="86" type="curve" smooth="yes"/>
      <point x="437" y="291" type="line" smooth="yes"/>
      <point x="457" y="396"/>
      <point x="488" y="476"/>
      <point x="532" y="524" type="curve" smooth="yes"/>
      <point x="573" y="569"/>
      <point x="637" y="599"/>
      <point x="724" y="612" type="curve"/>
      <point x="597" y="633"/>
      <point x="546" y="685"/>
      <point x="546" y="792" type="curve" smooth="yes"/>
      <point x="546" y="807"/>
      <point x="547" y="828"/>
      <point x="550" y="852" type="curve" smooth="yes"/>
      <point x="551" y="859"/>
      <point x="553" y="871"/>
      <point x="555" y="887" type="curve" smooth="yes"/>
      <point x="557" y="902"/>
      <point x="559" y="917"/>
      <point x="562" y="930" type="curve" smooth="yes"/>
      <point x="603" y="1139" type="line"/>
      <point x="610" y="1163"/>
      <point x="612" y="1183"/>
      <point x="616" y="1214" type="curve" smooth="yes"/>
      <point x="617" y="1224"/>
      <point x="618" y="1231"/>
      <point x="619" y="1236" type="curve" smooth="yes"/>
      <point x="620" y="1241"/>
      <point x="620" y="1244"/>
      <point x="620" y="1247" type="curve" smooth="yes"/>
      <point x="620" y="1250"/>
      <point x="620" y="1251"/>
      <point x="620" y="1252" type="curve"/>
      <point x="619" y="1253"/>
      <point x="619" y="1254"/>
      <point x="619" y="1257" type="curve" smooth="yes"/>
      <point x="619" y="1294"/>
      <point x="609" y="1325"/>
      <point x="586" y="1342" type="curve" smooth="yes"/>
      <point x="564" y="1358"/>
      <point x="526" y="1366"/>
      <point x="472" y="1366" type="curve" smooth="yes"/>
      <point x="351" y="1366" type="line"/>
      <point x="388" y="1556" type="line"/>
      <point x="535" y="1556" type="line" smooth="yes"/>
      <point x="671" y="1556"/>
      <point x="767" y="1540"/>
      <point x="822" y="1508" type="curve" smooth="yes"/>
      <point x="878" y="1476"/>
      <point x="904" y="1419"/>
      <point x="904" y="1351" type="curve" smooth="yes"/>
      <point x="904" y="1318"/>
      <point x="897" y="1269"/>
      <point x="884" y="1202" type="curve" smooth="yes"/>
      <point x="881" y="1187" type="line"/>
      <point x="840" y="972" type="line" smooth="yes"/>
      <point x="838" y="961"/>
      <point x="836" y="951"/>
      <point x="835" y="940" type="curve"/>
      <point x="831" y="918"/>
      <point x="828" y="899"/>
      <point x="827" y="885" type="curve"/>
      <point x="826" y="878"/>
      <point x="826" y="871"/>
      <point x="826" y="864" type="curve" smooth="yes"/>
      <point x="826" y="793"/>
      <point x="854" y="762"/>
      <point x="889" y="742" type="curve" smooth="yes"/>
      <point x="930" y="719"/>
      <point x="990" y="707"/>
      <point x="1067" y="707" type="curve" smooth="yes"/>
      <point x="1129" y="707" type="line"/>
      <point x="1092" y="516" type="line"/>
      <point x="1000" y="516" type="line" smooth="yes"/>
      <point x="812" y="516"/>
      <point x="736" y="449"/>
      <point x="699" y="250" type="curve" smooth="yes"/>
      <point x="658" y="35" type="line" smooth="yes"/>
      <point x="602" y="-261"/>
      <point x="498" y="-334"/>
      <point x="169" y="-334" type="curve" smooth="yes"/>
      <point x="19" y="-334" type="line"/>
    </contour>
  </outline>
</glyph>
<glyph name="asciitilde" format="1">
  <advance width="1233"/>
  <unicode hex="007E"/>
  <note>
	asciitilde
  </note>
  <outline>
    <contour>
      <point x="1165" y="848" type="line"/>
      <point x="1162" y="759"/>
      <point x="1157" y="684"/>
      <point x="1146" y="620" type="curve" smooth="yes"/>
      <point x="1135" y="556"/>
      <point x="1119" y="502"/>
      <point x="1094" y="458" type="curve"/>
      <point x="1095" y="461" type="line"/>
      <point x="1042" y="353"/>
      <point x="953" y="299"/>
      <point x="830" y="299" type="curve" smooth="yes"/>
      <point x="713" y="299"/>
      <point x="644" y="338"/>
      <point x="545" y="475" type="curve" smooth="yes"/>
      <point x="499" y="540"/>
      <point x="467" y="579"/>
      <point x="448" y="594" type="curve"/>
      <point x="431" y="605"/>
      <point x="417" y="612"/>
      <point x="404" y="612" type="curve" smooth="yes"/>
      <point x="375" y="612"/>
      <point x="356" y="599"/>
      <point x="345" y="572" type="curve"/>
      <point x="345" y="573" type="line"/>
      <point x="326" y="528"/>
      <point x="313" y="438"/>
      <point x="307" y="305" type="curve"/>
      <point x="68" y="305" type="line"/>
      <point x="72" y="474"/>
      <point x="96" y="603"/>
      <point x="139" y="692" type="curve"/>
      <point x="200" y="799"/>
      <point x="287" y="852"/>
      <point x="399" y="852" type="curve" smooth="yes"/>
      <point x="454" y="852"/>
      <point x="503" y="839"/>
      <point x="546" y="812" type="curve" smooth="yes"/>
      <point x="590" y="785"/>
      <point x="640" y="738"/>
      <point x="684" y="677" type="curve"/>
      <point x="683" y="678" type="line"/>
      <point x="717" y="632"/>
      <point x="748" y="595"/>
      <point x="777" y="566" type="curve" smooth="yes"/>
      <point x="795" y="548"/>
      <point x="812" y="539"/>
      <point x="827" y="539" type="curve" smooth="yes"/>
      <point x="861" y="539"/>
      <point x="885" y="564"/>
      <point x="900" y="615" type="curve" smooth="yes"/>
      <point x="915" y="665"/>
      <point x="923" y="743"/>
      <point x="924" y="848" type="curve"/>
    </contour>
  </outline>
</glyph>
<glyph name="exclamdown" format="1">
  <advance width="1233"/>
  <unicode hex="00A1"/>
  <note>
	exclamdown
  </note>
  <outline>
    <contour>
      <point x="645" y="1198"/>
      <point x="610" y="1217"/>
      <point x="587" y="1241" type="curve"/>
      <point x="558" y="1274"/>
      <point x="549" y="1318"/>
      <point x="549" y="1353" type="curve" smooth="yes"/>
      <point x="549" y="1394"/>
      <point x="562" y="1436"/>
      <point x="586" y="1469" type="curve" smooth="yes"/>
      <point x="609" y="1502"/>
      <point x="642" y="1529"/>
      <point x="681" y="1544" type="curve" smooth="yes"/>
      <point x="703" y="1552"/>
      <point x="727" y="1556"/>
      <point x="754" y="1556" type="curve" smooth="yes"/>
      <point x="811" y="1556"/>
      <point x="843" y="1533"/>
      <point x="864" y="1510" type="curve" smooth="yes"/>
      <point x="891" y="1479"/>
      <point x="901" y="1443"/>
      <point x="901" y="1403" type="curve" smooth="yes"/>
      <point x="901" y="1375"/>
      <point x="895" y="1348"/>
      <point x="887" y="1329" type="curve" smooth="yes"/>
      <point x="866" y="1277"/>
      <point x="826" y="1234"/>
      <point x="770" y="1211" type="curve" smooth="yes"/>
      <point x="748" y="1202"/>
      <point x="723" y="1198"/>
      <point x="696" y="1198" type="curve" smooth="yes"/>
    </contour>
    <contour>
      <point x="455" y="655" type="line"/>
      <point x="567" y="1012" type="line"/>
      <point x="766" y="1012" type="line"/>
      <point x="741" y="655" type="line"/>
      <point x="614" y="0" type="line"/>
      <point x="328" y="0" type="line"/>
    </contour>
  </outline>
</glyph>
<glyph name="section" format="1">
  <advance width="1233"/>
  <unicode hex="00A7"/>
  <note>
	section
  </note>
  <outline>
    <contour>
      <point x="353" y="-195"/>
      <point x="232" y="-175"/>
      <point x="104" y="-135" type="curve"/>
      <point x="150" y="94" type="line"/>
      <point x="197" y="73"/>
      <point x="246" y="56"/>
      <point x="303" y="44" type="curve" smooth="yes"/>
      <point x="358" y="33"/>
      <point x="408" y="27"/>
      <point x="453" y="27" type="curve" smooth="yes"/>
      <point x="514" y="27"/>
      <point x="559" y="38"/>
      <point x="590" y="61" type="curve" smooth="yes"/>
      <point x="621" y="84"/>
      <point x="637" y="119"/>
      <point x="637" y="151" type="curve" smooth="yes"/>
      <point x="637" y="177"/>
      <point x="626" y="204"/>
      <point x="603" y="231" type="curve" smooth="yes"/>
      <point x="580" y="258"/>
      <point x="540" y="291"/>
      <point x="485" y="328" type="curve" smooth="yes"/>
      <point x="467" y="340" type="line"/>
      <point x="367" y="408" type="line" smooth="yes"/>
      <point x="298" y="455"/>
      <point x="250" y="491"/>
      <point x="218" y="538" type="curve" smooth="yes"/>
      <point x="194" y="573"/>
      <point x="178" y="613"/>
      <point x="178" y="669" type="curve" smooth="yes"/>
      <point x="178" y="732"/>
      <point x="198" y="789"/>
      <point x="239" y="840" type="curve" smooth="yes"/>
      <point x="279" y="891"/>
      <point x="338" y="934"/>
      <point x="414" y="967" type="curve"/>
      <point x="380" y="994"/>
      <point x="355" y="1024"/>
      <point x="339" y="1057" type="curve" smooth="yes"/>
      <point x="323" y="1090"/>
      <point x="315" y="1125"/>
      <point x="315" y="1172" type="curve" smooth="yes"/>
      <point x="315" y="1275"/>
      <point x="354" y="1358"/>
      <point x="433" y="1423" type="curve" smooth="yes"/>
      <point x="508" y="1484"/>
      <point x="606" y="1520"/>
      <point x="739" y="1520" type="curve" smooth="yes"/>
      <point x="836" y="1520"/>
      <point x="944" y="1500"/>
      <point x="1059" y="1460" type="curve"/>
      <point x="1014" y="1231" type="line"/>
      <point x="969" y="1254"/>
      <point x="921" y="1271"/>
      <point x="881" y="1282" type="curve" smooth="yes"/>
      <point x="837" y="1293"/>
      <point x="793" y="1298"/>
      <point x="753" y="1298" type="curve" smooth="yes"/>
      <point x="637" y="1298"/>
      <point x="573" y="1249"/>
      <point x="573" y="1169" type="curve" smooth="yes"/>
      <point x="573" y="1110"/>
      <point x="613" y="1075"/>
      <point x="658" y="1043" type="curve"/>
      <point x="680" y="1026"/>
      <point x="708" y="1007"/>
      <point x="743" y="985" type="curve" smooth="yes"/>
      <point x="848" y="918" type="line" smooth="yes"/>
      <point x="911" y="878"/>
      <point x="959" y="836"/>
      <point x="990" y="791" type="curve" smooth="yes"/>
      <point x="1021" y="748"/>
      <point x="1032" y="704"/>
      <point x="1032" y="656" type="curve" smooth="yes"/>
      <point x="1032" y="541"/>
      <point x="962" y="470"/>
      <point x="906" y="423" type="curve" smooth="yes"/>
      <point x="878" y="400"/>
      <point x="845" y="377"/>
      <point x="807" y="354" type="curve"/>
      <point x="839" y="323"/>
      <point x="861" y="291"/>
      <point x="874" y="260" type="curve" smooth="yes"/>
      <point x="888" y="227"/>
      <point x="895" y="190"/>
      <point x="895" y="149" type="curve" smooth="yes"/>
      <point x="895" y="46"/>
      <point x="853" y="-40"/>
      <point x="776" y="-101" type="curve" smooth="yes"/>
      <point x="700" y="-161"/>
      <point x="591" y="-195"/>
      <point x="458" y="-195" type="curve" smooth="yes"/>
    </contour>
    <contour>
      <point x="719" y="476"/>
      <point x="748" y="504"/>
      <point x="770" y="534" type="curve" smooth="yes"/>
      <point x="793" y="566"/>
      <point x="801" y="592"/>
      <point x="801" y="619" type="curve" smooth="yes"/>
      <point x="801" y="642"/>
      <point x="795" y="664"/>
      <point x="782" y="685" type="curve" smooth="yes"/>
      <point x="770" y="705"/>
      <point x="752" y="725"/>
      <point x="729" y="741" type="curve" smooth="yes"/>
      <point x="649" y="795" type="line"/>
      <point x="648" y="795"/>
      <point x="644" y="798"/>
      <point x="637" y="803" type="curve" smooth="yes"/>
      <point x="630" y="808"/>
      <point x="621" y="814"/>
      <point x="608" y="823" type="curve" smooth="yes"/>
      <point x="530" y="877" type="line"/>
      <point x="491" y="849"/>
      <point x="461" y="817"/>
      <point x="441" y="789" type="curve" smooth="yes"/>
      <point x="418" y="757"/>
      <point x="410" y="731"/>
      <point x="410" y="704" type="curve" smooth="yes"/>
      <point x="410" y="657"/>
      <point x="434" y="617"/>
      <point x="483" y="584" type="curve" smooth="yes"/>
      <point x="561" y="530" type="line"/>
      <point x="612" y="496" type="line" smooth="yes"/>
      <point x="622" y="489"/>
      <point x="630" y="484"/>
      <point x="636" y="481" type="curve"/>
      <point x="642" y="477"/>
      <point x="647" y="474"/>
      <point x="652" y="471" type="curve"/>
      <point x="660" y="465"/>
      <point x="669" y="459"/>
      <point x="682" y="451" type="curve"/>
    </contour>
  </outline>
</glyph>
<glyph name="ordfeminine" format="1">
  <advance width="1233"/>
  <unicode hex="00AA"/>
  <note>
	ordfeminine
  </note>
  <outline>
    <contour>
      <point x="363" y="698"/>
      <point x="274" y="785"/>
      <point x="274" y="926" type="curve" smooth="yes"/>
      <point x="274" y="1021"/>
      <point x="309" y="1097"/>
      <point x="386" y="1153" type="curve" smooth="yes"/>
      <point x="461" y="1206"/>
      <point x="567" y="1233"/>
      <point x="705" y="1233" type="curve" smooth="yes"/>
      <point x="840" y="1233" type="line"/>
      <point x="846" y="1268" type="line"/>
      <point x="847" y="1271"/>
      <point x="848" y="1273"/>
      <point x="848" y="1275" type="curve" smooth="yes"/>
      <point x="848" y="1286" type="line" smooth="yes"/>
      <point x="848" y="1339"/>
      <point x="802" y="1356"/>
      <point x="767" y="1363" type="curve" smooth="yes"/>
      <point x="749" y="1366"/>
      <point x="729" y="1368"/>
      <point x="708" y="1368" type="curve" smooth="yes"/>
      <point x="665" y="1368"/>
      <point x="624" y="1361"/>
      <point x="575" y="1348" type="curve" smooth="yes"/>
      <point x="527" y="1335"/>
      <point x="481" y="1318"/>
      <point x="418" y="1290" type="curve"/>
      <point x="451" y="1464" type="line"/>
      <point x="504" y="1483"/>
      <point x="554" y="1497"/>
      <point x="603" y="1506" type="curve" smooth="yes"/>
      <point x="650" y="1515"/>
      <point x="695" y="1520"/>
      <point x="743" y="1520" type="curve" smooth="yes"/>
      <point x="832" y="1520"/>
      <point x="913" y="1504"/>
      <point x="969" y="1469" type="curve" smooth="yes"/>
      <point x="1028" y="1433"/>
      <point x="1051" y="1381"/>
      <point x="1051" y="1318" type="curve" smooth="yes"/>
      <point x="1051" y="1305"/>
      <point x="1050" y="1278"/>
      <point x="1047" y="1255" type="curve" smooth="yes"/>
      <point x="1044" y="1230"/>
      <point x="1037" y="1192"/>
      <point x="1032" y="1165" type="curve" smooth="yes"/>
      <point x="944" y="717" type="line"/>
      <point x="737" y="717" type="line"/>
      <point x="756" y="805" type="line"/>
      <point x="723" y="766"/>
      <point x="692" y="744"/>
      <point x="649" y="725" type="curve" smooth="yes"/>
      <point x="607" y="707"/>
      <point x="561" y="698"/>
      <point x="511" y="698" type="curve" smooth="yes"/>
    </contour>
    <contour>
      <point x="649" y="838"/>
      <point x="698" y="860"/>
      <point x="735" y="903" type="curve" smooth="yes"/>
      <point x="770" y="942"/>
      <point x="798" y="1003"/>
      <point x="811" y="1087" type="curve"/>
      <point x="731" y="1087" type="line" smooth="yes"/>
      <point x="650" y="1087"/>
      <point x="590" y="1075"/>
      <point x="551" y="1051" type="curve" smooth="yes"/>
      <point x="512" y="1027"/>
      <point x="492" y="990"/>
      <point x="492" y="943" type="curve" smooth="yes"/>
      <point x="492" y="912"/>
      <point x="502" y="886"/>
      <point x="521" y="867" type="curve" smooth="yes"/>
      <point x="540" y="848"/>
      <point x="563" y="838"/>
      <point x="598" y="838" type="curve" smooth="yes"/>
    </contour>
    <contour>
      <point x="246" y="598" type="line"/>
      <point x="934" y="598" type="line"/>
      <point x="899" y="428" type="line"/>
      <point x="211" y="428" type="line"/>
    </contour>
  </outline>
</glyph>
<glyph name="guillemotleft" format="1">
  <advance width="1233"/>
  <unicode hex="00AB"/>
  <note>
	guillemotleft
  </note>
  <outline>
    <contour>
      <point x="78" y="535" type="line"/>
      <point x="102" y="666" type="line"/>
      <point x="649" y="1059" type="line"/>
      <point x="602" y="821" type="line"/>
      <point x="283" y="600" type="line"/>
      <point x="516" y="379" type="line"/>
      <point x="471" y="141" type="line"/>
    </contour>
    <contour>
      <point x="532" y="535" type="line"/>
      <point x="557" y="666" type="line"/>
      <point x="1102" y="1059" type="line"/>
      <point x="1057" y="821" type="line"/>
      <point x="737" y="600" type="line"/>
      <point x="971" y="379" type="line"/>
      <point x="926" y="141" type="line"/>
    </contour>
  </outline>
</glyph>
<glyph name="uni00B2" format="1">
  <advance width="1233"/>
  <unicode hex="00B2"/>
  <note>
	twosuperior
  </note>
  <outline>
    <contour>
      <point x="289" y="1261" type="line"/>
      <point x="312" y="1278"/>
      <point x="329" y="1290"/>
      <point x="341" y="1299" type="curve" smooth="yes"/>
      <point x="352" y="1307"/>
      <point x="362" y="1314"/>
      <point x="370" y="1320" type="curve"/>
      <point x="378" y="1325"/>
      <point x="386" y="1331"/>
      <point x="395" y="1337" type="curve"/>
      <point x="403" y="1343"/>
      <point x="415" y="1352"/>
      <point x="431" y="1363" type="curve" smooth="yes"/>
      <point x="576" y="1467"/>
      <point x="676" y="1547"/>
      <point x="740" y="1608" type="curve" smooth="yes"/>
      <point x="804" y="1669"/>
      <point x="831" y="1714"/>
      <point x="831" y="1746" type="curve" smooth="yes"/>
      <point x="831" y="1767"/>
      <point x="819" y="1793"/>
      <point x="795" y="1810" type="curve" smooth="yes"/>
      <point x="772" y="1826"/>
      <point x="737" y="1834"/>
      <point x="691" y="1834" type="curve" smooth="yes"/>
      <point x="651" y="1834"/>
      <point x="604" y="1828"/>
      <point x="555" y="1816" type="curve" smooth="yes"/>
      <point x="504" y="1804"/>
      <point x="451" y="1786"/>
      <point x="403" y="1763" type="curve"/>
      <point x="434" y="1925" type="line"/>
      <point x="485" y="1940"/>
      <point x="534" y="1952"/>
      <point x="583" y="1960" type="curve" smooth="yes"/>
      <point x="632" y="1968"/>
      <point x="680" y="1972"/>
      <point x="728" y="1972" type="curve" smooth="yes"/>
      <point x="820" y="1972"/>
      <point x="894" y="1957"/>
      <point x="950" y="1918" type="curve" smooth="yes"/>
      <point x="1005" y="1879"/>
      <point x="1028" y="1825"/>
      <point x="1028" y="1777" type="curve" smooth="yes"/>
      <point x="1028" y="1722"/>
      <point x="998" y="1664"/>
      <point x="931" y="1593" type="curve" smooth="yes"/>
      <point x="864" y="1521"/>
      <point x="762" y="1439"/>
      <point x="618" y="1338" type="curve" smooth="yes"/>
      <point x="609" y="1332"/>
      <point x="603" y="1328"/>
      <point x="600" y="1326" type="curve"/>
      <point x="597" y="1323"/>
      <point x="593" y="1320"/>
      <point x="588" y="1317" type="curve" smooth="yes"/>
      <point x="583" y="1314"/>
      <point x="575" y="1308"/>
      <point x="565" y="1301" type="curve"/>
      <point x="554" y="1294"/>
      <point x="537" y="1282"/>
      <point x="514" y="1265" type="curve"/>
      <point x="952" y="1265" type="line"/>
      <point x="924" y="1120" type="line"/>
      <point x="260" y="1120" type="line"/>
    </contour>
  </outline>
</glyph>
<glyph name="uni00B3" format="1">
  <advance width="1233"/>
  <unicode hex="00B3"/>
  <note>
	threesuperior
  </note>
  <outline>
    <contour>
      <point x="516" y="1103"/>
      <point x="468" y="1107"/>
      <point x="419" y="1114" type="curve" smooth="yes"/>
      <point x="371" y="1121"/>
      <point x="327" y="1129"/>
      <point x="276" y="1144" type="curve"/>
      <point x="307" y="1298" type="line"/>
      <point x="354" y="1278"/>
      <point x="394" y="1266"/>
      <point x="442" y="1257" type="curve" smooth="yes"/>
      <point x="491" y="1248"/>
      <point x="544" y="1243"/>
      <point x="588" y="1243" type="curve" smooth="yes"/>
      <point x="661" y="1243"/>
      <point x="709" y="1257"/>
      <point x="746" y="1284" type="curve" smooth="yes"/>
      <point x="785" y="1313"/>
      <point x="801" y="1350"/>
      <point x="801" y="1389" type="curve" smooth="yes"/>
      <point x="801" y="1458"/>
      <point x="739" y="1492"/>
      <point x="639" y="1492" type="curve" smooth="yes"/>
      <point x="528" y="1492" type="line"/>
      <point x="557" y="1638" type="line"/>
      <point x="666" y="1638" type="line" smooth="yes"/>
      <point x="785" y="1638"/>
      <point x="848" y="1678"/>
      <point x="848" y="1743" type="curve" smooth="yes"/>
      <point x="848" y="1799"/>
      <point x="790" y="1830"/>
      <point x="699" y="1830" type="curve" smooth="yes"/>
      <point x="634" y="1830"/>
      <point x="562" y="1815"/>
      <point x="512" y="1804" type="curve" smooth="yes"/>
      <point x="487" y="1798"/>
      <point x="460" y="1791"/>
      <point x="432" y="1783" type="curve"/>
      <point x="461" y="1935" type="line"/>
      <point x="510" y="1946"/>
      <point x="558" y="1954"/>
      <point x="605" y="1961" type="curve" smooth="yes"/>
      <point x="652" y="1967"/>
      <point x="696" y="1970"/>
      <point x="739" y="1970" type="curve" smooth="yes"/>
      <point x="836" y="1970"/>
      <point x="908" y="1954"/>
      <point x="961" y="1919" type="curve" smooth="yes"/>
      <point x="1014" y="1885"/>
      <point x="1040" y="1837"/>
      <point x="1040" y="1776" type="curve" smooth="yes"/>
      <point x="1040" y="1720"/>
      <point x="1020" y="1671"/>
      <point x="980" y="1634" type="curve" smooth="yes"/>
      <point x="941" y="1598"/>
      <point x="883" y="1574"/>
      <point x="807" y="1566" type="curve"/>
      <point x="863" y="1560"/>
      <point x="907" y="1541"/>
      <point x="940" y="1508" type="curve" smooth="yes"/>
      <point x="973" y="1475"/>
      <point x="989" y="1436"/>
      <point x="989" y="1380" type="curve" smooth="yes"/>
      <point x="989" y="1296"/>
      <point x="953" y="1226"/>
      <point x="880" y="1177" type="curve" smooth="yes"/>
      <point x="807" y="1128"/>
      <point x="702" y="1103"/>
      <point x="569" y="1103" type="curve" smooth="yes"/>
    </contour>
  </outline>
</glyph>
<glyph name="threequarters" format="1">
  <advance width="1233"/>
  <unicode hex="00BE"/>
  <note>
	threequarters
  </note>
  <outline>
    <contour>
      <point x="289" y="809"/>
      <point x="241" y="813"/>
      <point x="192" y="820" type="curve" smooth="yes"/>
      <point x="144" y="827"/>
      <point x="100" y="835"/>
      <point x="49" y="850" type="curve"/>
      <point x="80" y="1004" type="line"/>
      <point x="127" y="984"/>
      <point x="167" y="972"/>
      <point x="215" y="963" type="curve" smooth="yes"/>
      <point x="264" y="954"/>
      <point x="317" y="949"/>
      <point x="361" y="949" type="curve" smooth="yes"/>
      <point x="434" y="949"/>
      <point x="482" y="963"/>
      <point x="519" y="990" type="curve" smooth="yes"/>
      <point x="558" y="1019"/>
      <point x="574" y="1056"/>
      <point x="574" y="1095" type="curve" smooth="yes"/>
      <point x="574" y="1164"/>
      <point x="512" y="1198"/>
      <point x="412" y="1198" type="curve" smooth="yes"/>
      <point x="301" y="1198" type="line"/>
      <point x="330" y="1344" type="line"/>
      <point x="439" y="1344" type="line" smooth="yes"/>
      <point x="558" y="1344"/>
      <point x="621" y="1384"/>
      <point x="621" y="1449" type="curve" smooth="yes"/>
      <point x="621" y="1505"/>
      <point x="563" y="1536"/>
      <point x="472" y="1536" type="curve" smooth="yes"/>
      <point x="407" y="1536"/>
      <point x="335" y="1521"/>
      <point x="285" y="1510" type="curve" smooth="yes"/>
      <point x="260" y="1504"/>
      <point x="233" y="1497"/>
      <point x="205" y="1489" type="curve"/>
      <point x="234" y="1641" type="line"/>
      <point x="283" y="1652"/>
      <point x="331" y="1660"/>
      <point x="378" y="1667" type="curve" smooth="yes"/>
      <point x="425" y="1673"/>
      <point x="469" y="1676"/>
      <point x="512" y="1676" type="curve" smooth="yes"/>
      <point x="609" y="1676"/>
      <point x="681" y="1660"/>
      <point x="734" y="1625" type="curve" smooth="yes"/>
      <point x="787" y="1591"/>
      <point x="813" y="1543"/>
      <point x="813" y="1482" type="curve" smooth="yes"/>
      <point x="813" y="1426"/>
      <point x="793" y="1377"/>
      <point x="753" y="1340" type="curve" smooth="yes"/>
      <point x="714" y="1304"/>
      <point x="656" y="1280"/>
      <point x="580" y="1272" type="curve"/>
      <point x="636" y="1266"/>
      <point x="680" y="1247"/>
      <point x="713" y="1214" type="curve" smooth="yes"/>
      <point x="746" y="1181"/>
      <point x="762" y="1142"/>
      <point x="762" y="1086" type="curve" smooth="yes"/>
      <point x="762" y="1002"/>
      <point x="726" y="932"/>
      <point x="653" y="883" type="curve" smooth="yes"/>
      <point x="580" y="834"/>
      <point x="475" y="809"/>
      <point x="342" y="809" type="curve" smooth="yes"/>
    </contour>
    <contour>
      <point x="47" y="618" type="line"/>
      <point x="1106" y="879" type="line"/>
      <point x="1143" y="762" type="line"/>
      <point x="84" y="500" type="line"/>
    </contour>
    <contour>
      <point x="796" y="-90" type="line"/>
      <point x="407" y="-90" type="line"/>
      <point x="438" y="72" type="line"/>
      <point x="905" y="565" type="line"/>
      <point x="1110" y="565" type="line"/>
      <point x="1009" y="53" type="line"/>
      <point x="1118" y="53" type="line"/>
      <point x="1091" y="-90" type="line"/>
      <point x="983" y="-90" type="line"/>
      <point x="948" y="-270" type="line"/>
      <point x="760" y="-270" type="line"/>
    </contour>
    <contour>
      <point x="823" y="53" type="line"/>
      <point x="887" y="383" type="line"/>
      <point x="573" y="53" type="line"/>
    </contour>
  </outline>
</glyph>
<glyph name="Agrave" format="1">
  <advance width="1233"/>
  <unicode hex="00C0"/>
  <note>
	Agrave
  </note>
  <outline>
    <contour>
      <point x="500" y="1852" type="line"/>
      <point x="764" y="1852" type="line"/>
      <point x="907" y="1588" type="line"/>
      <point x="729" y="1588" type="line"/>
    </contour>
    <contour>
      <point x="582" y="1493" type="line"/>
      <point x="942" y="1493" type="line"/>
      <point x="1055" y="0" type="line"/>
      <point x="762" y="0" type="line"/>
      <point x="748" y="369" type="line"/>
      <point x="348" y="369" type="line"/>
      <point x="186" y="0" type="line"/>
      <point x="-113" y="0" type="line"/>
    </contour>
    <contour>
      <point x="737" y="612" type="line"/>
      <point x="717" y="1219" type="line"/>
      <point x="453" y="612" type="line"/>
    </contour>
  </outline>
</glyph>
<glyph name="Idieresis" format="1">
  <advance width="1233"/>
  <unicode hex="00CF"/>
  <note>
	Idieresis
  </note>
  <outline>
    <contour>
      <point x="493" y="1606" type="line" smooth="yes"/>
      <point x="475" y="1606"/>
      <point x="466" y="1614"/>
      <point x="466" y="1630" type="curve" smooth="yes"/>
      <point x="466" y="1634"/>
      <point x="466" y="1637"/>
      <point x="467" y="1639" type="curve"/>
      <point x="505" y="1825" type="line" smooth="yes"/>
      <point x="509" y="1843"/>
      <point x="520" y="1852"/>
      <point x="537" y="1852" type="curve" smooth="yes"/>
      <point x="712" y="1852" type="line" smooth="yes"/>
      <point x="730" y="1852"/>
      <point x="739" y="1844"/>
      <point x="739" y="1828" type="curve" smooth="yes"/>
      <point x="739" y="1824"/>
      <point x="739" y="1821"/>
      <point x="738" y="1819" type="curve"/>
      <point x="701" y="1633" type="line" smooth="yes"/>
      <point x="698" y="1615"/>
      <point x="687" y="1606"/>
      <point x="669" y="1606" type="curve" smooth="yes"/>
    </contour>
    <contour>
      <point x="889" y="1606" type="line" smooth="yes"/>
      <point x="871" y="1606"/>
      <point x="862" y="1614"/>
      <point x="862" y="1630" type="curve" smooth="yes"/>
      <point x="862" y="1634"/>
      <point x="862" y="1637"/>
      <point x="863" y="1639" type="curve"/>
      <point x="900" y="1825" type="line" smooth="yes"/>
      <point x="903" y="1843"/>
      <point x="913" y="1852"/>
      <point x="932" y="1852" type="curve" smooth="yes"/>
      <point x="1107" y="1852" type="line" smooth="yes"/>
      <point x="1127" y="1852"/>
      <point x="1138" y="1839"/>
      <point x="1134" y="1819" type="curve" smooth="yes"/>
      <point x="1098" y="1633" type="line" smooth="yes"/>
      <point x="1095" y="1615"/>
      <point x="1084" y="1606"/>
      <point x="1066" y="1606" type="curve" smooth="yes"/>
    </contour>
    <contour>
      <point x="78" y="260" type="line"/>
      <point x="375" y="260" type="line"/>
      <point x="563" y="1233" type="line"/>
      <point x="266" y="1233" type="line"/>
      <point x="317" y="1493" type="line"/>
      <point x="1206" y="1493" type="line"/>
      <point x="1155" y="1233" type="line"/>
      <point x="858" y="1233" type="line"/>
      <point x="670" y="260" type="line"/>
      <point x="967" y="260" type="line"/>
      <point x="915" y="0" type="line"/>
      <point x="27" y="0" type="line"/>
    </contour>
  </outline>
</glyph>
<glyph name="Oslash" format="1">
  <advance width="1233"/>
  <unicode hex="00D8"/>
  <note>
	Oslash
  </note>
  <outline>
    <contour>
      <point x="-141" y="51" type="line"/>
      <point x="78" y="295" type="line"/>
      <point x="71" y="323"/>
      <point x="69" y="342"/>
      <point x="66" y="366" type="curve" smooth="yes"/>
      <point x="63" y="391"/>
      <point x="61" y="410"/>
      <point x="61" y="454" type="curve" smooth="yes"/>
      <point x="61" y="579"/>
      <point x="77" y="725"/>
      <point x="110" y="865" type="curve" smooth="yes"/>
      <point x="141" y="998"/>
      <point x="187" y="1126"/>
      <point x="244" y="1227" type="curve" smooth="yes"/>
      <point x="296" y="1319"/>
      <point x="362" y="1394"/>
      <point x="447" y="1445" type="curve" smooth="yes"/>
      <point x="532" y="1496"/>
      <point x="632" y="1520"/>
      <point x="732" y="1520" type="curve" smooth="yes"/>
      <point x="871" y="1520"/>
      <point x="980" y="1476"/>
      <point x="1063" y="1389" type="curve"/>
      <point x="1217" y="1559" type="line"/>
      <point x="1356" y="1444" type="line"/>
      <point x="1151" y="1217" type="line"/>
      <point x="1159" y="1174"/>
      <point x="1163" y="1144"/>
      <point x="1166" y="1113" type="curve" smooth="yes"/>
      <point x="1169" y="1080"/>
      <point x="1171" y="1057"/>
      <point x="1171" y="1022" type="curve" smooth="yes"/>
      <point x="1171" y="987"/>
      <point x="1169" y="934"/>
      <point x="1164" y="887" type="curve" smooth="yes"/>
      <point x="1163" y="878"/>
      <point x="1161" y="867"/>
      <point x="1160" y="855" type="curve"/>
      <point x="1157" y="830"/>
      <point x="1153" y="802"/>
      <point x="1149" y="775" type="curve" smooth="yes"/>
      <point x="1145" y="747"/>
      <point x="1141" y="718"/>
      <point x="1131" y="673" type="curve" smooth="yes"/>
      <point x="1121" y="628"/>
      <point x="1110" y="582"/>
      <point x="1098" y="539" type="curve" smooth="yes"/>
      <point x="1092" y="518"/>
      <point x="1086" y="498"/>
      <point x="1080" y="480" type="curve" smooth="yes"/>
      <point x="1057" y="411"/>
      <point x="1028" y="336"/>
      <point x="989" y="265" type="curve" smooth="yes"/>
      <point x="933" y="166"/>
      <point x="863" y="93"/>
      <point x="786" y="46" type="curve" smooth="yes"/>
      <point x="702" y="-5"/>
      <point x="604" y="-29"/>
      <point x="500" y="-29" type="curve" smooth="yes"/>
      <point x="353" y="-29"/>
      <point x="235" y="22"/>
      <point x="160" y="117" type="curve"/>
      <point x="0" y="-63" type="line"/>
    </contour>
    <contour>
      <point x="852" y="1153" type="line"/>
      <point x="840" y="1189"/>
      <point x="820" y="1217"/>
      <point x="797" y="1233" type="curve" smooth="yes"/>
      <point x="770" y="1253"/>
      <point x="737" y="1260"/>
      <point x="706" y="1260" type="curve" smooth="yes"/>
      <point x="619" y="1260"/>
      <point x="558" y="1205"/>
      <point x="510" y="1113" type="curve" smooth="yes"/>
      <point x="459" y="1017"/>
      <point x="416" y="866"/>
      <point x="379" y="629" type="curve"/>
    </contour>
    <contour>
      <point x="694" y="233"/>
      <point x="756" y="420"/>
      <point x="800" y="590" type="curve" smooth="yes"/>
      <point x="821" y="675"/>
      <point x="841" y="774"/>
      <point x="858" y="889" type="curve"/>
      <point x="375" y="354" type="line"/>
      <point x="387" y="314"/>
      <point x="406" y="284"/>
      <point x="432" y="264" type="curve" smooth="yes"/>
      <point x="456" y="245"/>
      <point x="484" y="233"/>
      <point x="525" y="233" type="curve" smooth="yes"/>
    </contour>
  </outline>
</glyph>
<glyph name="Yacute" format="1">
  <advance width="1233"/>
  <unicode hex="00DD"/>
  <note>
	Yacute
  </note>
  <outline>
    <contour>
      <point x="868" y="1852" type="line"/>
      <point x="1149" y="1852" type="line"/>
      <point x="829" y="1588" type="line"/>
      <point x="622" y="1588" type="line"/>
    </contour>
    <contour>
      <point x="432" y="588" type="line"/>
      <point x="145" y="1493" type="line"/>
      <point x="438" y="1493" type="line"/>
      <point x="625" y="844" type="line"/>
      <point x="1036" y="1493" type="line"/>
      <point x="1358" y="1493" type="line"/>
      <point x="725" y="588" type="line"/>
      <point x="610" y="0" type="line"/>
      <point x="317" y="0" type="line"/>
    </contour>
  </outline>
</glyph>
<glyph name="ae" format="1">
  <advance width="1233"/>
  <unicode hex="00E6"/>
  <note>
	ae
  </note>
  <outline>
    <contour>
      <point x="161" y="-29"/>
      <point x="94" y="-3"/>
      <point x="44" y="50" type="curve" smooth="yes"/>
      <point x="-7" y="103"/>
      <point x="-31" y="171"/>
      <point x="-31" y="267" type="curve" smooth="yes"/>
      <point x="-31" y="390"/>
      <point x="10" y="493"/>
      <point x="91" y="573" type="curve" smooth="yes"/>
      <point x="172" y="651"/>
      <point x="280" y="690"/>
      <point x="416" y="690" type="curve" smooth="yes"/>
      <point x="524" y="690" type="line"/>
      <point x="535" y="748" type="line" smooth="yes"/>
      <point x="537" y="759"/>
      <point x="538" y="767"/>
      <point x="539" y="770" type="curve"/>
      <point x="539" y="773"/>
      <point x="539" y="775"/>
      <point x="540" y="778" type="curve" smooth="yes"/>
      <point x="541" y="781"/>
      <point x="541" y="786"/>
      <point x="541" y="791" type="curve" smooth="yes"/>
      <point x="541" y="796"/>
      <point x="541" y="799"/>
      <point x="541" y="800" type="curve" smooth="yes"/>
      <point x="541" y="848"/>
      <point x="530" y="879"/>
      <point x="507" y="900" type="curve" smooth="yes"/>
      <point x="484" y="921"/>
      <point x="451" y="932"/>
      <point x="409" y="932" type="curve" smooth="yes"/>
      <point x="337" y="932"/>
      <point x="263" y="899"/>
      <point x="212" y="875" type="curve"/>
      <point x="187" y="862"/>
      <point x="160" y="848"/>
      <point x="131" y="831" type="curve"/>
      <point x="178" y="1069" type="line"/>
      <point x="231" y="1096"/>
      <point x="281" y="1115"/>
      <point x="330" y="1128" type="curve" smooth="yes"/>
      <point x="378" y="1141"/>
      <point x="426" y="1147"/>
      <point x="469" y="1147" type="curve" smooth="yes"/>
      <point x="525" y="1147"/>
      <point x="572" y="1135"/>
      <point x="611" y="1112" type="curve" smooth="yes"/>
      <point x="651" y="1088"/>
      <point x="677" y="1057"/>
      <point x="694" y="1014" type="curve"/>
      <point x="765" y="1101"/>
      <point x="855" y="1147"/>
      <point x="970" y="1147" type="curve" smooth="yes"/>
      <point x="1138" y="1147"/>
      <point x="1231" y="1050"/>
      <point x="1231" y="873" type="curve" smooth="yes"/>
      <point x="1231" y="841"/>
      <point x="1228" y="806"/>
      <point x="1223" y="761" type="curve" smooth="yes"/>
      <point x="1218" y="722"/>
      <point x="1213" y="689"/>
      <point x="1208" y="662" type="curve" smooth="yes"/>
      <point x="1203" y="634"/>
      <point x="1199" y="615"/>
      <point x="1198" y="606" type="curve"/>
      <point x="1176" y="477" type="line"/>
      <point x="725" y="477" type="line"/>
      <point x="721" y="452"/>
      <point x="715" y="413"/>
      <point x="714" y="402" type="curve" smooth="yes"/>
      <point x="712" y="384"/>
      <point x="711" y="369"/>
      <point x="711" y="357" type="curve" smooth="yes"/>
      <point x="711" y="301"/>
      <point x="727" y="256"/>
      <point x="754" y="227" type="curve" smooth="yes"/>
      <point x="782" y="196"/>
      <point x="820" y="180"/>
      <point x="867" y="180" type="curve" smooth="yes"/>
      <point x="903" y="180"/>
      <point x="944" y="190"/>
      <point x="991" y="209" type="curve" smooth="yes"/>
      <point x="1032" y="226"/>
      <point x="1080" y="253"/>
      <point x="1124" y="289" type="curve"/>
      <point x="1077" y="51" type="line"/>
      <point x="1039" y="24"/>
      <point x="997" y="4"/>
      <point x="952" y="-9" type="curve" smooth="yes"/>
      <point x="907" y="-22"/>
      <point x="855" y="-29"/>
      <point x="806" y="-29" type="curve" smooth="yes"/>
      <point x="737" y="-29"/>
      <point x="689" y="-15"/>
      <point x="642" y="14" type="curve" smooth="yes"/>
      <point x="597" y="43"/>
      <point x="564" y="84"/>
      <point x="543" y="135" type="curve"/>
      <point x="502" y="80"/>
      <point x="457" y="39"/>
      <point x="409" y="12" type="curve" smooth="yes"/>
      <point x="357" y="-17"/>
      <point x="306" y="-29"/>
      <point x="246" y="-29" type="curve" smooth="yes"/>
    </contour>
    <contour>
      <point x="991" y="688" type="line"/>
      <point x="1003" y="755" type="line"/>
      <point x="1006" y="766"/>
      <point x="1008" y="777"/>
      <point x="1009" y="789" type="curve"/>
      <point x="1010" y="794"/>
      <point x="1010" y="801"/>
      <point x="1010" y="809" type="curve" smooth="yes"/>
      <point x="1010" y="816"/>
      <point x="1010" y="825"/>
      <point x="1010" y="834" type="curve" smooth="yes"/>
      <point x="1010" y="901"/>
      <point x="985" y="932"/>
      <point x="926" y="932" type="curve" smooth="yes"/>
      <point x="850" y="932"/>
      <point x="821" y="879"/>
      <point x="802" y="833" type="curve" smooth="yes"/>
      <point x="793" y="810"/>
      <point x="785" y="785"/>
      <point x="780" y="760" type="curve" smooth="yes"/>
      <point x="766" y="688" type="line"/>
    </contour>
    <contour>
      <point x="384" y="180"/>
      <point x="435" y="245"/>
      <point x="463" y="401" type="curve" smooth="yes"/>
      <point x="477" y="479" type="line"/>
      <point x="403" y="479" type="line" smooth="yes"/>
      <point x="338" y="479"/>
      <point x="286" y="462"/>
      <point x="247" y="428" type="curve" smooth="yes"/>
      <point x="207" y="393"/>
      <point x="188" y="344"/>
      <point x="188" y="293" type="curve" smooth="yes"/>
      <point x="188" y="256"/>
      <point x="198" y="230"/>
      <point x="217" y="210" type="curve" smooth="yes"/>
      <point x="236" y="190"/>
      <point x="262" y="180"/>
      <point x="296" y="180" type="curve" smooth="yes"/>
    </contour>
  </outline>
</glyph>
<glyph name="igrave" format="1">
  <advance width="1233"/>
  <unicode hex="00EC"/>
  <note>
	igrave
  </note>
  <outline>
    <contour>
      <point x="306" y="1648" type="line"/>
      <point x="590" y="1648" type="line"/>
      <point x="799" y="1272" type="line"/>
      <point x="601" y="1272" type="line"/>
    </contour>
    <contour>
      <point x="737" y="-8" type="line" smooth="yes"/>
      <point x="594" y="-8"/>
      <point x="504" y="10"/>
      <point x="447" y="49" type="curve" smooth="yes"/>
      <point x="384" y="90"/>
      <point x="362" y="152"/>
      <point x="362" y="229" type="curve" smooth="yes"/>
      <point x="362" y="252"/>
      <point x="364" y="269"/>
      <point x="367" y="292" type="curve" smooth="yes"/>
      <point x="370" y="316"/>
      <point x="374" y="342"/>
      <point x="381" y="371" type="curve" smooth="yes"/>
      <point x="501" y="895" type="line"/>
      <point x="265" y="895" type="line"/>
      <point x="308" y="1120" type="line"/>
      <point x="836" y="1120" type="line"/>
      <point x="670" y="357" type="line" smooth="yes"/>
      <point x="668" y="349"/>
      <point x="667" y="343"/>
      <point x="666" y="340" type="curve"/>
      <point x="665" y="336"/>
      <point x="665" y="333"/>
      <point x="665" y="331" type="curve" smooth="yes"/>
      <point x="665" y="329"/>
      <point x="665" y="328"/>
      <point x="665" y="327" type="curve" smooth="yes"/>
      <point x="665" y="326"/>
      <point x="665" y="324"/>
      <point x="664" y="321" type="curve"/>
      <point x="661" y="310"/>
      <point x="661" y="303"/>
      <point x="661" y="295" type="curve" smooth="yes"/>
      <point x="661" y="272"/>
      <point x="669" y="251"/>
      <point x="692" y="236" type="curve" smooth="yes"/>
      <point x="713" y="223"/>
      <point x="749" y="217"/>
      <point x="801" y="217" type="curve" smooth="yes"/>
      <point x="1079" y="217" type="line"/>
      <point x="1034" y="-8" type="line"/>
    </contour>
  </outline>
</glyph>
<glyph name="iacute" format="1">
  <advance width="1233"/>
  <unicode hex="00ED"/>
  <note>
	iacute
  </note>
  <outline>
    <contour>
      <point x="862" y="1648" type="line"/>
      <point x="1183" y="1648" type="line"/>
      <point x="741" y="1272" type="line"/>
      <point x="544" y="1272" type="line"/>
    </contour>
    <contour>
      <point x="697" y="-8" type="line" smooth="yes"/>
      <point x="554" y="-8"/>
      <point x="464" y="10"/>
      <point x="407" y="49" type="curve" smooth="yes"/>
      <point x="344" y="90"/>
      <point x="322" y="152"/>
      <point x="322" y="229" type="curve" smooth="yes"/>
      <point x="322" y="252"/>
      <point x="324" y="269"/>
      <point x="327" y="292" type="curve" smooth="yes"/>
      <point x="330" y="316"/>
      <point x="334" y="342"/>
      <point x="341" y="371" type="curve" smooth="yes"/>
      <point x="461" y="895" type="line"/>
      <point x="225" y="895" type="line"/>
      <point x="268" y="1120" type="line"/>
      <point x="796" y="1120" type="line"/>
      <point x="630" y="357" type="line" smooth="yes"/>
      <point x="628" y="349"/>
      <point x="627" y="343"/>
      <point x="626" y="340" type="curve"/>
      <point x="625" y="336"/>
      <point x="625" y="333"/>
      <point x="625" y="331" type="curve" smooth="yes"/>
      <point x="625" y="329"/>
      <point x="625" y="328"/>
      <point x="625" y="327" type="curve" smooth="yes"/>
      <point x="625" y="326"/>
      <point x="625" y="324"/>
      <point x="624" y="321" type="curve"/>
      <point x="621" y="310"/>
      <point x="621" y="303"/>
      <point x="621" y="295" type="curve" smooth="yes"/>
      <point x="621" y="272"/>
      <point x="629" y="251"/>
      <point x="652" y="236" type="curve" smooth="yes"/>
      <point x="673" y="223"/>
      <point x="709" y="217"/>
      <point x="761" y="217" type="curve" smooth="yes"/>
      <point x="1039" y="217" type="line"/>
      <point x="994" y="-8" type="line"/>
    </contour>
  </outline>
</glyph>
<glyph name="icircumflex" format="1">
  <advance width="1233"/>
  <unicode hex="00EE"/>
  <note>
	icircumflex
  </note>
  <outline>
    <contour>
      <point x="596" y="1673" type="line"/>
      <point x="839" y="1673" type="line"/>
      <point x="1022" y="1297" type="line"/>
      <point x="846" y="1297" type="line"/>
      <point x="694" y="1522" type="line"/>
      <point x="454" y="1297" type="line"/>
      <point x="264" y="1297" type="line"/>
    </contour>
    <contour>
      <point x="700" y="-8" type="line" smooth="yes"/>
      <point x="557" y="-8"/>
      <point x="467" y="10"/>
      <point x="410" y="49" type="curve" smooth="yes"/>
      <point x="347" y="90"/>
      <point x="325" y="152"/>
      <point x="325" y="229" type="curve" smooth="yes"/>
      <point x="325" y="252"/>
      <point x="327" y="269"/>
      <point x="330" y="292" type="curve" smooth="yes"/>
      <point x="333" y="316"/>
      <point x="337" y="342"/>
      <point x="344" y="371" type="curve" smooth="yes"/>
      <point x="464" y="895" type="line"/>
      <point x="228" y="895" type="line"/>
      <point x="271" y="1120" type="line"/>
      <point x="799" y="1120" type="line"/>
      <point x="633" y="357" type="line" smooth="yes"/>
      <point x="631" y="349"/>
      <point x="630" y="343"/>
      <point x="629" y="340" type="curve"/>
      <point x="628" y="336"/>
      <point x="628" y="333"/>
      <point x="628" y="331" type="curve" smooth="yes"/>
      <point x="628" y="329"/>
      <point x="628" y="328"/>
      <point x="628" y="327" type="curve" smooth="yes"/>
      <point x="628" y="326"/>
      <point x="628" y="324"/>
      <point x="627" y="321" type="curve"/>
      <point x="624" y="310"/>
      <point x="624" y="303"/>
      <point x="624" y="295" type="curve" smooth="yes"/>
      <point x="624" y="272"/>
      <point x="632" y="251"/>
      <point x="655" y="236" type="curve" smooth="yes"/>
      <point x="676" y="223"/>
      <point x="712" y="217"/>
      <point x="764" y="217" type="curve" smooth="yes"/>
      <point x="1042" y="217" type="line"/>
      <point x="997" y="-8" type="line"/>
    </contour>
  </outline>
</glyph>
<glyph name="idieresis" format="1">
  <advance width="1233"/>
  <unicode hex="00EF"/>
  <note>
	idieresis
  </note>
  <outline>
    <contour>
      <point x="395" y="1347" type="line" smooth="yes"/>
      <point x="375" y="1347"/>
      <point x="364" y="1360"/>
      <point x="368" y="1380" type="curve" smooth="yes"/>
      <point x="404" y="1566" type="line" smooth="yes"/>
      <point x="407" y="1584"/>
      <point x="417" y="1593"/>
      <point x="436" y="1593" type="curve" smooth="yes"/>
      <point x="613" y="1593" type="line" smooth="yes"/>
      <point x="632" y="1593"/>
      <point x="634" y="1584"/>
      <point x="639" y="1569" type="curve" smooth="yes"/>
      <point x="640" y="1566"/>
      <point x="640" y="1563"/>
      <point x="639" y="1560" type="curve"/>
      <point x="602" y="1374" type="line" smooth="yes"/>
      <point x="599" y="1356"/>
      <point x="588" y="1347"/>
      <point x="570" y="1347" type="curve" smooth="yes"/>
    </contour>
    <contour>
      <point x="790" y="1347" type="line" smooth="yes"/>
      <point x="770" y="1347"/>
      <point x="759" y="1360"/>
      <point x="763" y="1380" type="curve" smooth="yes"/>
      <point x="799" y="1566" type="line" smooth="yes"/>
      <point x="802" y="1584"/>
      <point x="812" y="1593"/>
      <point x="831" y="1593" type="curve" smooth="yes"/>
      <point x="1009" y="1593" type="line" smooth="yes"/>
      <point x="1028" y="1593"/>
      <point x="1030" y="1584"/>
      <point x="1035" y="1569" type="curve" smooth="yes"/>
      <point x="1036" y="1566"/>
      <point x="1036" y="1563"/>
      <point x="1035" y="1560" type="curve"/>
      <point x="998" y="1374" type="line" smooth="yes"/>
      <point x="995" y="1356"/>
      <point x="984" y="1347"/>
      <point x="966" y="1347" type="curve" smooth="yes"/>
    </contour>
    <contour>
      <point x="718" y="-8" type="line" smooth="yes"/>
      <point x="575" y="-8"/>
      <point x="485" y="10"/>
      <point x="428" y="49" type="curve" smooth="yes"/>
      <point x="365" y="90"/>
      <point x="343" y="152"/>
      <point x="343" y="229" type="curve" smooth="yes"/>
      <point x="343" y="252"/>
      <point x="345" y="269"/>
      <point x="348" y="292" type="curve" smooth="yes"/>
      <point x="351" y="316"/>
      <point x="355" y="342"/>
      <point x="362" y="371" type="curve" smooth="yes"/>
      <point x="482" y="895" type="line"/>
      <point x="246" y="895" type="line"/>
      <point x="289" y="1120" type="line"/>
      <point x="817" y="1120" type="line"/>
      <point x="651" y="357" type="line" smooth="yes"/>
      <point x="649" y="349"/>
      <point x="648" y="343"/>
      <point x="647" y="340" type="curve"/>
      <point x="646" y="336"/>
      <point x="646" y="333"/>
      <point x="646" y="331" type="curve" smooth="yes"/>
      <point x="646" y="329"/>
      <point x="646" y="328"/>
      <point x="646" y="327" type="curve" smooth="yes"/>
      <point x="646" y="326"/>
      <point x="646" y="324"/>
      <point x="645" y="321" type="curve"/>
      <point x="642" y="310"/>
      <point x="642" y="303"/>
      <point x="642" y="295" type="curve" smooth="yes"/>
      <point x="642" y="272"/>
      <point x="650" y="251"/>
      <point x="673" y="236" type="curve" smooth="yes"/>
      <point x="694" y="223"/>
      <point x="730" y="217"/>
      <point x="782" y="217" type="curve" smooth="yes"/>
      <point x="1060" y="217" type="line"/>
      <point x="1015" y="-8" type="line"/>
    </contour>
  </outline>
</glyph>
<glyph name="ntilde" format="1">
  <advance width="1233"/>
  <unicode hex="00F1"/>
  <note>
	ntilde
  </note>
  <outline>
    <contour>
      <point x="853" y="1297"/>
      <point x="835" y="1301"/>
      <point x="812" y="1310" type="curve" smooth="yes"/>
      <point x="789" y="1319"/>
      <point x="766" y="1333"/>
      <point x="739" y="1354" type="curve" smooth="yes"/>
      <point x="690" y="1391" type="line"/>
      <point x="688" y="1393"/>
      <point x="687" y="1394"/>
      <point x="687" y="1394" type="curve"/>
      <point x="687" y="1393"/>
      <point x="686" y="1394"/>
      <point x="685" y="1395" type="curve"/>
      <point x="662" y="1412"/>
      <point x="639" y="1428"/>
      <point x="612" y="1428" type="curve" smooth="yes"/>
      <point x="565" y="1428"/>
      <point x="531" y="1380"/>
      <point x="516" y="1299" type="curve"/>
      <point x="377" y="1299" type="line"/>
      <point x="390" y="1386"/>
      <point x="419" y="1455"/>
      <point x="464" y="1506" type="curve" smooth="yes"/>
      <point x="509" y="1557"/>
      <point x="565" y="1583"/>
      <point x="625" y="1583" type="curve" smooth="yes"/>
      <point x="648" y="1583"/>
      <point x="673" y="1579"/>
      <point x="692" y="1571" type="curve" smooth="yes"/>
      <point x="711" y="1563"/>
      <point x="737" y="1545"/>
      <point x="768" y="1522" type="curve" smooth="yes"/>
      <point x="819" y="1483" type="line"/>
      <point x="832" y="1472"/>
      <point x="844" y="1465"/>
      <point x="856" y="1460" type="curve" smooth="yes"/>
      <point x="868" y="1455"/>
      <point x="878" y="1452"/>
      <point x="890" y="1452" type="curve" smooth="yes"/>
      <point x="917" y="1452"/>
      <point x="937" y="1465"/>
      <point x="953" y="1486" type="curve" smooth="yes"/>
      <point x="970" y="1508"/>
      <point x="982" y="1540"/>
      <point x="989" y="1581" type="curve"/>
      <point x="1128" y="1581" type="line"/>
      <point x="1099" y="1394"/>
      <point x="1013" y="1297"/>
      <point x="880" y="1297" type="curve" smooth="yes"/>
    </contour>
    <contour>
      <point x="276" y="1120" type="line"/>
      <point x="540" y="1120" type="line"/>
      <point x="537" y="952" type="line"/>
      <point x="570" y="1016"/>
      <point x="617" y="1064"/>
      <point x="669" y="1096" type="curve" smooth="yes"/>
      <point x="724" y="1130"/>
      <point x="786" y="1147"/>
      <point x="857" y="1147" type="curve" smooth="yes"/>
      <point x="938" y="1147"/>
      <point x="1004" y="1125"/>
      <point x="1051" y="1078" type="curve" smooth="yes"/>
      <point x="1095" y="1034"/>
      <point x="1120" y="969"/>
      <point x="1120" y="880" type="curve" smooth="yes"/>
      <point x="1120" y="861"/>
      <point x="1119" y="838"/>
      <point x="1116" y="813" type="curve" smooth="yes"/>
      <point x="1115" y="805"/>
      <point x="1113" y="793"/>
      <point x="1111" y="776" type="curve"/>
      <point x="1108" y="759"/>
      <point x="1105" y="743"/>
      <point x="1102" y="728" type="curve" smooth="yes"/>
      <point x="961" y="0" type="line"/>
      <point x="668" y="0" type="line"/>
      <point x="801" y="682" type="line"/>
      <point x="802" y="685"/>
      <point x="802" y="689"/>
      <point x="803" y="695" type="curve" smooth="yes"/>
      <point x="804" y="700"/>
      <point x="805" y="706"/>
      <point x="806" y="712" type="curve" smooth="yes"/>
      <point x="807" y="717"/>
      <point x="807" y="722"/>
      <point x="808" y="727" type="curve" smooth="yes"/>
      <point x="809" y="732"/>
      <point x="809" y="734"/>
      <point x="809" y="735" type="curve"/>
      <point x="810" y="752"/>
      <point x="811" y="771"/>
      <point x="811" y="784" type="curve" smooth="yes"/>
      <point x="811" y="823"/>
      <point x="803" y="854"/>
      <point x="782" y="877" type="curve" smooth="yes"/>
      <point x="763" y="897"/>
      <point x="735" y="907"/>
      <point x="699" y="907" type="curve" smooth="yes"/>
      <point x="588" y="907"/>
      <point x="506" y="806"/>
      <point x="473" y="629" type="curve" smooth="yes"/>
      <point x="352" y="0" type="line"/>
      <point x="59" y="0" type="line"/>
    </contour>
  </outline>
</glyph>
<glyph name="udieresis" format="1">
  <advance width="1233"/>
  <unicode hex="00FC"/>
  <note>
	udieresis
  </note>
  <outline>
    <contour>
      <point x="459" y="1347" type="line" smooth="yes"/>
      <point x="439" y="1347"/>
      <point x="428" y="1360"/>
      <point x="432" y="1380" type="curve" smooth="yes"/>
      <point x="468" y="1566" type="line" smooth="yes"/>
      <point x="471" y="1584"/>
      <point x="481" y="1593"/>
      <point x="500" y="1593" type="curve" smooth="yes"/>
      <point x="677" y="1593" type="line" smooth="yes"/>
      <point x="695" y="1593"/>
      <point x="704" y="1585"/>
      <point x="704" y="1569" type="curve" smooth="yes"/>
      <point x="704" y="1565"/>
      <point x="704" y="1562"/>
      <point x="703" y="1560" type="curve"/>
      <point x="666" y="1374" type="line" smooth="yes"/>
      <point x="663" y="1356"/>
      <point x="652" y="1347"/>
      <point x="634" y="1347" type="curve" smooth="yes"/>
    </contour>
    <contour>
      <point x="854" y="1347" type="line" smooth="yes"/>
      <point x="834" y="1347"/>
      <point x="823" y="1360"/>
      <point x="827" y="1380" type="curve" smooth="yes"/>
      <point x="863" y="1566" type="line" smooth="yes"/>
      <point x="866" y="1584"/>
      <point x="876" y="1593"/>
      <point x="895" y="1593" type="curve" smooth="yes"/>
      <point x="1073" y="1593" type="line" smooth="yes"/>
      <point x="1091" y="1593"/>
      <point x="1100" y="1585"/>
      <point x="1100" y="1569" type="curve" smooth="yes"/>
      <point x="1100" y="1565"/>
      <point x="1100" y="1562"/>
      <point x="1099" y="1560" type="curve"/>
      <point x="1062" y="1374" type="line" smooth="yes"/>
      <point x="1059" y="1356"/>
      <point x="1048" y="1347"/>
      <point x="1030" y="1347" type="curve" smooth="yes"/>
    </contour>
    <contour>
      <point x="289" y="-29"/>
      <point x="222" y="-5"/>
      <point x="175" y="42" type="curve" smooth="yes"/>
      <point x="129" y="89"/>
      <point x="106" y="156"/>
      <point x="106" y="244" type="curve" smooth="yes"/>
      <point x="106" y="263"/>
      <point x="107" y="284"/>
      <point x="110" y="308" type="curve" smooth="yes"/>
      <point x="111" y="316"/>
      <point x="113" y="328"/>
      <point x="115" y="344" type="curve" smooth="yes"/>
      <point x="117" y="360"/>
      <point x="120" y="376"/>
      <point x="123" y="391" type="curve" smooth="yes"/>
      <point x="266" y="1120" type="line"/>
      <point x="557" y="1120" type="line"/>
      <point x="426" y="436" type="line"/>
      <point x="425" y="429"/>
      <point x="424" y="421"/>
      <point x="423" y="412" type="curve" smooth="yes"/>
      <point x="422" y="403"/>
      <point x="420" y="394"/>
      <point x="419" y="383" type="curve"/>
      <point x="416" y="362"/>
      <point x="416" y="351"/>
      <point x="416" y="336" type="curve" smooth="yes"/>
      <point x="416" y="289"/>
      <point x="426" y="264"/>
      <point x="445" y="243" type="curve" smooth="yes"/>
      <point x="462" y="224"/>
      <point x="486" y="211"/>
      <point x="529" y="211" type="curve" smooth="yes"/>
      <point x="588" y="211"/>
      <point x="632" y="235"/>
      <point x="668" y="282" type="curve" smooth="yes"/>
      <point x="707" y="331"/>
      <point x="735" y="400"/>
      <point x="752" y="489" type="curve" smooth="yes"/>
      <point x="874" y="1120" type="line"/>
      <point x="1165" y="1120" type="line"/>
      <point x="948" y="0" type="line"/>
      <point x="684" y="0" type="line"/>
      <point x="688" y="166" type="line"/>
      <point x="656" y="98"/>
      <point x="603" y="51"/>
      <point x="560" y="24" type="curve" smooth="yes"/>
      <point x="497" y="-15"/>
      <point x="433" y="-29"/>
      <point x="370" y="-29" type="curve" smooth="yes"/>
    </contour>
  </outline>
</glyph>
<glyph name="thorn" format="1">
  <advance width="1233"/>
  <unicode hex="00FE"/>
  <note>
	thorn
  </note>
  <outline>
    <contour>
      <point x="348" y="1556" type="line"/>
      <point x="641" y="1556" type="line"/>
      <point x="524" y="952" type="line"/>
      <point x="571" y="1017"/>
      <point x="622" y="1066"/>
      <point x="677" y="1099" type="curve" smooth="yes"/>
      <point x="729" y="1130"/>
      <point x="789" y="1147"/>
      <point x="854" y="1147" type="curve" smooth="yes"/>
      <point x="951" y="1147"/>
      <point x="1027" y="1111"/>
      <point x="1084" y="1038" type="curve" smooth="yes"/>
      <point x="1141" y="965"/>
      <point x="1169" y="867"/>
      <point x="1169" y="734" type="curve" smooth="yes"/>
      <point x="1169" y="654"/>
      <point x="1159" y="568"/>
      <point x="1138" y="480" type="curve" smooth="yes"/>
      <point x="1117" y="392"/>
      <point x="1086" y="311"/>
      <point x="1051" y="244" type="curve" smooth="yes"/>
      <point x="959" y="72"/>
      <point x="811" y="-29"/>
      <point x="654" y="-29" type="curve" smooth="yes"/>
      <point x="507" y="-29"/>
      <point x="404" y="58"/>
      <point x="379" y="207" type="curve"/>
      <point x="256" y="-426" type="line"/>
      <point x="-37" y="-426" type="line"/>
    </contour>
    <contour>
      <point x="681" y="209"/>
      <point x="747" y="266"/>
      <point x="794" y="350" type="curve" smooth="yes"/>
      <point x="845" y="442"/>
      <point x="874" y="564"/>
      <point x="874" y="683" type="curve" smooth="yes"/>
      <point x="874" y="763"/>
      <point x="861" y="814"/>
      <point x="833" y="851" type="curve" smooth="yes"/>
      <point x="805" y="888"/>
      <point x="767" y="907"/>
      <point x="718" y="907" type="curve" smooth="yes"/>
      <point x="643" y="907"/>
      <point x="574" y="861"/>
      <point x="519" y="769" type="curve" smooth="yes"/>
      <point x="466" y="678"/>
      <point x="436" y="560"/>
      <point x="436" y="444" type="curve" smooth="yes"/>
      <point x="436" y="371"/>
      <point x="448" y="312"/>
      <point x="480" y="269" type="curve" smooth="yes"/>
      <point x="508" y="232"/>
      <point x="550" y="209"/>
      <point x="601" y="209" type="curve" smooth="yes"/>
    </contour>
  </outline>
</glyph>
<glyph name="aogonek" format="1">
  <advance width="1233"/>
  <unicode hex="0105"/>
  <note>
	aogonek
  </note>
  <outline>
    <contour>
      <point x="988" y="1147"/>
      <point x="1141" y="1045"/>
      <point x="1141" y="845" type="curve" smooth="yes"/>
      <point x="1141" y="792"/>
      <point x="1130" y="722"/>
      <point x="1114" y="639" type="curve" smooth="yes"/>
      <point x="991" y="0" type="line"/>
      <point x="841" y="0" type="line"/>
      <point x="791" y="-53"/>
      <point x="758" y="-92"/>
      <point x="742" y="-117" type="curve" smooth="yes"/>
      <point x="726" y="-142"/>
      <point x="718" y="-162"/>
      <point x="718" y="-182" type="curve" smooth="yes"/>
      <point x="718" y="-221"/>
      <point x="749" y="-254"/>
      <point x="818" y="-254" type="curve" smooth="yes"/>
      <point x="854" y="-254"/>
      <point x="911" y="-246"/>
      <point x="974" y="-223" type="curve"/>
      <point x="943" y="-379" type="line"/>
      <point x="878" y="-394"/>
      <point x="815" y="-401"/>
      <point x="764" y="-401" type="curve" smooth="yes"/>
      <point x="627" y="-401"/>
      <point x="544" y="-350"/>
      <point x="544" y="-255" type="curve" smooth="yes"/>
      <point x="544" y="-183"/>
      <point x="592" y="-95"/>
      <point x="700" y="0" type="curve"/>
      <point x="725" y="125" type="line"/>
      <point x="636" y="21"/>
      <point x="517" y="-29"/>
      <point x="381" y="-29" type="curve" smooth="yes"/>
      <point x="277" y="-29"/>
      <point x="195" y="1"/>
      <point x="137" y="57" type="curve" smooth="yes"/>
      <point x="79" y="113"/>
      <point x="47" y="195"/>
      <point x="47" y="302" type="curve" smooth="yes"/>
      <point x="47" y="439"/>
      <point x="101" y="548"/>
      <point x="203" y="623" type="curve" smooth="yes"/>
      <point x="305" y="698"/>
      <point x="455" y="737"/>
      <point x="651" y="737" type="curve" smooth="yes"/>
      <point x="844" y="737" type="line"/>
      <point x="852" y="786" type="line"/>
      <point x="853" y="794"/>
      <point x="854" y="800"/>
      <point x="854" y="811" type="curve" smooth="yes"/>
      <point x="854" y="891"/>
      <point x="785" y="932"/>
      <point x="661" y="932" type="curve" smooth="yes"/>
      <point x="544" y="932"/>
      <point x="411" y="896"/>
      <point x="248" y="819" type="curve"/>
      <point x="295" y="1069" type="line"/>
      <point x="379" y="1097"/>
      <point x="450" y="1117"/>
      <point x="518" y="1130" type="curve" smooth="yes"/>
      <point x="585" y="1142"/>
      <point x="646" y="1147"/>
      <point x="709" y="1147" type="curve" smooth="yes"/>
    </contour>
    <contour>
      <point x="576" y="172"/>
      <point x="642" y="205"/>
      <point x="694" y="266" type="curve" smooth="yes"/>
      <point x="746" y="327"/>
      <point x="784" y="417"/>
      <point x="803" y="530" type="curve"/>
      <point x="690" y="530" type="line" smooth="yes"/>
      <point x="466" y="530"/>
      <point x="352" y="462"/>
      <point x="352" y="325" type="curve" smooth="yes"/>
      <point x="352" y="229"/>
      <point x="408" y="172"/>
      <point x="504" y="172" type="curve" smooth="yes"/>
    </contour>
  </outline>
</glyph>
<glyph name="cdotaccent" format="1">
  <advance width="1233"/>
  <unicode hex="010B"/>
  <note>
	cdotaccent
  </note>
  <outline>
    <contour>
      <point x="677" y="1347" type="line" smooth="yes"/>
      <point x="656" y="1347"/>
      <point x="647" y="1360"/>
      <point x="651" y="1380" type="curve" smooth="yes"/>
      <point x="688" y="1566" type="line" smooth="yes"/>
      <point x="691" y="1584"/>
      <point x="701" y="1593"/>
      <point x="720" y="1593" type="curve" smooth="yes"/>
      <point x="932" y="1593" type="line" smooth="yes"/>
      <point x="952" y="1593"/>
      <point x="963" y="1580"/>
      <point x="959" y="1560" type="curve" smooth="yes"/>
      <point x="923" y="1374" type="line" smooth="yes"/>
      <point x="920" y="1356"/>
      <point x="909" y="1347"/>
      <point x="891" y="1347" type="curve" smooth="yes"/>
    </contour>
    <contour>
      <point x="457" y="-29"/>
      <point x="337" y="12"/>
      <point x="254" y="93" type="curve" smooth="yes"/>
      <point x="170" y="174"/>
      <point x="125" y="296"/>
      <point x="125" y="457" type="curve" smooth="yes"/>
      <point x="125" y="653"/>
      <point x="192" y="825"/>
      <point x="309" y="949" type="curve" smooth="yes"/>
      <point x="426" y="1072"/>
      <point x="594" y="1147"/>
      <point x="795" y="1147" type="curve" smooth="yes"/>
      <point x="916" y="1147"/>
      <point x="1031" y="1120"/>
      <point x="1132" y="1063" type="curve"/>
      <point x="1079" y="795" type="line"/>
      <point x="999" y="871"/>
      <point x="908" y="909"/>
      <point x="805" y="909" type="curve" smooth="yes"/>
      <point x="690" y="909"/>
      <point x="595" y="863"/>
      <point x="528" y="785" type="curve" smooth="yes"/>
      <point x="460" y="707"/>
      <point x="421" y="597"/>
      <point x="421" y="472" type="curve" smooth="yes"/>
      <point x="421" y="291"/>
      <point x="500" y="209"/>
      <point x="661" y="209" type="curve" smooth="yes"/>
      <point x="760" y="209"/>
      <point x="858" y="240"/>
      <point x="987" y="313" type="curve"/>
      <point x="931" y="37" type="line"/>
      <point x="828" y="-7"/>
      <point x="720" y="-29"/>
      <point x="608" y="-29" type="curve" smooth="yes"/>
    </contour>
  </outline>
</glyph>
<glyph name="dcaron" format="1">
  <advance width="1233"/>
  <unicode hex="010F"/>
  <note>
	dcaron
  </note>
  <outline>
    <contour>
      <point x="285" y="-29"/>
      <point x="206" y="9"/>
      <point x="151" y="81" type="curve" smooth="yes"/>
      <point x="96" y="152"/>
      <point x="66" y="257"/>
      <point x="66" y="393" type="curve" smooth="yes"/>
      <point x="66" y="478"/>
      <point x="78" y="566"/>
      <point x="99" y="649" type="curve" smooth="yes"/>
      <point x="120" y="732"/>
      <point x="150" y="809"/>
      <point x="185" y="873" type="curve" smooth="yes"/>
      <point x="282" y="1054"/>
      <point x="423" y="1149"/>
      <point x="579" y="1149" type="curve" smooth="yes"/>
      <point x="656" y="1149"/>
      <point x="720" y="1126"/>
      <point x="768" y="1084" type="curve" smooth="yes"/>
      <point x="815" y="1042"/>
      <point x="845" y="983"/>
      <point x="854" y="911" type="curve"/>
      <point x="979" y="1556" type="line"/>
      <point x="1272" y="1556" type="line"/>
      <point x="969" y="0" type="line"/>
      <point x="707" y="0" type="line"/>
      <point x="709" y="166" type="line"/>
      <point x="621" y="37"/>
      <point x="511" y="-29"/>
      <point x="382" y="-29" type="curve" smooth="yes"/>
    </contour>
    <contour>
      <point x="1333" y="1556" type="line"/>
      <point x="1654" y="1556" type="line"/>
      <point x="1397" y="1180" type="line"/>
      <point x="1200" y="1180" type="line"/>
    </contour>
    <contour>
      <point x="597" y="211"/>
      <point x="668" y="270"/>
      <point x="719" y="356" type="curve" smooth="yes"/>
      <point x="770" y="442"/>
      <point x="799" y="556"/>
      <point x="799" y="667" type="curve" smooth="yes"/>
      <point x="799" y="831"/>
      <point x="734" y="909"/>
      <point x="639" y="909" type="curve" smooth="yes"/>
      <point x="555" y="909"/>
      <point x="486" y="847"/>
      <point x="438" y="759" type="curve" smooth="yes"/>
      <point x="389" y="670"/>
      <point x="362" y="552"/>
      <point x="362" y="443" type="curve" smooth="yes"/>
      <point x="362" y="282"/>
      <point x="421" y="211"/>
      <point x="513" y="211" type="curve" smooth="yes"/>
    </contour>
  </outline>
</glyph>
<glyph name="edotaccent" format="1">
  <advance width="1233"/>
  <unicode hex="0117"/>
  <note>
	edotaccent
  </note>
  <outline>
    <contour>
      <point x="636" y="1349" type="line" smooth="yes"/>
      <point x="615" y="1349"/>
      <point x="606" y="1362"/>
      <point x="610" y="1382" type="curve" smooth="yes"/>
      <point x="647" y="1568" type="line" smooth="yes"/>
      <point x="650" y="1586"/>
      <point x="660" y="1595"/>
      <point x="679" y="1595" type="curve" smooth="yes"/>
      <point x="891" y="1595" type="line" smooth="yes"/>
      <point x="911" y="1595"/>
      <point x="922" y="1582"/>
      <point x="918" y="1562" type="curve" smooth="yes"/>
      <point x="882" y="1376" type="line" smooth="yes"/>
      <point x="879" y="1358"/>
      <point x="868" y="1349"/>
      <point x="850" y="1349" type="curve" smooth="yes"/>
    </contour>
    <contour>
      <point x="249" y="-29"/>
      <point x="76" y="127"/>
      <point x="76" y="440" type="curve" smooth="yes"/>
      <point x="76" y="531"/>
      <point x="91" y="622"/>
      <point x="119" y="707" type="curve" smooth="yes"/>
      <point x="147" y="792"/>
      <point x="189" y="871"/>
      <point x="244" y="938" type="curve" smooth="yes"/>
      <point x="357" y="1075"/>
      <point x="513" y="1149"/>
      <point x="696" y="1149" type="curve" smooth="yes"/>
      <point x="835" y="1149"/>
      <point x="949" y="1105"/>
      <point x="1029" y="1029" type="curve" smooth="yes"/>
      <point x="1109" y="952"/>
      <point x="1155" y="841"/>
      <point x="1155" y="708" type="curve" smooth="yes"/>
      <point x="1155" y="652"/>
      <point x="1147" y="577"/>
      <point x="1128" y="465" type="curve"/>
      <point x="369" y="465" type="line"/>
      <point x="365" y="442"/>
      <point x="363" y="423"/>
      <point x="362" y="403" type="curve"/>
      <point x="362" y="270"/>
      <point x="451" y="203"/>
      <point x="630" y="203" type="curve" smooth="yes"/>
      <point x="771" y="203"/>
      <point x="919" y="244"/>
      <point x="1044" y="324" type="curve"/>
      <point x="993" y="55" type="line"/>
      <point x="865" y="-1"/>
      <point x="727" y="-29"/>
      <point x="586" y="-29" type="curve" smooth="yes"/>
    </contour>
    <contour>
      <point x="876" y="684" type="line"/>
      <point x="881" y="702"/>
      <point x="883" y="720"/>
      <point x="883" y="739" type="curve" smooth="yes"/>
      <point x="883" y="851"/>
      <point x="812" y="920"/>
      <point x="689" y="920" type="curve" smooth="yes"/>
      <point x="560" y="920"/>
      <point x="463" y="841"/>
      <point x="410" y="684" type="curve"/>
    </contour>
  </outline>
</glyph>
<glyph name="Eogonek" format="1">
  <advance width="1233"/>
  <unicode hex="0118"/>
  <note>
	Eogonek
  </note>
  <outline>
    <contour>
      <point x="563" y="1233" type="line"/>
      <point x="500" y="911" type="line"/>
      <point x="1075" y="911" type="line"/>
      <point x="1026" y="651" type="line"/>
      <point x="451" y="651" type="line"/>
      <point x="375" y="260" type="line"/>
      <point x="1010" y="260" type="line"/>
      <point x="958" y="0" type="line"/>
      <point x="828" y="0" type="line"/>
      <point x="778" y="-53"/>
      <point x="745" y="-92"/>
      <point x="729" y="-117" type="curve" smooth="yes"/>
      <point x="713" y="-142"/>
      <point x="705" y="-162"/>
      <point x="705" y="-182" type="curve" smooth="yes"/>
      <point x="705" y="-221"/>
      <point x="736" y="-254"/>
      <point x="805" y="-254" type="curve" smooth="yes"/>
      <point x="841" y="-254"/>
      <point x="898" y="-246"/>
      <point x="961" y="-223" type="curve"/>
      <point x="930" y="-379" type="line"/>
      <point x="865" y="-394"/>
      <point x="802" y="-401"/>
      <point x="751" y="-401" type="curve" smooth="yes"/>
      <point x="614" y="-401"/>
      <point x="531" y="-350"/>
      <point x="531" y="-255" type="curve" smooth="yes"/>
      <point x="531" y="-183"/>
      <point x="579" y="-95"/>
      <point x="687" y="0" type="curve"/>
      <point x="29" y="0" type="line"/>
      <point x="317" y="1493" type="line"/>
      <point x="1249" y="1493" type="line"/>
      <point x="1198" y="1233" type="line"/>
    </contour>
  </outline>
</glyph>
<glyph name="eogonek" format="1">
  <advance width="1233"/>
  <unicode hex="0119"/>
  <note>
	eogonek
  </note>
  <outline>
    <contour>
      <point x="369" y="465" type="line"/>
      <point x="365" y="442"/>
      <point x="363" y="423"/>
      <point x="362" y="403" type="curve"/>
      <point x="362" y="270"/>
      <point x="451" y="203"/>
      <point x="630" y="203" type="curve" smooth="yes"/>
      <point x="771" y="203"/>
      <point x="919" y="244"/>
      <point x="1044" y="324" type="curve"/>
      <point x="993" y="55" type="line"/>
      <point x="940" y="32"/>
      <point x="885" y="13"/>
      <point x="829" y="0" type="curve"/>
      <point x="779" y="-53"/>
      <point x="746" y="-92"/>
      <point x="730" y="-117" type="curve" smooth="yes"/>
      <point x="714" y="-142"/>
      <point x="706" y="-162"/>
      <point x="706" y="-182" type="curve" smooth="yes"/>
      <point x="706" y="-221"/>
      <point x="737" y="-254"/>
      <point x="806" y="-254" type="curve" smooth="yes"/>
      <point x="842" y="-254"/>
      <point x="899" y="-246"/>
      <point x="962" y="-223" type="curve"/>
      <point x="931" y="-379" type="line"/>
      <point x="866" y="-394"/>
      <point x="803" y="-401"/>
      <point x="752" y="-401" type="curve" smooth="yes"/>
      <point x="615" y="-401"/>
      <point x="532" y="-350"/>
      <point x="532" y="-255" type="curve" smooth="yes"/>
      <point x="532" y="-190"/>
      <point x="571" y="-111"/>
      <point x="659" y="-26" type="curve"/>
      <point x="635" y="-28"/>
      <point x="611" y="-29"/>
      <point x="586" y="-29" type="curve" smooth="yes"/>
      <point x="249" y="-29"/>
      <point x="76" y="127"/>
      <point x="76" y="440" type="curve" smooth="yes"/>
      <point x="76" y="531"/>
      <point x="91" y="622"/>
      <point x="119" y="707" type="curve" smooth="yes"/>
      <point x="147" y="792"/>
      <point x="189" y="871"/>
      <point x="244" y="938" type="curve" smooth="yes"/>
      <point x="357" y="1075"/>
      <point x="513" y="1149"/>
      <point x="696" y="1149" type="curve" smooth="yes"/>
      <point x="835" y="1149"/>
      <point x="949" y="1105"/>
      <point x="1029" y="1029" type="curve" smooth="yes"/>
      <point x="1109" y="952"/>
      <point x="1155" y="841"/>
      <point x="1155" y="708" type="curve" smooth="yes"/>
      <point x="1155" y="652"/>
      <point x="1147" y="577"/>
      <point x="1128" y="465" type="curve"/>
    </contour>
    <contour>
      <point x="560" y="920"/>
      <point x="463" y="841"/>
      <point x="410" y="684" type="curve"/>
      <point x="876" y="684" type="line"/>
      <point x="881" y="702"/>
      <point x="883" y="720"/>
      <point x="883" y="739" type="curve" smooth="yes"/>
      <point x="883" y="851"/>
      <point x="812" y="920"/>
      <point x="689" y="920" type="curve" smooth="yes"/>
    </contour>
  </outline>
</glyph>
<glyph name="Gdotaccent" format="1">
  <advance width="1233"/>
  <unicode hex="0120"/>
  <note>
	Gdotaccent
  </note>
  <outline>
    <contour>
      <point x="738" y="1607" type="line" smooth="yes"/>
      <point x="717" y="1607"/>
      <point x="707" y="1620"/>
      <point x="711" y="1640" type="curve" smooth="yes"/>
      <point x="748" y="1826" type="line" smooth="yes"/>
      <point x="751" y="1844"/>
      <point x="761" y="1853"/>
      <point x="780" y="1853" type="curve" smooth="yes"/>
      <point x="995" y="1853" type="line" smooth="yes"/>
      <point x="1016" y="1853"/>
      <point x="1026" y="1840"/>
      <point x="1022" y="1820" type="curve" smooth="yes"/>
      <point x="985" y="1634" type="line" smooth="yes"/>
      <point x="982" y="1616"/>
      <point x="971" y="1607"/>
      <point x="953" y="1607" type="curve" smooth="yes"/>
    </contour>
    <contour>
      <point x="449" y="-29"/>
      <point x="322" y="20"/>
      <point x="235" y="115" type="curve" smooth="yes"/>
      <point x="148" y="210"/>
      <point x="102" y="350"/>
      <point x="102" y="533" type="curve" smooth="yes"/>
      <point x="102" y="669"/>
      <point x="128" y="814"/>
      <point x="174" y="947" type="curve" smooth="yes"/>
      <point x="220" y="1079"/>
      <point x="286" y="1202"/>
      <point x="367" y="1294" type="curve" smooth="yes"/>
      <point x="499" y="1443"/>
      <point x="674" y="1520"/>
      <point x="875" y="1520" type="curve" smooth="yes"/>
      <point x="987" y="1520"/>
      <point x="1088" y="1496"/>
      <point x="1192" y="1448" type="curve"/>
      <point x="1126" y="1120" type="line"/>
      <point x="1058" y="1209"/>
      <point x="964" y="1257"/>
      <point x="857" y="1257" type="curve" smooth="yes"/>
      <point x="764" y="1257"/>
      <point x="676" y="1221"/>
      <point x="604" y="1141" type="curve" smooth="yes"/>
      <point x="545" y="1077"/>
      <point x="504" y="991"/>
      <point x="469" y="891" type="curve" smooth="yes"/>
      <point x="449" y="834"/>
      <point x="433" y="771"/>
      <point x="422" y="709" type="curve" smooth="yes"/>
      <point x="410" y="647"/>
      <point x="403" y="586"/>
      <point x="403" y="533" type="curve" smooth="yes"/>
      <point x="403" y="338"/>
      <point x="492" y="231"/>
      <point x="645" y="231" type="curve" smooth="yes"/>
      <point x="695" y="231"/>
      <point x="737" y="242"/>
      <point x="770" y="264" type="curve"/>
      <point x="827" y="555" type="line"/>
      <point x="621" y="555" type="line"/>
      <point x="670" y="803" type="line"/>
      <point x="1130" y="803" type="line"/>
      <point x="991" y="94" type="line"/>
      <point x="898" y="14"/>
      <point x="763" y="-29"/>
      <point x="610" y="-29" type="curve" smooth="yes"/>
    </contour>
  </outline>
</glyph>
<glyph name="Hbar" format="1">
  <advance width="1233"/>
  <unicode hex="0126"/>
  <note>
	Hbar
  </note>
  <outline>
    <contour>
      <point x="207" y="1105" type="line"/>
      <point x="73" y="1105" type="line"/>
      <point x="105" y="1269" type="line"/>
      <point x="239" y="1269" type="line"/>
      <point x="282" y="1493" type="line"/>
      <point x="577" y="1493" type="line"/>
      <point x="534" y="1269" type="line"/>
      <point x="903" y="1269" type="line"/>
      <point x="946" y="1493" type="line"/>
      <point x="1240" y="1493" type="line"/>
      <point x="1197" y="1269" type="line"/>
      <point x="1332" y="1269" type="line"/>
      <point x="1300" y="1105" type="line"/>
      <point x="1165" y="1105" type="line"/>
      <point x="950" y="0" type="line"/>
      <point x="656" y="0" type="line"/>
      <point x="785" y="664" type="line"/>
      <point x="416" y="664" type="line"/>
      <point x="287" y="0" type="line"/>
      <point x="-8" y="0" type="line"/>
    </contour>
    <contour>
      <point x="836" y="924" type="line"/>
      <point x="871" y="1105" type="line"/>
      <point x="502" y="1105" type="line"/>
      <point x="467" y="924" type="line"/>
    </contour>
  </outline>
</glyph>
<glyph name="Idotaccent" format="1">
  <advance width="1233"/>
  <unicode hex="0130"/>
  <note>
	Idotaccent
  </note>
  <outline>
    <contour>
      <point x="674" y="1607" type="line" smooth="yes"/>
      <point x="654" y="1607"/>
      <point x="643" y="1620"/>
      <point x="647" y="1640" type="curve" smooth="yes"/>
      <point x="683" y="1826" type="line" smooth="yes"/>
      <point x="686" y="1844"/>
      <point x="696" y="1853"/>
      <point x="715" y="1853" type="curve" smooth="yes"/>
      <point x="929" y="1853" type="line" smooth="yes"/>
      <point x="949" y="1853"/>
      <point x="960" y="1840"/>
      <point x="956" y="1820" type="curve" smooth="yes"/>
      <point x="920" y="1634" type="line" smooth="yes"/>
      <point x="917" y="1616"/>
      <point x="906" y="1607"/>
      <point x="888" y="1607" type="curve" smooth="yes"/>
    </contour>
    <contour>
      <point x="78" y="260" type="line"/>
      <point x="375" y="260" type="line"/>
      <point x="563" y="1233" type="line"/>
      <point x="266" y="1233" type="line"/>
      <point x="317" y="1493" type="line"/>
      <point x="1206" y="1493" type="line"/>
      <point x="1155" y="1233" type="line"/>
      <point x="858" y="1233" type="line"/>
      <point x="670" y="260" type="line"/>
      <point x="967" y="260" type="line"/>
      <point x="915" y="0" type="line"/>
      <point x="27" y="0" type="line"/>
    </contour>
  </outline>
</glyph>
<glyph name="dotlessi" format="1">
  <advance width="1233"/>
  <unicode hex="0131"/>
  <note>
	dotlessi
  </note>
  <outline>
    <contour>
      <point x="589" y="-8"/>
      <point x="499" y="10"/>
      <point x="442" y="49" type="curve" smooth="yes"/>
      <point x="379" y="90"/>
      <point x="357" y="152"/>
      <point x="357" y="229" type="curve" smooth="yes"/>
      <point x="357" y="252"/>
      <point x="359" y="269"/>
      <point x="362" y="292" type="curve" smooth="yes"/>
      <point x="366" y="323"/>
      <point x="369" y="340"/>
      <point x="376" y="371" type="curve" smooth="yes"/>
      <point x="496" y="895" type="line"/>
      <point x="260" y="895" type="line"/>
      <point x="303" y="1120" type="line"/>
      <point x="831" y="1120" type="line"/>
      <point x="665" y="357" type="line" smooth="yes"/>
      <point x="663" y="349"/>
      <point x="662" y="343"/>
      <point x="661" y="340" type="curve"/>
      <point x="660" y="336"/>
      <point x="660" y="333"/>
      <point x="660" y="332" type="curve" smooth="yes"/>
      <point x="660" y="330"/>
      <point x="660" y="328"/>
      <point x="660" y="327" type="curve" smooth="yes"/>
      <point x="660" y="326"/>
      <point x="660" y="324"/>
      <point x="659" y="321" type="curve"/>
      <point x="656" y="310"/>
      <point x="656" y="303"/>
      <point x="656" y="295" type="curve" smooth="yes"/>
      <point x="656" y="272"/>
      <point x="664" y="251"/>
      <point x="687" y="236" type="curve" smooth="yes"/>
      <point x="708" y="223"/>
      <point x="744" y="217"/>
      <point x="796" y="217" type="curve" smooth="yes"/>
      <point x="1074" y="217" type="line"/>
      <point x="1029" y="-8" type="line"/>
      <point x="732" y="-8" type="line" smooth="yes"/>
    </contour>
  </outline>
</glyph>
<glyph name="IJ" format="1">
  <advance width="1233"/>
  <unicode hex="0132"/>
  <outline>
    <contour>
      <point x="316" y="1493" type="line"/>
      <point x="611" y="1493" type="line"/>
      <point x="435" y="590" type="line"/>
      <point x="140" y="590" type="line"/>
    </contour>
    <contour>
      <point x="26" y="0" type="line"/>
      <point x="83" y="295" type="line"/>
      <point x="457" y="295" type="line"/>
      <point x="620" y="295"/>
      <point x="778" y="427"/>
      <point x="809" y="590" type="curve"/>
      <point x="985" y="1494" type="line"/>
      <point x="1279" y="1494" type="line"/>
      <point x="1104" y="590" type="line"/>
      <point x="1041" y="264"/>
      <point x="726" y="0"/>
      <point x="400" y="0" type="curve"/>
    </contour>
  </outline>
</glyph>
<glyph name="ij" format="1">
  <advance width="1233"/>
  <unicode hex="0133"/>
  <outline>
    <contour>
      <point x="290" y="1253" type="line" smooth="yes"/>
      <point x="270" y="1253"/>
      <point x="262" y="1263"/>
      <point x="266" y="1283" type="curve" smooth="yes"/>
      <point x="321" y="1565" type="line" smooth="yes"/>
      <point x="325" y="1585"/>
      <point x="337" y="1595"/>
      <point x="357" y="1595" type="curve" smooth="yes"/>
      <point x="590" y="1595" type="line" smooth="yes"/>
      <point x="610" y="1595"/>
      <point x="618" y="1585"/>
      <point x="614" y="1565" type="curve" smooth="yes"/>
      <point x="559" y="1283" type="line" smooth="yes"/>
      <point x="555" y="1263"/>
      <point x="543" y="1253"/>
      <point x="523" y="1253" type="curve" smooth="yes"/>
    </contour>
    <contour>
      <point x="978" y="1253" type="line" smooth="yes"/>
      <point x="958" y="1253"/>
      <point x="950" y="1263"/>
      <point x="954" y="1283" type="curve" smooth="yes"/>
      <point x="1009" y="1565" type="line" smooth="yes"/>
      <point x="1013" y="1585"/>
      <point x="1025" y="1595"/>
      <point x="1045" y="1595" type="curve" smooth="yes"/>
      <point x="1278" y="1595" type="line" smooth="yes"/>
      <point x="1298" y="1595"/>
      <point x="1306" y="1585"/>
      <point x="1302" y="1565" type="curve" smooth="yes"/>
      <point x="1247" y="1283" type="line" smooth="yes"/>
      <point x="1243" y="1263"/>
      <point x="1231" y="1253"/>
      <point x="1211" y="1253" type="curve" smooth="yes"/>
    </contour>
    <contour>
      <point x="234" y="1120" type="line"/>
      <point x="527" y="1120" type="line"/>
      <point x="310" y="0" type="line"/>
      <point x="17" y="0" type="line"/>
    </contour>
    <contour>
      <point x="284" y="-131" type="line"/>
      <point x="547" y="-131" type="line" smooth="yes"/>
      <point x="622" y="-131"/>
      <point x="690" y="-72"/>
      <point x="704" y="0" type="curve" smooth="yes"/>
      <point x="921" y="1120" type="line"/>
      <point x="1216" y="1120" type="line"/>
      <point x="999" y="0" type="line" smooth="yes"/>
      <point x="953" y="-234"/>
      <point x="724" y="-426"/>
      <point x="490" y="-426" type="curve" smooth="yes"/>
      <point x="227" y="-426" type="line"/>
    </contour>
  </outline>
</glyph>
<glyph name="jcircumflex" format="1">
  <advance width="1233"/>
  <unicode hex="0135"/>
  <note>
	jcircumflex
  </note>
  <outline>
    <contour>
      <point x="804" y="1673" type="line"/>
      <point x="1045" y="1673" type="line"/>
      <point x="1228" y="1297" type="line"/>
      <point x="1050" y="1297" type="line"/>
      <point x="895" y="1522" type="line"/>
      <point x="653" y="1297" type="line"/>
      <point x="475" y="1297" type="line"/>
    </contour>
    <contour>
      <point x="20" y="-199" type="line"/>
      <point x="254" y="-199" type="line" smooth="yes"/>
      <point x="343" y="-199"/>
      <point x="400" y="-168"/>
      <point x="437" y="-99" type="curve" smooth="yes"/>
      <point x="455" y="-65"/>
      <point x="470" y="-18"/>
      <point x="482" y="43" type="curve" smooth="yes"/>
      <point x="647" y="895" type="line"/>
      <point x="350" y="895" type="line"/>
      <point x="394" y="1120" type="line"/>
      <point x="984" y="1120" type="line"/>
      <point x="775" y="43" type="line" smooth="yes"/>
      <point x="731" y="-180"/>
      <point x="655" y="-314"/>
      <point x="529" y="-377" type="curve" smooth="yes"/>
      <point x="466" y="-408"/>
      <point x="387" y="-424"/>
      <point x="293" y="-424" type="curve" smooth="yes"/>
      <point x="-23" y="-424" type="line"/>
    </contour>
  </outline>
</glyph>
<glyph name="uni0137" format="1">
  <advance width="1233"/>
  <unicode hex="0137"/>
  <note>
	uni0137
  </note>
  <outline>
    <contour>
      <point x="363" y="1556" type="line"/>
      <point x="656" y="1556" type="line"/>
      <point x="504" y="774" type="line"/>
      <point x="908" y="1120" type="line"/>
      <point x="1278" y="1120" type="line"/>
      <point x="773" y="702" type="line"/>
      <point x="1086" y="0" type="line"/>
      <point x="775" y="0" type="line"/>
      <point x="553" y="524" type="line"/>
      <point x="437" y="428" type="line"/>
      <point x="355" y="0" type="line"/>
      <point x="62" y="0" type="line"/>
    </contour>
    <contour>
      <point x="454" y="-158" type="line"/>
      <point x="736" y="-158" type="line"/>
      <point x="500" y="-464" type="line"/>
      <point x="306" y="-464" type="line"/>
    </contour>
  </outline>
</glyph>
<glyph name="lcaron" format="1">
  <advance width="1233"/>
  <unicode hex="013E"/>
  <note>
	lcaron
  </note>
  <outline>
    <contour>
      <point x="690" y="-10" type="line" smooth="yes"/>
      <point x="557" y="-10"/>
      <point x="463" y="8"/>
      <point x="403" y="45" type="curve" smooth="yes"/>
      <point x="342" y="82"/>
      <point x="315" y="140"/>
      <point x="315" y="223" type="curve" smooth="yes"/>
      <point x="315" y="262"/>
      <point x="321" y="306"/>
      <point x="334" y="369" type="curve" smooth="yes"/>
      <point x="537" y="1331" type="line"/>
      <point x="231" y="1331" type="line"/>
      <point x="274" y="1556" type="line"/>
      <point x="872" y="1556" type="line"/>
      <point x="623" y="355" type="line" smooth="yes"/>
      <point x="617" y="325"/>
      <point x="614" y="303"/>
      <point x="614" y="289" type="curve" smooth="yes"/>
      <point x="614" y="233"/>
      <point x="663" y="215"/>
      <point x="754" y="215" type="curve" smooth="yes"/>
      <point x="1032" y="215" type="line"/>
      <point x="987" y="-10" type="line"/>
    </contour>
    <contour>
      <point x="990" y="1556" type="line"/>
      <point x="1311" y="1556" type="line"/>
      <point x="1054" y="1180" type="line"/>
      <point x="857" y="1180" type="line"/>
    </contour>
  </outline>
</glyph>
<glyph name="Ldot" format="1">
  <advance width="1233"/>
  <unicode hex="013F"/>
  <outline>
    <contour>
      <point x="370" y="1493" type="line"/>
      <point x="665" y="1493" type="line"/>
      <point x="426" y="260" type="line"/>
      <point x="1057" y="260" type="line"/>
      <point x="1006" y="0" type="line"/>
      <point x="80" y="0" type="line"/>
    </contour>
    <contour>
      <point x="672" y="445"/>
      <point x="591" y="540"/>
      <point x="618" y="679" type="curve" smooth="yes"/>
      <point x="645" y="818"/>
      <point x="763" y="914"/>
      <point x="889" y="914" type="curve" smooth="yes"/>
      <point x="1015" y="914"/>
      <point x="1095" y="818"/>
      <point x="1068" y="679" type="curve" smooth="yes"/>
      <point x="1041" y="540"/>
      <point x="924" y="445"/>
      <point x="798" y="445" type="curve" smooth="yes"/>
    </contour>
  </outline>
</glyph>
<glyph name="ldot" format="1">
  <advance width="1233"/>
  <unicode hex="0140"/>
  <outline>
    <contour>
      <point x="339" y="-8"/>
      <point x="252" y="123"/>
      <point x="317" y="459" type="curve" smooth="yes"/>
      <point x="487" y="1331" type="line"/>
      <point x="190" y="1331" type="line"/>
      <point x="234" y="1556" type="line"/>
      <point x="824" y="1556" type="line"/>
      <point x="610" y="459" type="line" smooth="yes"/>
      <point x="576" y="284"/>
      <point x="611" y="217"/>
      <point x="743" y="217" type="curve" smooth="yes"/>
      <point x="977" y="217" type="line"/>
      <point x="934" y="-8" type="line"/>
      <point x="618" y="-8" type="line" smooth="yes"/>
    </contour>
    <contour>
      <point x="818" y="656" type="line" smooth="yes"/>
      <point x="798" y="656"/>
      <point x="790" y="666"/>
      <point x="793" y="686" type="curve" smooth="yes"/>
      <point x="830" y="872" type="line" smooth="yes"/>
      <point x="834" y="892"/>
      <point x="845" y="902"/>
      <point x="865" y="902" type="curve" smooth="yes"/>
      <point x="1080" y="902" type="line" smooth="yes"/>
      <point x="1100" y="902"/>
      <point x="1109" y="892"/>
      <point x="1105" y="872" type="curve" smooth="yes"/>
      <point x="1068" y="686" type="line" smooth="yes"/>
      <point x="1065" y="666"/>
      <point x="1053" y="656"/>
      <point x="1033" y="656" type="curve" smooth="yes"/>
    </contour>
  </outline>
</glyph>
<glyph name="Lslash" format="1">
  <advance width="1233"/>
  <unicode hex="0141"/>
  <note>
	Lslash
  </note>
  <outline>
    <contour>
      <point x="176" y="502" type="line"/>
      <point x="45" y="403" type="line"/>
      <point x="-70" y="557" type="line"/>
      <point x="229" y="768" type="line"/>
      <point x="371" y="1493" type="line"/>
      <point x="666" y="1493" type="line"/>
      <point x="571" y="1012" type="line"/>
      <point x="821" y="1186" type="line"/>
      <point x="936" y="1032" type="line"/>
      <point x="518" y="737" type="line"/>
      <point x="426" y="260" type="line"/>
      <point x="1057" y="260" type="line"/>
      <point x="1006" y="0" type="line"/>
      <point x="80" y="0" type="line"/>
    </contour>
  </outline>
</glyph>
<glyph name="Ncaron" format="1">
  <advance width="1233"/>
  <unicode hex="0147"/>
  <note>
	Ncaron
  </note>
  <outline>
    <contour>
      <point x="487" y="1852" type="line"/>
      <point x="657" y="1852" type="line"/>
      <point x="806" y="1690" type="line"/>
      <point x="1035" y="1852" type="line"/>
      <point x="1216" y="1852" type="line"/>
      <point x="972" y="1588" type="line"/>
      <point x="624" y="1588" type="line"/>
    </contour>
    <contour>
      <point x="266" y="1493" type="line"/>
      <point x="569" y="1493" type="line"/>
      <point x="784" y="408" type="line"/>
      <point x="995" y="1493" type="line"/>
      <point x="1255" y="1493" type="line"/>
      <point x="967" y="0" type="line"/>
      <point x="674" y="0" type="line"/>
      <point x="449" y="1085" type="line"/>
      <point x="238" y="0" type="line"/>
      <point x="-25" y="0" type="line"/>
    </contour>
  </outline>
</glyph>
<glyph name="napostrophe" format="1">
  <advance width="1233"/>
  <unicode hex="0149"/>
  <outline>
    <contour>
      <point x="188" y="1286" type="line"/>
      <point x="241" y="1556" type="line"/>
      <point x="555" y="1556" type="line"/>
      <point x="502" y="1286" type="line"/>
      <point x="231" y="903" type="line"/>
      <point x="16" y="903" type="line"/>
    </contour>
    <contour>
      <point x="442" y="1120" type="line"/>
      <point x="704" y="1120" type="line"/>
      <point x="700" y="952" type="line"/>
      <point x="767" y="1076"/>
      <point x="883" y="1147"/>
      <point x="1026" y="1147" type="curve" smooth="yes"/>
      <point x="1237" y="1147"/>
      <point x="1318" y="1004"/>
      <point x="1265" y="727" type="curve" smooth="yes"/>
      <point x="1123" y="0" type="line"/>
      <point x="832" y="0" type="line"/>
      <point x="965" y="682" type="line" smooth="yes"/>
      <point x="981" y="764"/>
      <point x="981" y="822"/>
      <point x="965" y="857" type="curve" smooth="yes"/>
      <point x="949" y="892"/>
      <point x="913" y="909"/>
      <point x="865" y="909" type="curve" smooth="yes"/>
      <point x="808" y="909"/>
      <point x="764" y="885"/>
      <point x="724" y="838" type="curve" smooth="yes"/>
      <point x="686" y="793"/>
      <point x="658" y="733"/>
      <point x="640" y="641" type="curve" smooth="yes"/>
      <point x="515" y="0" type="line"/>
      <point x="224" y="0" type="line"/>
    </contour>
  </outline>
</glyph>
<glyph name="eng" format="1">
  <advance width="1233"/>
  <unicode hex="014B"/>
  <note>
	eng
  </note>
  <outline>
    <contour>
      <point x="419" y="-199" type="line"/>
      <point x="458" y="-199" type="line" smooth="yes"/>
      <point x="523" y="-199"/>
      <point x="572" y="-183"/>
      <point x="609" y="-145" type="curve" smooth="yes"/>
      <point x="645" y="-107"/>
      <point x="670" y="-46"/>
      <point x="687" y="43" type="curve" smooth="yes"/>
      <point x="811" y="682" type="line" smooth="yes"/>
      <point x="819" y="723"/>
      <point x="823" y="758"/>
      <point x="823" y="787" type="curve" smooth="yes"/>
      <point x="823" y="812"/>
      <point x="821" y="843"/>
      <point x="806" y="867" type="curve" smooth="yes"/>
      <point x="790" y="891"/>
      <point x="763" y="909"/>
      <point x="715" y="909" type="curve" smooth="yes"/>
      <point x="598" y="909"/>
      <point x="518" y="806"/>
      <point x="486" y="641" type="curve" smooth="yes"/>
      <point x="362" y="0" type="line"/>
      <point x="71" y="0" type="line"/>
      <point x="288" y="1120" type="line"/>
      <point x="550" y="1120" type="line"/>
      <point x="547" y="952" type="line"/>
      <point x="615" y="1081"/>
      <point x="732" y="1147"/>
      <point x="877" y="1147" type="curve" smooth="yes"/>
      <point x="981" y="1147"/>
      <point x="1043" y="1113"/>
      <point x="1080" y="1062" type="curve" smooth="yes"/>
      <point x="1116" y="1011"/>
      <point x="1127" y="943"/>
      <point x="1127" y="878" type="curve" smooth="yes"/>
      <point x="1127" y="833"/>
      <point x="1122" y="783"/>
      <point x="1111" y="727" type="curve" smooth="yes"/>
      <point x="978" y="43" type="line" smooth="yes"/>
      <point x="946" y="-125"/>
      <point x="895" y="-241"/>
      <point x="818" y="-316" type="curve" smooth="yes"/>
      <point x="741" y="-392"/>
      <point x="636" y="-424"/>
      <point x="496" y="-424" type="curve" smooth="yes"/>
      <point x="375" y="-424" type="line"/>
    </contour>
  </outline>
</glyph>
<glyph name="oe" format="1">
  <advance width="1233"/>
  <unicode hex="0153"/>
  <note>
	oe
  </note>
  <outline>
    <contour>
      <point x="200" y="-29"/>
      <point x="118" y="-2"/>
      <point x="62" y="54" type="curve" smooth="yes"/>
      <point x="9" y="107"/>
      <point x="-20" y="186"/>
      <point x="-20" y="309" type="curve" smooth="yes"/>
      <point x="-20" y="385"/>
      <point x="-9" y="490"/>
      <point x="12" y="595" type="curve" smooth="yes"/>
      <point x="35" y="707"/>
      <point x="64" y="802"/>
      <point x="99" y="881" type="curve" smooth="yes"/>
      <point x="138" y="969"/>
      <point x="185" y="1033"/>
      <point x="254" y="1080" type="curve" smooth="yes"/>
      <point x="321" y="1124"/>
      <point x="401" y="1147"/>
      <point x="485" y="1147" type="curve" smooth="yes"/>
      <point x="537" y="1147"/>
      <point x="587" y="1138"/>
      <point x="628" y="1117" type="curve" smooth="yes"/>
      <point x="669" y="1096"/>
      <point x="702" y="1063"/>
      <point x="725" y="1026" type="curve"/>
      <point x="789" y="1103"/>
      <point x="882" y="1147"/>
      <point x="993" y="1147" type="curve" smooth="yes"/>
      <point x="1082" y="1147"/>
      <point x="1149" y="1122"/>
      <point x="1193" y="1078" type="curve" smooth="yes"/>
      <point x="1240" y="1031"/>
      <point x="1262" y="962"/>
      <point x="1262" y="878" type="curve" smooth="yes"/>
      <point x="1262" y="843"/>
      <point x="1258" y="794"/>
      <point x="1254" y="761" type="curve" smooth="yes"/>
      <point x="1249" y="722"/>
      <point x="1240" y="662"/>
      <point x="1229" y="606" type="curve" smooth="yes"/>
      <point x="1206" y="479" type="line"/>
      <point x="756" y="479" type="line"/>
      <point x="753" y="462"/>
      <point x="750" y="446"/>
      <point x="749" y="433" type="curve"/>
      <point x="747" y="420"/>
      <point x="745" y="409"/>
      <point x="744" y="400" type="curve" smooth="yes"/>
      <point x="742" y="383"/>
      <point x="741" y="368"/>
      <point x="741" y="356" type="curve" smooth="yes"/>
      <point x="741" y="305"/>
      <point x="756" y="261"/>
      <point x="784" y="230" type="curve" smooth="yes"/>
      <point x="811" y="201"/>
      <point x="852" y="184"/>
      <point x="901" y="184" type="curve" smooth="yes"/>
      <point x="938" y="184"/>
      <point x="979" y="193"/>
      <point x="1024" y="212" type="curve" smooth="yes"/>
      <point x="1068" y="231"/>
      <point x="1108" y="253"/>
      <point x="1155" y="289" type="curve"/>
      <point x="1108" y="51" type="line"/>
      <point x="1032" y="-4"/>
      <point x="936" y="-29"/>
      <point x="835" y="-29" type="curve" smooth="yes"/>
      <point x="766" y="-29"/>
      <point x="715" y="-15"/>
      <point x="671" y="12" type="curve" smooth="yes"/>
      <point x="626" y="39"/>
      <point x="597" y="76"/>
      <point x="584" y="121" type="curve"/>
      <point x="551" y="70"/>
      <point x="510" y="34"/>
      <point x="463" y="9" type="curve" smooth="yes"/>
      <point x="415" y="-16"/>
      <point x="363" y="-29"/>
      <point x="296" y="-29" type="curve" smooth="yes"/>
    </contour>
    <contour>
      <point x="355" y="184"/>
      <point x="382" y="195"/>
      <point x="405" y="216" type="curve" smooth="yes"/>
      <point x="432" y="240"/>
      <point x="448" y="274"/>
      <point x="465" y="322" type="curve" smooth="yes"/>
      <point x="478" y="355"/>
      <point x="493" y="419"/>
      <point x="503" y="471" type="curve" smooth="yes"/>
      <point x="508" y="497"/>
      <point x="513" y="526"/>
      <point x="520" y="559" type="curve" smooth="yes"/>
      <point x="523" y="572"/>
      <point x="525" y="585"/>
      <point x="528" y="600" type="curve" smooth="yes"/>
      <point x="531" y="615"/>
      <point x="533" y="629"/>
      <point x="536" y="643" type="curve" smooth="yes"/>
      <point x="539" y="657"/>
      <point x="541" y="670"/>
      <point x="543" y="682" type="curve" smooth="yes"/>
      <point x="545" y="693"/>
      <point x="547" y="702"/>
      <point x="548" y="709" type="curve" smooth="yes"/>
      <point x="553" y="740"/>
      <point x="557" y="775"/>
      <point x="557" y="804" type="curve" smooth="yes"/>
      <point x="557" y="845"/>
      <point x="550" y="879"/>
      <point x="531" y="902" type="curve" smooth="yes"/>
      <point x="514" y="923"/>
      <point x="487" y="934"/>
      <point x="452" y="934" type="curve" smooth="yes"/>
      <point x="415" y="934"/>
      <point x="385" y="923"/>
      <point x="362" y="902" type="curve" smooth="yes"/>
      <point x="339" y="881"/>
      <point x="324" y="853"/>
      <point x="304" y="797" type="curve" smooth="yes"/>
      <point x="292" y="762"/>
      <point x="285" y="738"/>
      <point x="274" y="694" type="curve" smooth="yes"/>
      <point x="263" y="650"/>
      <point x="255" y="616"/>
      <point x="244" y="559" type="curve" smooth="yes"/>
      <point x="233" y="504"/>
      <point x="227" y="470"/>
      <point x="220" y="417" type="curve" smooth="yes"/>
      <point x="213" y="373"/>
      <point x="211" y="350"/>
      <point x="211" y="322" type="curve" smooth="yes"/>
      <point x="211" y="225"/>
      <point x="243" y="184"/>
      <point x="319" y="184" type="curve" smooth="yes"/>
    </contour>
    <contour>
      <point x="1022" y="690" type="line"/>
      <point x="1032" y="756" type="line"/>
      <point x="1035" y="769"/>
      <point x="1037" y="782"/>
      <point x="1038" y="796" type="curve" smooth="yes"/>
      <point x="1039" y="809"/>
      <point x="1040" y="821"/>
      <point x="1040" y="834" type="curve" smooth="yes"/>
      <point x="1040" y="902"/>
      <point x="1014" y="934"/>
      <point x="957" y="934" type="curve" smooth="yes"/>
      <point x="881" y="934"/>
      <point x="854" y="883"/>
      <point x="834" y="837" type="curve" smooth="yes"/>
      <point x="824" y="814"/>
      <point x="816" y="788"/>
      <point x="811" y="760" type="curve" smooth="yes"/>
      <point x="797" y="690" type="line"/>
    </contour>
  </outline>
</glyph>
<glyph name="uni0156" format="1">
  <advance width="1233"/>
  <unicode hex="0156"/>
  <note>
	uni0156
  </note>
  <outline>
    <contour>
      <point x="294" y="1493" type="line"/>
      <point x="704" y="1493" type="line" smooth="yes"/>
      <point x="1016" y="1493"/>
      <point x="1160" y="1378"/>
      <point x="1160" y="1131" type="curve" smooth="yes"/>
      <point x="1160" y="1011"/>
      <point x="1126" y="911"/>
      <point x="1062" y="838" type="curve" smooth="yes"/>
      <point x="997" y="765"/>
      <point x="903" y="718"/>
      <point x="783" y="705" type="curve"/>
      <point x="823" y="698"/>
      <point x="854" y="686"/>
      <point x="878" y="660" type="curve" smooth="yes"/>
      <point x="902" y="634"/>
      <point x="920" y="594"/>
      <point x="939" y="537" type="curve" smooth="yes"/>
      <point x="1103" y="0" type="line"/>
      <point x="802" y="0" type="line"/>
      <point x="696" y="376" type="line"/>
      <point x="688" y="403" type="line" smooth="yes"/>
      <point x="649" y="531"/>
      <point x="605" y="590"/>
      <point x="530" y="590" type="curve" smooth="yes"/>
      <point x="413" y="590" type="line"/>
      <point x="298" y="0" type="line"/>
      <point x="3" y="0" type="line"/>
    </contour>
    <contour>
      <point x="585" y="838" type="line" smooth="yes"/>
      <point x="766" y="838"/>
      <point x="859" y="929"/>
      <point x="859" y="1080" type="curve" smooth="yes"/>
      <point x="859" y="1195"/>
      <point x="804" y="1245"/>
      <point x="675" y="1245" type="curve" smooth="yes"/>
      <point x="542" y="1245" type="line"/>
      <point x="462" y="838" type="line"/>
    </contour>
    <contour>
      <point x="433" y="-158" type="line"/>
      <point x="715" y="-158" type="line"/>
      <point x="479" y="-464" type="line"/>
      <point x="285" y="-464" type="line"/>
    </contour>
  </outline>
</glyph>
<glyph name="Scircumflex" format="1">
  <advance width="1233"/>
  <unicode hex="015C"/>
  <note>
	Scircumflex
  </note>
  <outline>
    <contour>
      <point x="673" y="1852" type="line"/>
      <point x="982" y="1852" type="line"/>
      <point x="1154" y="1588" type="line"/>
      <point x="976" y="1588" type="line"/>
      <point x="808" y="1749" type="line"/>
      <point x="579" y="1588" type="line"/>
      <point x="401" y="1588" type="line"/>
    </contour>
    <contour>
      <point x="61" y="381" type="line"/>
      <point x="196" y="270"/>
      <point x="333" y="215"/>
      <point x="474" y="215" type="curve" smooth="yes"/>
      <point x="621" y="215"/>
      <point x="718" y="286"/>
      <point x="741" y="403" type="curve"/>
      <point x="744" y="413"/>
      <point x="745" y="427"/>
      <point x="745" y="444" type="curve" smooth="yes"/>
      <point x="745" y="513"/>
      <point x="705" y="565"/>
      <point x="624" y="600" type="curve" smooth="yes"/>
      <point x="489" y="655" type="line" smooth="yes"/>
      <point x="337" y="720"/>
      <point x="252" y="779"/>
      <point x="212" y="852" type="curve" smooth="yes"/>
      <point x="191" y="889"/>
      <point x="181" y="931"/>
      <point x="181" y="980" type="curve" smooth="yes"/>
      <point x="181" y="1006"/>
      <point x="185" y="1041"/>
      <point x="192" y="1085" type="curve"/>
      <point x="228" y="1266"/>
      <point x="335" y="1400"/>
      <point x="494" y="1469" type="curve" smooth="yes"/>
      <point x="573" y="1503"/>
      <point x="663" y="1520"/>
      <point x="763" y="1520" type="curve" smooth="yes"/>
      <point x="903" y="1520"/>
      <point x="1034" y="1489"/>
      <point x="1156" y="1427" type="curve"/>
      <point x="1100" y="1139" type="line"/>
      <point x="992" y="1228"/>
      <point x="866" y="1276"/>
      <point x="738" y="1276" type="curve" smooth="yes"/>
      <point x="598" y="1276"/>
      <point x="507" y="1216"/>
      <point x="486" y="1111" type="curve" smooth="yes"/>
      <point x="483" y="1098"/>
      <point x="482" y="1085"/>
      <point x="482" y="1074" type="curve" smooth="yes"/>
      <point x="482" y="1025"/>
      <point x="516" y="990"/>
      <point x="565" y="964" type="curve" smooth="yes"/>
      <point x="590" y="951"/>
      <point x="623" y="935"/>
      <point x="664" y="918" type="curve" smooth="yes"/>
      <point x="781" y="870" type="line" smooth="yes"/>
      <point x="969" y="794"/>
      <point x="1055" y="686"/>
      <point x="1055" y="525" type="curve" smooth="yes"/>
      <point x="1055" y="491"/>
      <point x="1051" y="454"/>
      <point x="1043" y="415" type="curve" smooth="yes"/>
      <point x="986" y="122"/>
      <point x="776" y="-29"/>
      <point x="429" y="-29" type="curve" smooth="yes"/>
      <point x="266" y="-29"/>
      <point x="124" y="6"/>
      <point x="2" y="76" type="curve"/>
    </contour>
  </outline>
</glyph>
<glyph name="Umacron" format="1">
  <advance width="1233"/>
  <unicode hex="016A"/>
  <note>
	Umacron
  </note>
  <outline>
    <contour>
      <point x="519" y="1850" type="line"/>
      <point x="1150" y="1850" type="line"/>
      <point x="1114" y="1662" type="line"/>
      <point x="483" y="1662" type="line"/>
    </contour>
    <contour>
      <point x="351" y="-29"/>
      <point x="239" y="5"/>
      <point x="163" y="71" type="curve" smooth="yes"/>
      <point x="86" y="137"/>
      <point x="45" y="232"/>
      <point x="45" y="359" type="curve" smooth="yes"/>
      <point x="45" y="411"/>
      <point x="52" y="471"/>
      <point x="68" y="551" type="curve" smooth="yes"/>
      <point x="252" y="1493" type="line"/>
      <point x="547" y="1493" type="line"/>
      <point x="348" y="477" type="line"/>
      <point x="348" y="475"/>
      <point x="348" y="473"/>
      <point x="347" y="471" type="curve"/>
      <point x="342" y="440"/>
      <point x="340" y="418"/>
      <point x="340" y="399" type="curve" smooth="yes"/>
      <point x="340" y="294"/>
      <point x="402" y="231"/>
      <point x="522" y="231" type="curve" smooth="yes"/>
      <point x="655" y="231"/>
      <point x="745" y="309"/>
      <point x="778" y="477" type="curve" smooth="yes"/>
      <point x="977" y="1493" type="line"/>
      <point x="1272" y="1493" type="line"/>
      <point x="1087" y="551" type="line" smooth="yes"/>
      <point x="1064" y="436"/>
      <point x="1042" y="351"/>
      <point x="1014" y="283" type="curve" smooth="yes"/>
      <point x="986" y="215"/>
      <point x="953" y="166"/>
      <point x="909" y="123" type="curve" smooth="yes"/>
      <point x="809" y="24"/>
      <point x="672" y="-29"/>
      <point x="492" y="-29" type="curve" smooth="yes"/>
    </contour>
  </outline>
</glyph>
<glyph name="ubreve" format="1">
  <advance width="1233"/>
  <unicode hex="016D"/>
  <note>
	ubreve
  </note>
  <outline>
    <contour>
      <point x="936" y="1327"/>
      <point x="852" y="1301"/>
      <point x="749" y="1301" type="curve" smooth="yes"/>
      <point x="556" y="1301"/>
      <point x="456" y="1389"/>
      <point x="456" y="1565" type="curve" smooth="yes"/>
      <point x="456" y="1598" type="line"/>
      <point x="600" y="1598" type="line"/>
      <point x="600" y="1585" type="line" smooth="yes"/>
      <point x="600" y="1504"/>
      <point x="661" y="1452"/>
      <point x="764" y="1452" type="curve" smooth="yes"/>
      <point x="819" y="1452"/>
      <point x="865" y="1465"/>
      <point x="904" y="1491" type="curve" smooth="yes"/>
      <point x="943" y="1516"/>
      <point x="968" y="1549"/>
      <point x="987" y="1598" type="curve"/>
      <point x="1130" y="1598" type="line"/>
      <point x="1111" y="1503"/>
      <point x="1070" y="1432"/>
      <point x="1002" y="1379" type="curve" smooth="yes"/>
    </contour>
    <contour>
      <point x="500" y="-13"/>
      <point x="441" y="-29"/>
      <point x="372" y="-29" type="curve" smooth="yes"/>
      <point x="201" y="-29"/>
      <point x="106" y="68"/>
      <point x="106" y="244" type="curve" smooth="yes"/>
      <point x="106" y="270"/>
      <point x="107" y="291"/>
      <point x="110" y="308" type="curve"/>
      <point x="111" y="309"/>
      <point x="112" y="318"/>
      <point x="114" y="337" type="curve" smooth="yes"/>
      <point x="116" y="354"/>
      <point x="119" y="372"/>
      <point x="123" y="391" type="curve" smooth="yes"/>
      <point x="266" y="1120" type="line"/>
      <point x="557" y="1120" type="line"/>
      <point x="426" y="436" type="line"/>
      <point x="422" y="404" type="line"/>
      <point x="419" y="383" type="line" smooth="yes"/>
      <point x="417" y="369"/>
      <point x="416" y="353"/>
      <point x="416" y="336" type="curve" smooth="yes"/>
      <point x="416" y="293"/>
      <point x="425" y="267"/>
      <point x="445" y="243" type="curve"/>
      <point x="464" y="222"/>
      <point x="492" y="211"/>
      <point x="529" y="211" type="curve" smooth="yes"/>
      <point x="588" y="211"/>
      <point x="632" y="234"/>
      <point x="668" y="282" type="curve" smooth="yes"/>
      <point x="707" y="331"/>
      <point x="735" y="400"/>
      <point x="752" y="489" type="curve" smooth="yes"/>
      <point x="874" y="1120" type="line"/>
      <point x="1165" y="1120" type="line"/>
      <point x="948" y="0" type="line"/>
      <point x="684" y="0" type="line"/>
      <point x="688" y="166" type="line"/>
      <point x="657" y="105"/>
      <point x="618" y="61"/>
      <point x="559" y="24" type="curve" smooth="yes"/>
    </contour>
  </outline>
</glyph>
<glyph name="ycircumflex" format="1">
  <advance width="1233"/>
  <unicode hex="0177"/>
  <note>
	ycircumflex
  </note>
  <outline>
    <contour>
      <point x="716" y="1647" type="line"/>
      <point x="959" y="1647" type="line"/>
      <point x="1142" y="1271" type="line"/>
      <point x="966" y="1271" type="line"/>
      <point x="814" y="1496" type="line"/>
      <point x="574" y="1271" type="line"/>
      <point x="384" y="1271" type="line"/>
    </contour>
    <contour>
      <point x="-20" y="-201" type="line"/>
      <point x="97" y="-201" type="line" smooth="yes"/>
      <point x="152" y="-201"/>
      <point x="194" y="-196"/>
      <point x="232" y="-172" type="curve" smooth="yes"/>
      <point x="270" y="-148"/>
      <point x="304" y="-105"/>
      <point x="344" y="-29" type="curve" smooth="yes"/>
      <point x="383" y="45" type="line"/>
      <point x="166" y="1120" type="line"/>
      <point x="463" y="1120" type="line"/>
      <point x="590" y="420" type="line"/>
      <point x="973" y="1120" type="line"/>
      <point x="1282" y="1120" type="line"/>
      <point x="576" y="-121" type="line" smooth="yes"/>
      <point x="501" y="-253"/>
      <point x="443" y="-329"/>
      <point x="383" y="-372" type="curve" smooth="yes"/>
      <point x="322" y="-415"/>
      <point x="259" y="-424"/>
      <point x="175" y="-424" type="curve" smooth="yes"/>
      <point x="-65" y="-424" type="line"/>
    </contour>
  </outline>
</glyph>
<glyph name="florin" format="1">
  <advance width="1233"/>
  <unicode hex="0192"/>
  <note>
	florin
  </note>
  <outline>
    <contour>
      <point x="233" y="-426"/>
      <point x="191" y="-422"/>
      <point x="155" y="-414" type="curve" smooth="yes"/>
      <point x="119" y="-406"/>
      <point x="79" y="-392"/>
      <point x="42" y="-375" type="curve"/>
      <point x="42" y="-141" type="line"/>
      <point x="71" y="-160"/>
      <point x="98" y="-173"/>
      <point x="125" y="-182" type="curve" smooth="yes"/>
      <point x="151" y="-191"/>
      <point x="178" y="-195"/>
      <point x="205" y="-195" type="curve" smooth="yes"/>
      <point x="330" y="-195"/>
      <point x="398" y="-118"/>
      <point x="421" y="55" type="curve" smooth="yes"/>
      <point x="501" y="666" type="line"/>
      <point x="249" y="666" type="line"/>
      <point x="249" y="885" type="line"/>
      <point x="530" y="885" type="line"/>
      <point x="569" y="1178" type="line" smooth="yes"/>
      <point x="585" y="1299"/>
      <point x="630" y="1394"/>
      <point x="695" y="1458" type="curve" smooth="yes"/>
      <point x="763" y="1523"/>
      <point x="852" y="1556"/>
      <point x="956" y="1556" type="curve" smooth="yes"/>
      <point x="993" y="1556"/>
      <point x="1037" y="1552"/>
      <point x="1072" y="1544" type="curve" smooth="yes"/>
      <point x="1103" y="1537"/>
      <point x="1148" y="1521"/>
      <point x="1183" y="1505" type="curve"/>
      <point x="1183" y="1274" type="line"/>
      <point x="1152" y="1293"/>
      <point x="1124" y="1304"/>
      <point x="1101" y="1312" type="curve" smooth="yes"/>
      <point x="1075" y="1321"/>
      <point x="1049" y="1325"/>
      <point x="1022" y="1325" type="curve" smooth="yes"/>
      <point x="898" y="1325"/>
      <point x="857" y="1249"/>
      <point x="834" y="1186" type="curve" smooth="yes"/>
      <point x="822" y="1154"/>
      <point x="813" y="1117"/>
      <point x="808" y="1075" type="curve" smooth="yes"/>
      <point x="784" y="885" type="line"/>
      <point x="1044" y="885" type="line"/>
      <point x="1044" y="666" type="line"/>
      <point x="755" y="666" type="line"/>
      <point x="661" y="-47" type="line" smooth="yes"/>
      <point x="646" y="-160"/>
      <point x="604" y="-259"/>
      <point x="535" y="-327" type="curve" smooth="yes"/>
      <point x="468" y="-393"/>
      <point x="379" y="-426"/>
      <point x="270" y="-426" type="curve" smooth="yes"/>
    </contour>
  </outline>
</glyph>
<glyph name="Ohorn" format="1">
  <advance width="1233"/>
  <unicode hex="01A0"/>
  <note>
	Ohorn
  </note>
  <outline>
    <contour>
      <point x="1388" y="1555" type="line"/>
      <point x="1388" y="1482"/>
      <point x="1384" y="1421"/>
      <point x="1373" y="1365" type="curve" smooth="yes"/>
      <point x="1342" y="1213"/>
      <point x="1264" y="1127"/>
      <point x="1149" y="1127" type="curve" smooth="yes"/>
      <point x="1136" y="1127"/>
      <point x="1124" y="1128"/>
      <point x="1112" y="1130" type="curve"/>
      <point x="1117" y="1093"/>
      <point x="1119" y="1054"/>
      <point x="1119" y="1011" type="curve" smooth="yes"/>
      <point x="1119" y="898"/>
      <point x="1102" y="760"/>
      <point x="1071" y="627" type="curve" smooth="yes"/>
      <point x="1039" y="494"/>
      <point x="994" y="364"/>
      <point x="937" y="264" type="curve" smooth="yes"/>
      <point x="828" y="72"/>
      <point x="666" y="-29"/>
      <point x="445" y="-29" type="curve" smooth="yes"/>
      <point x="162" y="-29"/>
      <point x="9" y="139"/>
      <point x="9" y="482" type="curve" smooth="yes"/>
      <point x="9" y="605"/>
      <point x="29" y="746"/>
      <point x="62" y="879" type="curve" smooth="yes"/>
      <point x="94" y="1011"/>
      <point x="141" y="1137"/>
      <point x="194" y="1229" type="curve" smooth="yes"/>
      <point x="303" y="1421"/>
      <point x="463" y="1520"/>
      <point x="683" y="1520" type="curve" smooth="yes"/>
      <point x="864" y="1520"/>
      <point x="991" y="1453"/>
      <point x="1060" y="1313" type="curve"/>
      <point x="1065" y="1310" type="line" smooth="yes"/>
      <point x="1086" y="1297"/>
      <point x="1106" y="1291"/>
      <point x="1123" y="1291" type="curve" smooth="yes"/>
      <point x="1170" y="1291"/>
      <point x="1216" y="1323"/>
      <point x="1232" y="1399" type="curve" smooth="yes"/>
      <point x="1237" y="1423"/>
      <point x="1240" y="1454"/>
      <point x="1240" y="1478" type="curve" smooth="yes"/>
      <point x="1240" y="1501"/>
      <point x="1237" y="1526"/>
      <point x="1232" y="1555" type="curve"/>
    </contour>
    <contour>
      <point x="774" y="697"/>
      <point x="790" y="768"/>
      <point x="800" y="837" type="curve" smooth="yes"/>
      <point x="810" y="905"/>
      <point x="816" y="971"/>
      <point x="816" y="1024" type="curve" smooth="yes"/>
      <point x="816" y="1181"/>
      <point x="762" y="1260"/>
      <point x="653" y="1260" type="curve" smooth="yes"/>
      <point x="566" y="1260"/>
      <point x="510" y="1211"/>
      <point x="462" y="1119" type="curve" smooth="yes"/>
      <point x="431" y="1062"/>
      <point x="401" y="981"/>
      <point x="370" y="861" type="curve" smooth="yes"/>
      <point x="350" y="781"/>
      <point x="335" y="701"/>
      <point x="327" y="630" type="curve" smooth="yes"/>
      <point x="318" y="558"/>
      <point x="313" y="498"/>
      <point x="313" y="458" type="curve" smooth="yes"/>
      <point x="313" y="315"/>
      <point x="365" y="233"/>
      <point x="476" y="233" type="curve" smooth="yes"/>
      <point x="560" y="233"/>
      <point x="618" y="281"/>
      <point x="667" y="373" type="curve" smooth="yes"/>
      <point x="700" y="434"/>
      <point x="730" y="517"/>
      <point x="758" y="630" type="curve" smooth="yes"/>
    </contour>
  </outline>
</glyph>
<glyph name="ohorn" format="1">
  <advance width="1233"/>
  <unicode hex="01A1"/>
  <note>
	ohorn
  </note>
  <outline>
    <contour>
      <point x="1294" y="1167" type="line"/>
      <point x="1294" y="1094"/>
      <point x="1290" y="1033"/>
      <point x="1279" y="977" type="curve" smooth="yes"/>
      <point x="1252" y="848"/>
      <point x="1191" y="767"/>
      <point x="1102" y="744" type="curve"/>
      <point x="1105" y="719"/>
      <point x="1106" y="693"/>
      <point x="1106" y="665" type="curve" smooth="yes"/>
      <point x="1106" y="482"/>
      <point x="1051" y="309"/>
      <point x="947" y="181" type="curve" smooth="yes"/>
      <point x="843" y="53"/>
      <point x="690" y="-29"/>
      <point x="494" y="-29" type="curve" smooth="yes"/>
      <point x="357" y="-29"/>
      <point x="245" y="12"/>
      <point x="169" y="93" type="curve" smooth="yes"/>
      <point x="92" y="173"/>
      <point x="49" y="294"/>
      <point x="49" y="454" type="curve" smooth="yes"/>
      <point x="49" y="575"/>
      <point x="73" y="693"/>
      <point x="121" y="796" type="curve" smooth="yes"/>
      <point x="168" y="899"/>
      <point x="237" y="987"/>
      <point x="328" y="1050" type="curve" smooth="yes"/>
      <point x="419" y="1113"/>
      <point x="530" y="1149"/>
      <point x="661" y="1149" type="curve" smooth="yes"/>
      <point x="856" y="1149"/>
      <point x="995" y="1070"/>
      <point x="1063" y="909" type="curve"/>
      <point x="1096" y="922"/>
      <point x="1126" y="955"/>
      <point x="1138" y="1011" type="curve" smooth="yes"/>
      <point x="1143" y="1035"/>
      <point x="1146" y="1066"/>
      <point x="1146" y="1090" type="curve" smooth="yes"/>
      <point x="1146" y="1113"/>
      <point x="1143" y="1138"/>
      <point x="1138" y="1167" type="curve"/>
    </contour>
    <contour>
      <point x="607" y="207"/>
      <point x="681" y="266"/>
      <point x="732" y="352" type="curve" smooth="yes"/>
      <point x="783" y="438"/>
      <point x="811" y="552"/>
      <point x="811" y="664" type="curve" smooth="yes"/>
      <point x="811" y="835"/>
      <point x="745" y="911"/>
      <point x="640" y="911" type="curve" smooth="yes"/>
      <point x="545" y="911"/>
      <point x="471" y="851"/>
      <point x="421" y="764" type="curve" smooth="yes"/>
      <point x="371" y="676"/>
      <point x="344" y="563"/>
      <point x="344" y="456" type="curve" smooth="yes"/>
      <point x="344" y="285"/>
      <point x="413" y="207"/>
      <point x="518" y="207" type="curve" smooth="yes"/>
    </contour>
  </outline>
</glyph>
<glyph name="Uhorn" format="1">
  <advance width="1233"/>
  <unicode hex="01AF"/>
  <note>
	Uhorn
  </note>
  <outline>
    <contour>
      <point x="1437" y="1555" type="line"/>
      <point x="1437" y="1482"/>
      <point x="1433" y="1421"/>
      <point x="1422" y="1365" type="curve" smooth="yes"/>
      <point x="1391" y="1213"/>
      <point x="1313" y="1127"/>
      <point x="1198" y="1127" type="curve" smooth="yes"/>
      <point x="1175" y="1127"/>
      <point x="1152" y="1131"/>
      <point x="1129" y="1139" type="curve"/>
      <point x="1014" y="551" type="line" smooth="yes"/>
      <point x="991" y="436"/>
      <point x="969" y="351"/>
      <point x="941" y="283" type="curve" smooth="yes"/>
      <point x="913" y="215"/>
      <point x="880" y="166"/>
      <point x="836" y="123" type="curve" smooth="yes"/>
      <point x="736" y="24"/>
      <point x="599" y="-29"/>
      <point x="419" y="-29" type="curve" smooth="yes"/>
      <point x="278" y="-29"/>
      <point x="166" y="5"/>
      <point x="90" y="71" type="curve" smooth="yes"/>
      <point x="13" y="137"/>
      <point x="-28" y="232"/>
      <point x="-28" y="359" type="curve" smooth="yes"/>
      <point x="-28" y="411"/>
      <point x="-21" y="471"/>
      <point x="-5" y="551" type="curve" smooth="yes"/>
      <point x="179" y="1493" type="line"/>
      <point x="474" y="1493" type="line"/>
      <point x="275" y="477" type="line"/>
      <point x="275" y="475"/>
      <point x="275" y="473"/>
      <point x="274" y="471" type="curve"/>
      <point x="269" y="440"/>
      <point x="267" y="418"/>
      <point x="267" y="399" type="curve" smooth="yes"/>
      <point x="267" y="294"/>
      <point x="329" y="231"/>
      <point x="449" y="231" type="curve" smooth="yes"/>
      <point x="582" y="231"/>
      <point x="672" y="309"/>
      <point x="705" y="477" type="curve" smooth="yes"/>
      <point x="904" y="1493" type="line"/>
      <point x="1199" y="1493" type="line"/>
      <point x="1160" y="1292" type="line"/>
      <point x="1163" y="1291"/>
      <point x="1167" y="1291"/>
      <point x="1172" y="1291" type="curve" smooth="yes"/>
      <point x="1219" y="1291"/>
      <point x="1265" y="1323"/>
      <point x="1281" y="1399" type="curve" smooth="yes"/>
      <point x="1286" y="1423"/>
      <point x="1289" y="1454"/>
      <point x="1289" y="1478" type="curve" smooth="yes"/>
      <point x="1289" y="1501"/>
      <point x="1286" y="1526"/>
      <point x="1281" y="1555" type="curve"/>
    </contour>
  </outline>
</glyph>
<glyph name="gcaron" format="1">
  <advance width="1233"/>
  <unicode hex="01E7"/>
  <note>
	gcaron
  </note>
  <outline>
    <contour>
      <point x="414" y="1677" type="line"/>
      <point x="588" y="1677" type="line"/>
      <point x="741" y="1450" type="line"/>
      <point x="979" y="1677" type="line"/>
      <point x="1169" y="1677" type="line"/>
      <point x="838" y="1301" type="line"/>
      <point x="596" y="1301" type="line"/>
    </contour>
    <contour>
      <point x="252" y="-424"/>
      <point x="135" y="-404"/>
      <point x="18" y="-365" type="curve"/>
      <point x="72" y="-100" type="line"/>
      <point x="172" y="-160"/>
      <point x="284" y="-190"/>
      <point x="395" y="-190" type="curve" smooth="yes"/>
      <point x="483" y="-190"/>
      <point x="548" y="-171"/>
      <point x="596" y="-131" type="curve" smooth="yes"/>
      <point x="643" y="-91"/>
      <point x="672" y="-32"/>
      <point x="688" y="51" type="curve" smooth="yes"/>
      <point x="715" y="184" type="line"/>
      <point x="640" y="69"/>
      <point x="536" y="16"/>
      <point x="409" y="16" type="curve" smooth="yes"/>
      <point x="305" y="16"/>
      <point x="220" y="52"/>
      <point x="161" y="120" type="curve" smooth="yes"/>
      <point x="101" y="188"/>
      <point x="68" y="287"/>
      <point x="68" y="412" type="curve" smooth="yes"/>
      <point x="68" y="497"/>
      <point x="84" y="594"/>
      <point x="112" y="686" type="curve" smooth="yes"/>
      <point x="139" y="777"/>
      <point x="178" y="864"/>
      <point x="225" y="932" type="curve" smooth="yes"/>
      <point x="321" y="1071"/>
      <point x="459" y="1151"/>
      <point x="603" y="1151" type="curve" smooth="yes"/>
      <point x="742" y="1151"/>
      <point x="834" y="1075"/>
      <point x="862" y="938" type="curve"/>
      <point x="926" y="1120" type="line"/>
      <point x="1190" y="1120" type="line"/>
      <point x="987" y="84" type="line" smooth="yes"/>
      <point x="951" y="-100"/>
      <point x="892" y="-228"/>
      <point x="796" y="-308" type="curve" smooth="yes"/>
      <point x="700" y="-389"/>
      <point x="569" y="-424"/>
      <point x="389" y="-424" type="curve" smooth="yes"/>
    </contour>
    <contour>
      <point x="596" y="246"/>
      <point x="667" y="299"/>
      <point x="719" y="380" type="curve" smooth="yes"/>
      <point x="771" y="461"/>
      <point x="803" y="571"/>
      <point x="803" y="684" type="curve" smooth="yes"/>
      <point x="803" y="837"/>
      <point x="745" y="909"/>
      <point x="653" y="909" type="curve" smooth="yes"/>
      <point x="574" y="909"/>
      <point x="503" y="857"/>
      <point x="451" y="777" type="curve" smooth="yes"/>
      <point x="399" y="696"/>
      <point x="367" y="587"/>
      <point x="367" y="471" type="curve" smooth="yes"/>
      <point x="367" y="318"/>
      <point x="423" y="246"/>
      <point x="516" y="246" type="curve" smooth="yes"/>
    </contour>
  </outline>
</glyph>
<glyph name="Oslashacute" format="1">
  <advance width="1233"/>
  <unicode hex="01FE"/>
  <note>
	Oslashacute
  </note>
  <outline>
    <contour>
      <point x="862" y="1853" type="line"/>
      <point x="1143" y="1853" type="line"/>
      <point x="823" y="1589" type="line"/>
      <point x="616" y="1589" type="line"/>
    </contour>
    <contour>
      <point x="-141" y="51" type="line"/>
      <point x="78" y="295" type="line"/>
      <point x="71" y="323"/>
      <point x="68" y="347"/>
      <point x="65" y="372" type="curve" smooth="yes"/>
      <point x="62" y="396"/>
      <point x="61" y="422"/>
      <point x="61" y="453" type="curve" smooth="yes"/>
      <point x="61" y="586"/>
      <point x="79" y="732"/>
      <point x="111" y="868" type="curve" smooth="yes"/>
      <point x="143" y="1004"/>
      <point x="189" y="1131"/>
      <point x="244" y="1227" type="curve" smooth="yes"/>
      <point x="352" y="1418"/>
      <point x="515" y="1520"/>
      <point x="731" y="1520" type="curve" smooth="yes"/>
      <point x="871" y="1520"/>
      <point x="982" y="1476"/>
      <point x="1063" y="1389" type="curve"/>
      <point x="1217" y="1559" type="line"/>
      <point x="1356" y="1444" type="line"/>
      <point x="1151" y="1217" type="line"/>
      <point x="1164" y="1141"/>
      <point x="1171" y="1079"/>
      <point x="1171" y="1018" type="curve" smooth="yes"/>
      <point x="1171" y="978"/>
      <point x="1168" y="929"/>
      <point x="1163" y="880" type="curve" smooth="yes"/>
      <point x="1158" y="831"/>
      <point x="1152" y="781"/>
      <point x="1144" y="737" type="curve" smooth="yes"/>
      <point x="1111" y="542"/>
      <point x="1051" y="377"/>
      <point x="987" y="265" type="curve" smooth="yes"/>
      <point x="871" y="61"/>
      <point x="711" y="-29"/>
      <point x="504" y="-29" type="curve" smooth="yes"/>
      <point x="353" y="-29"/>
      <point x="239" y="18"/>
      <point x="160" y="117" type="curve"/>
      <point x="0" y="-63" type="line"/>
    </contour>
    <contour>
      <point x="852" y="1153" type="line"/>
      <point x="828" y="1222"/>
      <point x="777" y="1260"/>
      <point x="706" y="1260" type="curve" smooth="yes"/>
      <point x="622" y="1260"/>
      <point x="558" y="1206"/>
      <point x="510" y="1114" type="curve" smooth="yes"/>
      <point x="457" y="1011"/>
      <point x="414" y="844"/>
      <point x="379" y="629" type="curve"/>
    </contour>
    <contour>
      <point x="606" y="233"/>
      <point x="676" y="281"/>
      <point x="729" y="386" type="curve" smooth="yes"/>
      <point x="780" y="487"/>
      <point x="823" y="654"/>
      <point x="858" y="889" type="curve"/>
      <point x="375" y="354" type="line"/>
      <point x="399" y="273"/>
      <point x="449" y="233"/>
      <point x="526" y="233" type="curve" smooth="yes"/>
    </contour>
  </outline>
</glyph>
<glyph name="uni02B9" format="1">
  <advance width="1233"/>
  <unicode hex="02B9"/>
  <note>
	uni02B9
  </note>
  <outline>
    <contour>
      <point x="613" y="1638" type="line"/>
      <point x="834" y="1638" type="line"/>
      <point x="628" y="1140" type="line"/>
      <point x="452" y="1140" type="line"/>
    </contour>
  </outline>
</glyph>
<glyph name="uni02BC" format="1">
  <advance width="1233"/>
  <unicode hex="02BC"/>
  <note>
	uni02BC
  </note>
  <outline>
    <contour>
      <point x="542" y="1285" type="line"/>
      <point x="594" y="1556" type="line"/>
      <point x="907" y="1556" type="line"/>
      <point x="855" y="1285" type="line"/>
      <point x="584" y="903" type="line"/>
      <point x="369" y="903" type="line"/>
    </contour>
  </outline>
</glyph>
<glyph name="uni02BD" format="1">
  <advance width="1233"/>
  <unicode hex="02BD"/>
  <note>
	uni02BD
  </note>
  <outline>
    <contour>
      <point x="550" y="1219"/>
      <point x="473" y="1281"/>
      <point x="473" y="1406" type="curve" smooth="yes"/>
      <point x="473" y="1430"/>
      <point x="476" y="1455"/>
      <point x="481" y="1483" type="curve" smooth="yes"/>
      <point x="529" y="1729" type="line"/>
      <point x="803" y="1729" type="line"/>
      <point x="755" y="1483" type="line"/>
      <point x="634" y="1483" type="line"/>
      <point x="631" y="1470"/>
      <point x="630" y="1458"/>
      <point x="630" y="1447" type="curve" smooth="yes"/>
      <point x="630" y="1390"/>
      <point x="664" y="1361"/>
      <point x="732" y="1361" type="curve"/>
      <point x="704" y="1218" type="line"/>
    </contour>
  </outline>
</glyph>
<glyph name="uni02BE" format="1">
  <advance width="1233"/>
  <unicode hex="02BE"/>
  <note>
	uni02BE
  </note>
  <outline>
    <contour>
      <point x="632" y="1140" type="line"/>
      <point x="672" y="1140"/>
      <point x="712" y="1158"/>
      <point x="741" y="1187" type="curve" smooth="yes"/>
      <point x="770" y="1215"/>
      <point x="790" y="1254"/>
      <point x="790" y="1295" type="curve" smooth="yes"/>
      <point x="790" y="1355"/>
      <point x="746" y="1402"/>
      <point x="682" y="1402" type="curve"/>
      <point x="712" y="1556" type="line"/>
      <point x="781" y="1556"/>
      <point x="840" y="1531"/>
      <point x="881" y="1490" type="curve" smooth="yes"/>
      <point x="922" y="1449"/>
      <point x="947" y="1391"/>
      <point x="947" y="1326" type="curve" smooth="yes"/>
      <point x="947" y="1307"/>
      <point x="946" y="1290"/>
      <point x="942" y="1271" type="curve" smooth="yes"/>
      <point x="926" y="1192"/>
      <point x="880" y="1121"/>
      <point x="819" y="1070" type="curve" smooth="yes"/>
      <point x="758" y="1018"/>
      <point x="681" y="986"/>
      <point x="602" y="986" type="curve"/>
    </contour>
  </outline>
</glyph>
<glyph name="uni02BF" format="1">
  <advance width="1233"/>
  <unicode hex="02BF"/>
  <note>
	uni02BF
  </note>
  <outline>
    <contour>
      <point x="692" y="986"/>
      <point x="630" y="1014"/>
      <point x="585" y="1069" type="curve" smooth="yes"/>
      <point x="552" y="1112"/>
      <point x="537" y="1162"/>
      <point x="537" y="1215" type="curve" smooth="yes"/>
      <point x="537" y="1307"/>
      <point x="580" y="1402"/>
      <point x="664" y="1473" type="curve" smooth="yes"/>
      <point x="731" y="1528"/>
      <point x="804" y="1556"/>
      <point x="882" y="1556" type="curve"/>
      <point x="852" y="1402" type="line"/>
      <point x="812" y="1402"/>
      <point x="773" y="1383"/>
      <point x="743" y="1355" type="curve" smooth="yes"/>
      <point x="713" y="1326"/>
      <point x="693" y="1287"/>
      <point x="693" y="1246" type="curve" smooth="yes"/>
      <point x="693" y="1186"/>
      <point x="737" y="1140"/>
      <point x="801" y="1140" type="curve"/>
      <point x="771" y="986" type="line"/>
    </contour>
  </outline>
</glyph>
<glyph name="uni02C1" format="1">
  <advance width="1233"/>
  <unicode hex="02C1"/>
  <note>
	uni02C1
  </note>
  <outline>
    <contour>
      <point x="554" y="946" type="line"/>
      <point x="494" y="955"/>
      <point x="441" y="977"/>
      <point x="404" y="1013" type="curve" smooth="yes"/>
      <point x="367" y="1048"/>
      <point x="345" y="1097"/>
      <point x="345" y="1161" type="curve" smooth="yes"/>
      <point x="345" y="1181"/>
      <point x="348" y="1203"/>
      <point x="352" y="1226" type="curve" smooth="yes"/>
      <point x="368" y="1306"/>
      <point x="421" y="1385"/>
      <point x="493" y="1443" type="curve" smooth="yes"/>
      <point x="565" y="1501"/>
      <point x="656" y="1539"/>
      <point x="748" y="1539" type="curve" smooth="yes"/>
      <point x="817" y="1539"/>
      <point x="864" y="1536"/>
      <point x="898" y="1529" type="curve" smooth="yes"/>
      <point x="932" y="1522"/>
      <point x="955" y="1512"/>
      <point x="982" y="1500" type="curve"/>
      <point x="950" y="1333" type="line"/>
      <point x="895" y="1365"/>
      <point x="837" y="1381"/>
      <point x="777" y="1381" type="curve" smooth="yes"/>
      <point x="708" y="1381"/>
      <point x="651" y="1360"/>
      <point x="604" y="1317" type="curve" smooth="yes"/>
      <point x="569" y="1286"/>
      <point x="553" y="1249"/>
      <point x="553" y="1210" type="curve" smooth="yes"/>
      <point x="553" y="1187"/>
      <point x="559" y="1165"/>
      <point x="571" y="1144" type="curve" smooth="yes"/>
      <point x="595" y="1101"/>
      <point x="649" y="1080"/>
      <point x="732" y="1080" type="curve" smooth="yes"/>
      <point x="786" y="1080" type="line"/>
      <point x="706" y="668" type="line"/>
      <point x="500" y="668" type="line"/>
    </contour>
  </outline>
</glyph>
<glyph name="uni02CC" format="1">
  <advance width="1233"/>
  <unicode hex="02CC"/>
  <note>
	uni02CC
  </note>
  <outline>
    <contour>
      <point x="576" y="390" type="line"/>
      <point x="765" y="390" type="line"/>
      <point x="657" y="-165" type="line"/>
      <point x="468" y="-165" type="line"/>
    </contour>
  </outline>
</glyph>
<glyph name="uni02D0" format="1">
  <advance width="1233"/>
  <unicode hex="02D0"/>
  <note>
	uni02D0
  </note>
  <outline>
    <contour>
      <point x="520" y="1120" type="line"/>
      <point x="931" y="1120" type="line"/>
      <point x="651" y="740" type="line"/>
    </contour>
    <contour>
      <point x="582" y="380" type="line"/>
      <point x="713" y="0" type="line"/>
      <point x="302" y="0" type="line"/>
    </contour>
  </outline>
</glyph>
<glyph name="ring" format="1">
  <advance width="1233"/>
  <unicode hex="02DA"/>
  <note>
	ring
  </note>
  <outline>
    <contour>
      <point x="671" y="1249"/>
      <point x="601" y="1277"/>
      <point x="545" y="1333" type="curve" smooth="yes"/>
      <point x="490" y="1389"/>
      <point x="463" y="1457"/>
      <point x="463" y="1533" type="curve" smooth="yes"/>
      <point x="463" y="1618"/>
      <point x="498" y="1689"/>
      <point x="546" y="1737" type="curve" smooth="yes"/>
      <point x="595" y="1786"/>
      <point x="665" y="1819"/>
      <point x="748" y="1819" type="curve" smooth="yes"/>
      <point x="824" y="1819"/>
      <point x="894" y="1792"/>
      <point x="949" y="1737" type="curve" smooth="yes"/>
      <point x="996" y="1690"/>
      <point x="1032" y="1620"/>
      <point x="1032" y="1535" type="curve" smooth="yes"/>
      <point x="1032" y="1451"/>
      <point x="997" y="1379"/>
      <point x="950" y="1332" type="curve" smooth="yes"/>
      <point x="895" y="1277"/>
      <point x="823" y="1249"/>
      <point x="747" y="1249" type="curve" smooth="yes"/>
    </contour>
    <contour>
      <point x="820" y="1403"/>
      <point x="879" y="1462"/>
      <point x="879" y="1534" type="curve" smooth="yes"/>
      <point x="879" y="1606"/>
      <point x="817" y="1665"/>
      <point x="748" y="1665" type="curve" smooth="yes"/>
      <point x="675" y="1665"/>
      <point x="616" y="1606"/>
      <point x="616" y="1534" type="curve" smooth="yes"/>
      <point x="616" y="1497"/>
      <point x="629" y="1466"/>
      <point x="654" y="1441" type="curve" smooth="yes"/>
      <point x="677" y="1418"/>
      <point x="710" y="1403"/>
      <point x="749" y="1403" type="curve" smooth="yes"/>
    </contour>
  </outline>
</glyph>
<glyph name="tilde" format="1">
  <advance width="1233"/>
  <unicode hex="02DC"/>
  <note>
	tilde
  </note>
  <outline>
    <contour>
      <point x="853" y="1307"/>
      <point x="835" y="1311"/>
      <point x="812" y="1320" type="curve" smooth="yes"/>
      <point x="789" y="1329"/>
      <point x="766" y="1343"/>
      <point x="739" y="1364" type="curve" smooth="yes"/>
      <point x="690" y="1401" type="line"/>
      <point x="688" y="1403"/>
      <point x="688" y="1404"/>
      <point x="689" y="1403" type="curve" smooth="yes"/>
      <point x="690" y="1402"/>
      <point x="688" y="1402"/>
      <point x="685" y="1405" type="curve"/>
      <point x="662" y="1422"/>
      <point x="639" y="1438"/>
      <point x="612" y="1438" type="curve" smooth="yes"/>
      <point x="565" y="1438"/>
      <point x="531" y="1390"/>
      <point x="516" y="1309" type="curve"/>
      <point x="377" y="1309" type="line"/>
      <point x="390" y="1396"/>
      <point x="419" y="1465"/>
      <point x="464" y="1516" type="curve" smooth="yes"/>
      <point x="509" y="1567"/>
      <point x="565" y="1593"/>
      <point x="625" y="1593" type="curve" smooth="yes"/>
      <point x="648" y="1593"/>
      <point x="673" y="1589"/>
      <point x="692" y="1581" type="curve" smooth="yes"/>
      <point x="711" y="1573"/>
      <point x="737" y="1555"/>
      <point x="768" y="1532" type="curve" smooth="yes"/>
      <point x="819" y="1493" type="line"/>
      <point x="832" y="1482"/>
      <point x="844" y="1475"/>
      <point x="856" y="1470" type="curve" smooth="yes"/>
      <point x="868" y="1465"/>
      <point x="878" y="1462"/>
      <point x="890" y="1462" type="curve" smooth="yes"/>
      <point x="917" y="1462"/>
      <point x="937" y="1475"/>
      <point x="953" y="1496" type="curve" smooth="yes"/>
      <point x="970" y="1518"/>
      <point x="982" y="1550"/>
      <point x="989" y="1591" type="curve"/>
      <point x="1128" y="1591" type="line"/>
      <point x="1099" y="1404"/>
      <point x="1013" y="1307"/>
      <point x="880" y="1307" type="curve" smooth="yes"/>
    </contour>
  </outline>
</glyph>
<glyph name="gravecomb" format="1">
  <advance width="0"/>
  <unicode hex="0300"/>
  <note>
	gravecomb
  </note>
  <outline>
    <contour>
      <point x="-862" y="1638" type="line"/>
      <point x="-578" y="1638" type="line"/>
      <point x="-369" y="1262" type="line"/>
      <point x="-567" y="1262" type="line"/>
    </contour>
  </outline>
</glyph>
<glyph name="uni0307" format="1">
  <advance width="0"/>
  <unicode hex="0307"/>
  <note>
	uni0307
  </note>
  <outline>
    <contour>
      <point x="-590" y="1585" type="line"/>
      <point x="-318" y="1585" type="line"/>
      <point x="-365" y="1339" type="line"/>
      <point x="-639" y="1339" type="line"/>
    </contour>
  </outline>
</glyph>
<glyph name="uni0308" format="1">
  <advance width="0"/>
  <unicode hex="0308"/>
  <note>
	uni0308
  </note>
  <outline>
    <contour>
      <point x="-770" y="1585" type="line"/>
      <point x="-533" y="1585" type="line"/>
      <point x="-582" y="1339" type="line"/>
      <point x="-817" y="1339" type="line"/>
    </contour>
    <contour>
      <point x="-375" y="1585" type="line"/>
      <point x="-137" y="1585" type="line"/>
      <point x="-186" y="1339" type="line"/>
      <point x="-422" y="1339" type="line"/>
    </contour>
  </outline>
</glyph>
<glyph name="uni030A" format="1">
  <advance width="0"/>
  <unicode hex="030A"/>
  <note>
	uni030A
  </note>
  <outline>
    <contour>
      <point x="-565" y="1249"/>
      <point x="-636" y="1281"/>
      <point x="-687" y="1333" type="curve" smooth="yes"/>
      <point x="-739" y="1384"/>
      <point x="-770" y="1455"/>
      <point x="-770" y="1534" type="curve" smooth="yes"/>
      <point x="-770" y="1613"/>
      <point x="-739" y="1684"/>
      <point x="-687" y="1736" type="curve" smooth="yes"/>
      <point x="-636" y="1787"/>
      <point x="-565" y="1819"/>
      <point x="-485" y="1819" type="curve" smooth="yes"/>
      <point x="-406" y="1819"/>
      <point x="-336" y="1787"/>
      <point x="-284" y="1736" type="curve" smooth="yes"/>
      <point x="-233" y="1684"/>
      <point x="-201" y="1613"/>
      <point x="-201" y="1534" type="curve" smooth="yes"/>
      <point x="-201" y="1455"/>
      <point x="-233" y="1384"/>
      <point x="-284" y="1333" type="curve" smooth="yes"/>
      <point x="-336" y="1281"/>
      <point x="-406" y="1249"/>
      <point x="-485" y="1249" type="curve" smooth="yes"/>
    </contour>
    <contour>
      <point x="-449" y="1403"/>
      <point x="-416" y="1418"/>
      <point x="-392" y="1442" type="curve" smooth="yes"/>
      <point x="-369" y="1465"/>
      <point x="-354" y="1498"/>
      <point x="-354" y="1534" type="curve" smooth="yes"/>
      <point x="-354" y="1570"/>
      <point x="-369" y="1603"/>
      <point x="-393" y="1627" type="curve" smooth="yes"/>
      <point x="-417" y="1650"/>
      <point x="-449" y="1665"/>
      <point x="-485" y="1665" type="curve" smooth="yes"/>
      <point x="-521" y="1665"/>
      <point x="-554" y="1650"/>
      <point x="-578" y="1627" type="curve" smooth="yes"/>
      <point x="-602" y="1603"/>
      <point x="-617" y="1570"/>
      <point x="-617" y="1534" type="curve" smooth="yes"/>
      <point x="-617" y="1498"/>
      <point x="-602" y="1465"/>
      <point x="-578" y="1441" type="curve" smooth="yes"/>
      <point x="-554" y="1417"/>
      <point x="-521" y="1403"/>
      <point x="-485" y="1403" type="curve" smooth="yes"/>
    </contour>
  </outline>
</glyph>
<glyph name="uni030F" format="1">
  <advance width="0"/>
  <unicode hex="030F"/>
  <note>
	uni030F
  </note>
  <outline>
    <contour>
      <point x="-918" y="1638" type="line"/>
      <point x="-687" y="1638" type="line"/>
      <point x="-545" y="1262" type="line"/>
      <point x="-719" y="1262" type="line"/>
    </contour>
    <contour>
      <point x="-541" y="1638" type="line"/>
      <point x="-324" y="1638" type="line"/>
      <point x="-203" y="1262" type="line"/>
      <point x="-366" y="1262" type="line"/>
    </contour>
  </outline>
</glyph>
<glyph name="uni032A" format="1">
  <advance width="0"/>
  <unicode hex="032A"/>
  <note>
	uni032A
  </note>
  <outline>
    <contour>
      <point x="-895" y="-218" type="line"/>
      <point x="-265" y="-218" type="line"/>
      <point x="-338" y="-592" type="line"/>
      <point x="-526" y="-592" type="line"/>
      <point x="-490" y="-406" type="line"/>
      <point x="-744" y="-406" type="line"/>
      <point x="-780" y="-592" type="line"/>
      <point x="-968" y="-592" type="line"/>
    </contour>
  </outline>
</glyph>
<glyph name="uni032E" format="1">
  <advance width="0"/>
  <unicode hex="032E"/>
  <note>
	uni032E
  </note>
  <outline>
    <contour>
      <point x="-1037" y="-491"/>
      <point x="-1135" y="-403"/>
      <point x="-1135" y="-227" type="curve" smooth="yes"/>
      <point x="-1135" y="-194" type="line"/>
      <point x="-991" y="-194" type="line"/>
      <point x="-991" y="-207" type="line" smooth="yes"/>
      <point x="-991" y="-288"/>
      <point x="-928" y="-340"/>
      <point x="-827" y="-340" type="curve" smooth="yes"/>
      <point x="-719" y="-340"/>
      <point x="-637" y="-286"/>
      <point x="-604" y="-194" type="curve"/>
      <point x="-461" y="-194" type="line"/>
      <point x="-500" y="-385"/>
      <point x="-636" y="-491"/>
      <point x="-840" y="-491" type="curve" smooth="yes"/>
    </contour>
  </outline>
</glyph>
<glyph name="uni0331" format="1">
  <advance width="0"/>
  <unicode hex="0331"/>
  <note>
	uni0331
  </note>
  <outline>
    <contour>
      <point x="-1119" y="-218" type="line"/>
      <point x="-488" y="-218" type="line"/>
      <point x="-525" y="-406" type="line"/>
      <point x="-1156" y="-406" type="line"/>
    </contour>
  </outline>
</glyph>
<glyph name="uni0334" format="1">
  <advance width="0"/>
  <unicode hex="0334"/>
  <note>
	uni0334
  </note>
  <outline>
    <contour>
      <point x="-479" y="463"/>
      <point x="-543" y="480"/>
      <point x="-612" y="514" type="curve"/>
      <point x="-625" y="521"/>
      <point x="-635" y="525"/>
      <point x="-642" y="528" type="curve"/>
      <point x="-690" y="551"/>
      <point x="-727" y="565"/>
      <point x="-762" y="574" type="curve" smooth="yes"/>
      <point x="-797" y="583"/>
      <point x="-829" y="586"/>
      <point x="-862" y="586" type="curve" smooth="yes"/>
      <point x="-966" y="586"/>
      <point x="-1062" y="549"/>
      <point x="-1178" y="465" type="curve"/>
      <point x="-1134" y="694" type="line"/>
      <point x="-1014" y="775"/>
      <point x="-916" y="809"/>
      <point x="-805" y="809" type="curve" smooth="yes"/>
      <point x="-769" y="809"/>
      <point x="-738" y="806"/>
      <point x="-704" y="798" type="curve" smooth="yes"/>
      <point x="-670" y="790"/>
      <point x="-633" y="776"/>
      <point x="-588" y="756" type="curve" smooth="yes"/>
      <point x="-581" y="753"/>
      <point x="-571" y="748"/>
      <point x="-558" y="741" type="curve" smooth="yes"/>
      <point x="-487" y="704"/>
      <point x="-421" y="686"/>
      <point x="-359" y="686" type="curve" smooth="yes"/>
      <point x="-266" y="686"/>
      <point x="-170" y="726"/>
      <point x="-54" y="811" type="curve"/>
      <point x="-99" y="578" type="line"/>
      <point x="-215" y="498"/>
      <point x="-314" y="463"/>
      <point x="-419" y="463" type="curve" smooth="yes"/>
    </contour>
  </outline>
</glyph>
<glyph name="uni0337" format="1">
  <advance width="0"/>
  <unicode hex="0337"/>
  <note>
	uni0337
  </note>
  <outline>
    <contour>
      <point x="-1315" y="2" type="line"/>
      <point x="-38" y="1235" type="line"/>
      <point x="78" y="1114" type="line"/>
      <point x="-1199" y="-117" type="line"/>
    </contour>
  </outline>
</glyph>
<glyph name="uni033F" format="1">
  <advance width="0"/>
  <unicode hex="033F"/>
  <note>
	uni033F
  </note>
  <outline>
    <contour>
      <point x="0" y="1272" type="line"/>
      <point x="0" y="1082" type="line"/>
      <point x="-1233" y="1082" type="line"/>
      <point x="-1233" y="1272" type="line"/>
    </contour>
  </outline>
</glyph>
<glyph name="uni0361" format="1">
  <advance width="0"/>
  <unicode hex="0361"/>
  <note>
	uni0361
  </note>
  <outline>
    <contour>
      <point x="-1498" y="1583"/>
      <point x="-1441" y="1641"/>
      <point x="-1352" y="1684" type="curve" smooth="yes"/>
      <point x="-1264" y="1727"/>
      <point x="-1142" y="1755"/>
      <point x="-1008" y="1774" type="curve" smooth="yes"/>
      <point x="-874" y="1793"/>
      <point x="-727" y="1800"/>
      <point x="-587" y="1803" type="curve" smooth="yes"/>
      <point x="-542" y="1803" type="line" smooth="yes"/>
      <point x="-434" y="1803"/>
      <point x="-313" y="1795"/>
      <point x="-200" y="1779" type="curve" smooth="yes"/>
      <point x="-88" y="1762"/>
      <point x="18" y="1736"/>
      <point x="95" y="1698" type="curve" smooth="yes"/>
      <point x="172" y="1660"/>
      <point x="221" y="1610"/>
      <point x="221" y="1549" type="curve" smooth="yes"/>
      <point x="221" y="1534"/>
      <point x="219" y="1520"/>
      <point x="214" y="1506" type="curve"/>
      <point x="71" y="1506" type="line"/>
      <point x="71" y="1553"/>
      <point x="7" y="1589"/>
      <point x="-120" y="1613" type="curve" smooth="yes"/>
      <point x="-249" y="1638"/>
      <point x="-415" y="1650"/>
      <point x="-616" y="1650" type="curve" smooth="yes"/>
      <point x="-818" y="1650"/>
      <point x="-989" y="1638"/>
      <point x="-1128" y="1613" type="curve" smooth="yes"/>
      <point x="-1265" y="1589"/>
      <point x="-1342" y="1553"/>
      <point x="-1359" y="1506" type="curve"/>
      <point x="-1502" y="1506" type="line"/>
    </contour>
  </outline>
</glyph>
<glyph name="Omicrontonos" format="1">
  <advance width="1233"/>
  <unicode hex="038C"/>
  <note>
	Omicrontonos
  </note>
  <outline>
    <contour>
      <point x="100" y="1502" type="line"/>
      <point x="421" y="1502" type="line"/>
      <point x="-21" y="1126" type="line"/>
      <point x="-218" y="1126" type="line"/>
    </contour>
    <contour>
      <point x="206" y="-56"/>
      <point x="53" y="112"/>
      <point x="53" y="455" type="curve" smooth="yes"/>
      <point x="53" y="578"/>
      <point x="73" y="719"/>
      <point x="106" y="852" type="curve" smooth="yes"/>
      <point x="138" y="984"/>
      <point x="185" y="1110"/>
      <point x="238" y="1202" type="curve" smooth="yes"/>
      <point x="347" y="1394"/>
      <point x="507" y="1493"/>
      <point x="727" y="1493" type="curve" smooth="yes"/>
      <point x="1008" y="1493"/>
      <point x="1163" y="1327"/>
      <point x="1163" y="984" type="curve" smooth="yes"/>
      <point x="1163" y="871"/>
      <point x="1146" y="733"/>
      <point x="1115" y="600" type="curve" smooth="yes"/>
      <point x="1083" y="467"/>
      <point x="1038" y="337"/>
      <point x="981" y="237" type="curve" smooth="yes"/>
      <point x="872" y="45"/>
      <point x="710" y="-56"/>
      <point x="489" y="-56" type="curve" smooth="yes"/>
    </contour>
    <contour>
      <point x="604" y="206"/>
      <point x="662" y="254"/>
      <point x="711" y="346" type="curve" smooth="yes"/>
      <point x="744" y="407"/>
      <point x="774" y="490"/>
      <point x="802" y="603" type="curve" smooth="yes"/>
      <point x="818" y="670"/>
      <point x="834" y="741"/>
      <point x="844" y="810" type="curve" smooth="yes"/>
      <point x="854" y="878"/>
      <point x="860" y="944"/>
      <point x="860" y="997" type="curve" smooth="yes"/>
      <point x="860" y="1154"/>
      <point x="806" y="1233"/>
      <point x="697" y="1233" type="curve" smooth="yes"/>
      <point x="610" y="1233"/>
      <point x="554" y="1184"/>
      <point x="506" y="1092" type="curve" smooth="yes"/>
      <point x="475" y="1035"/>
      <point x="445" y="954"/>
      <point x="414" y="834" type="curve" smooth="yes"/>
      <point x="394" y="754"/>
      <point x="379" y="674"/>
      <point x="371" y="603" type="curve" smooth="yes"/>
      <point x="362" y="531"/>
      <point x="357" y="471"/>
      <point x="357" y="431" type="curve" smooth="yes"/>
      <point x="357" y="288"/>
      <point x="409" y="206"/>
      <point x="520" y="206" type="curve" smooth="yes"/>
    </contour>
  </outline>
</glyph>
<glyph name="Upsilontonos" format="1">
  <advance width="1233"/>
  <unicode hex="038E"/>
  <note>
	Upsilontonos
  </note>
  <outline>
    <contour>
      <point x="427" y="534" type="line" smooth="yes"/>
      <point x="447" y="635"/>
      <point x="456" y="736"/>
      <point x="456" y="829" type="curve" smooth="yes"/>
      <point x="456" y="925"/>
      <point x="446" y="1011"/>
      <point x="430" y="1077" type="curve" smooth="yes"/>
      <point x="413" y="1143"/>
      <point x="387" y="1188"/>
      <point x="358" y="1203" type="curve" smooth="yes"/>
      <point x="310" y="1226"/>
      <point x="260" y="1238"/>
      <point x="209" y="1238" type="curve" smooth="yes"/>
      <point x="182" y="1238"/>
      <point x="155" y="1235"/>
      <point x="127" y="1229" type="curve"/>
      <point x="178" y="1493" type="line"/>
      <point x="203" y="1501"/>
      <point x="234" y="1504"/>
      <point x="269" y="1504" type="curve" smooth="yes"/>
      <point x="308" y="1504"/>
      <point x="354" y="1501"/>
      <point x="405" y="1490" type="curve" smooth="yes"/>
      <point x="581" y="1458"/>
      <point x="668" y="1314"/>
      <point x="665" y="1057" type="curve"/>
      <point x="785" y="1308"/>
      <point x="928" y="1453"/>
      <point x="1093" y="1490" type="curve" smooth="yes"/>
      <point x="1118" y="1495"/>
      <point x="1141" y="1498"/>
      <point x="1160" y="1498" type="curve" smooth="yes"/>
      <point x="1241" y="1498"/>
      <point x="1333" y="1445"/>
      <point x="1333" y="1332" type="curve" smooth="yes"/>
      <point x="1333" y="1277"/>
      <point x="1310" y="1209"/>
      <point x="1265" y="1130" type="curve" smooth="yes"/>
      <point x="1238" y="1085"/>
      <point x="1194" y="1063"/>
      <point x="1150" y="1063" type="curve" smooth="yes"/>
      <point x="1117" y="1063"/>
      <point x="1085" y="1075"/>
      <point x="1062" y="1099" type="curve" smooth="yes"/>
      <point x="1039" y="1122"/>
      <point x="1025" y="1156"/>
      <point x="1029" y="1203" type="curve"/>
      <point x="870" y="1022"/>
      <point x="774" y="803"/>
      <point x="722" y="534" type="curve" smooth="yes"/>
      <point x="618" y="0" type="line"/>
      <point x="323" y="0" type="line"/>
    </contour>
    <contour>
      <point x="-216" y="1502" type="line"/>
      <point x="105" y="1502" type="line"/>
      <point x="-337" y="1126" type="line"/>
      <point x="-534" y="1126" type="line"/>
    </contour>
  </outline>
</glyph>
